<svg width="314" height="314" viewBox="0 0 314 314" fill="none" xmlns="http://www.w3.org/2000/svg">
<path d="M283.177 155.587C255.646 93.8104 160.962 41.4477 103.883 49.4861C79.0523 52.9904 44.7887 75.68 28.6679 119.998C18.0735 149.137 -18.3379 257.662 146.186 251.614C310.709 245.567 283.177 155.587 283.177 155.587Z" fill="#32746B"/>
<path opacity="0.7" d="M146.186 251.614C-18.3503 257.662 18.0737 149.137 28.6681 119.998C44.7888 75.674 79.0525 52.9906 103.884 49.4864C124.212 46.6164 149.307 51.4144 174.446 61.5691C183.266 65.1463 191.864 69.2482 200.194 73.8528C236.21 93.7164 268.822 123.377 283.178 155.587C283.178 155.587 310.709 245.548 146.186 251.614Z" fill="white"/>
<path d="M160.667 281.168C216.348 281.168 261.487 275.025 261.487 267.446C261.487 259.868 216.348 253.725 160.667 253.725C104.987 253.725 59.8484 259.868 59.8484 267.446C59.8484 275.025 104.987 281.168 160.667 281.168Z" fill="#32746B"/>
<path opacity="0.5" d="M160.667 281.168C216.348 281.168 261.487 275.025 261.487 267.446C261.487 259.868 216.348 253.725 160.667 253.725C104.987 253.725 59.8484 259.868 59.8484 267.446C59.8484 275.025 104.987 281.168 160.667 281.168Z" fill="white"/>
<path d="M155.442 198.184H110.603L118.874 231.908H163.72L155.442 198.184Z" fill="#263238" stroke="#263238" stroke-linecap="round" stroke-linejoin="round"/>
<path d="M153.32 200.137H113.68L121.003 229.948H160.636L153.32 200.137Z" fill="white" stroke="#263238" stroke-linecap="round" stroke-linejoin="round"/>
<path d="M153.32 200.137H113.68L114.371 202.926H154.004L153.32 200.137Z" fill="#32746B" stroke="#263238" stroke-linecap="round" stroke-linejoin="round"/>
<path d="M183.809 228.893H118.164V231.908H183.809V228.893Z" fill="white" stroke="#263238" stroke-linecap="round" stroke-linejoin="round"/>
<path d="M183.822 228.893H147.881V231.908H183.822V228.893Z" fill="#263238" stroke="#263238" stroke-linecap="round" stroke-linejoin="round"/>
<path d="M148.779 213.966L149.232 215.856H119.571L119.119 213.966H148.779Z" fill="#32746B"/>
<path d="M155.599 216.786H119.559L118.667 213.018H154.708L155.599 216.786ZM119.91 216.352H155.078L154.387 213.432H119.219L119.91 216.352Z" fill="#263238"/>
<path d="M138.587 211.303H134.204L133.111 206.92H134.361L134.455 207.29H133.576L134.48 210.933H138.122L137.212 207.29H136.314L136.219 206.92H137.494L138.587 211.303Z" fill="#32746B" stroke="#32746B" stroke-width="0.2" stroke-miterlimit="10"/>
<path d="M136.037 209.111H135.667L134.624 204.923H134.995L136.037 209.111Z" fill="#32746B" stroke="#32746B" stroke-width="0.2" stroke-miterlimit="10"/>
<path d="M135.912 209.325L134.342 208.603L134.429 208.276L135.792 208.898L136.784 208.207L137.055 208.527L135.912 209.325Z" fill="#32746B" stroke="#32746B" stroke-width="0.2" stroke-miterlimit="10"/>
<path d="M229.038 102.873L209.74 155.342H212.503L231.362 104.072L229.038 102.873Z" stroke="#263238" stroke-linecap="round" stroke-linejoin="round"/>
<path d="M232.096 93.8609L196.928 54.9626C196.925 55.0931 196.912 55.2232 196.891 55.3519C196.769 55.9571 196.467 56.5112 196.024 56.9408C197.652 58.2907 198.966 59.9795 199.874 61.8894L228.812 93.9174L229.182 90.8402L232.096 93.8609Z" stroke="#263238" stroke-linecap="round" stroke-linejoin="round"/>
<path d="M193.675 55.3708L194.027 55.5843L196.043 56.52L195.861 56.8528L195.999 56.9596C196.442 56.53 196.744 55.9759 196.865 55.3708C196.887 55.242 196.9 55.1119 196.903 54.9814C196.972 54.2018 196.738 53.4256 196.25 52.8139C195.761 52.2022 195.056 51.8019 194.281 51.6961C193.505 51.5903 192.719 51.7871 192.085 52.2456C191.45 52.7041 191.017 53.3892 190.874 54.1587L191.264 54.3346C192.097 54.6066 192.904 54.9534 193.675 55.3708Z" fill="#32746B" stroke="#263238" stroke-miterlimit="10"/>
<path d="M205.934 155.342V170.307H214.782V165.07H207.856V160.171H214.782V155.342H212.503H209.74H205.934Z" stroke="#263238" stroke-linecap="round" stroke-linejoin="round"/>
<path d="M191.264 54.3157L190.874 54.1399L190.843 54.1776L191.264 54.3157Z" stroke="#263238" stroke-linecap="round" stroke-linejoin="round"/>
<path d="M194.052 55.5906C194.684 55.9654 195.289 56.3851 195.861 56.8466L196.043 56.5137L194.052 55.5906Z" stroke="#263238" stroke-linecap="round" stroke-linejoin="round"/>
<path d="M231.581 104.185L235.129 96.9946L232.096 93.8609L229.157 90.8214L228.787 93.8986L227.794 102.232L229.038 102.873L231.361 104.072L231.581 104.185Z" stroke="#263238" stroke-linecap="round" stroke-linejoin="round"/>
<path d="M181.115 69.35C181.63 70.4775 182.441 71.4443 183.462 72.1477C184.482 72.851 185.674 73.2646 186.911 73.3445C188.148 73.4244 189.384 73.1676 190.486 72.6013C191.589 72.0351 192.517 71.1806 193.173 70.1287C189.095 68.0354 184.996 66.0865 180.877 64.2821C180.306 65.9399 180.391 67.7532 181.115 69.35Z" fill="white" stroke="#263238" stroke-miterlimit="10"/>
<path d="M195.999 56.9408L195.861 56.834C195.289 56.3726 194.684 55.9528 194.052 55.578L193.7 55.3645C192.93 54.9407 192.123 54.5876 191.289 54.3094L190.868 54.1713C187.645 53.1966 184.185 53.3598 181.068 54.6336C177.951 55.9074 175.367 58.2142 173.749 61.1672L174.452 61.5566C176.6 62.4232 178.743 63.3275 180.883 64.2695C184.998 66.0823 189.097 68.0312 193.179 70.1162C195.528 71.3136 197.868 72.5549 200.2 73.8402C201.389 70.9414 201.624 67.739 200.869 64.6979C200.115 61.6568 198.411 58.9353 196.005 56.9282L195.999 56.9408Z" fill="#32746B" stroke="#263238" stroke-miterlimit="10"/>
<path d="M278.499 160.781H206.398V256.494H278.499V160.781Z" fill="#BFBFBF" stroke="#263238" stroke-linecap="round" stroke-linejoin="round"/>
<path d="M268.922 169.076H214.688V187.584H268.922V169.076Z" fill="#757575" stroke="#263238" stroke-linecap="round" stroke-linejoin="round"/>
<path d="M268.922 193.324H214.688V246.923H268.922V193.324Z" fill="#757575" stroke="#263238" stroke-linecap="round" stroke-linejoin="round"/>
<path d="M283.172 154.997H201.293V160.737H283.172V154.997Z" fill="#757575" stroke="#263238" stroke-linecap="round" stroke-linejoin="round"/>
<path d="M244.254 173.755C244.254 174.219 244.117 174.672 243.859 175.057C243.601 175.442 243.235 175.743 242.807 175.92C242.378 176.097 241.907 176.143 241.452 176.052C240.998 175.961 240.581 175.737 240.253 175.409C239.926 175.081 239.703 174.663 239.614 174.208C239.524 173.753 239.571 173.282 239.749 172.854C239.928 172.426 240.229 172.061 240.615 171.804C241.001 171.548 241.455 171.411 241.918 171.413C242.225 171.413 242.53 171.473 242.814 171.591C243.097 171.709 243.355 171.881 243.572 172.099C243.789 172.317 243.961 172.575 244.078 172.859C244.195 173.143 244.255 173.448 244.254 173.755Z" fill="#BFBFBF" stroke="#263238" stroke-linecap="round" stroke-linejoin="round"/>
<path d="M262.762 227.179C264.759 227.179 266.379 223.656 266.379 219.31C266.379 214.964 264.759 211.441 262.762 211.441C260.764 211.441 259.144 214.964 259.144 219.31C259.144 223.656 260.764 227.179 262.762 227.179Z" fill="#BFBFBF" stroke="#263238" stroke-linecap="round" stroke-linejoin="round"/>
<path d="M262.762 230.966C262.512 230.97 262.263 230.924 262.031 230.832C261.799 230.739 261.587 230.601 261.409 230.425C261.231 230.25 261.089 230.041 260.993 229.81C260.896 229.579 260.846 229.332 260.846 229.082V210.336C260.842 210.083 260.889 209.832 260.983 209.598C261.078 209.364 261.219 209.151 261.398 208.972C261.576 208.793 261.789 208.653 262.024 208.558C262.258 208.463 262.509 208.416 262.762 208.421C263.012 208.421 263.259 208.47 263.49 208.567C263.721 208.664 263.93 208.805 264.105 208.984C264.28 209.162 264.418 209.373 264.511 209.605C264.604 209.838 264.65 210.086 264.646 210.336V229.057C264.649 229.306 264.603 229.554 264.509 229.785C264.416 230.017 264.278 230.228 264.103 230.405C263.927 230.583 263.719 230.724 263.488 230.82C263.258 230.916 263.011 230.966 262.762 230.966Z" fill="#BFBFBF" stroke="#263238" stroke-linecap="round" stroke-linejoin="round"/>
<path d="M270.109 148.202L275.485 134.216H274.656L268.903 148.202H270.109Z" fill="#263238" stroke="#263238" stroke-miterlimit="10"/>
<path d="M246.666 148.164L241.29 134.178H242.119L247.865 148.164H246.666Z" fill="#263238" stroke="#263238" stroke-miterlimit="10"/>
<path d="M246.886 148.164L247.156 148.792H247.96L247.702 148.164H246.886Z" fill="#263238" stroke="#263238" stroke-miterlimit="10"/>
<path d="M269.908 148.164L269.632 148.792H268.828L269.086 148.164H269.908Z" fill="#263238" stroke="#263238" stroke-miterlimit="10"/>
<path d="M248.826 152.447H245.498V154.519H248.826V152.447Z" fill="white" stroke="#263238" stroke-miterlimit="10"/>
<path d="M271.384 152.447H268.056V154.519H271.384V152.447Z" fill="white" stroke="#263238" stroke-miterlimit="10"/>
<path d="M272.552 153.364L265.33 154.149C260.738 154.647 256.106 154.647 251.514 154.149L244.292 153.364V148.88L250.164 148.12C255.642 147.41 261.189 147.41 266.668 148.12L272.533 148.88L272.552 153.364Z" fill="#263238" stroke="#263238" stroke-miterlimit="10"/>
<path d="M248.5 151.254C248.501 151.52 248.423 151.781 248.276 152.003C248.129 152.225 247.919 152.398 247.673 152.5C247.427 152.603 247.156 152.63 246.895 152.578C246.634 152.527 246.394 152.399 246.205 152.21C246.017 152.022 245.889 151.782 245.837 151.521C245.786 151.259 245.813 150.989 245.915 150.743C246.018 150.497 246.191 150.287 246.413 150.14C246.635 149.993 246.896 149.915 247.162 149.916C247.516 149.918 247.855 150.059 248.106 150.31C248.356 150.56 248.498 150.9 248.5 151.254Z" fill="white" stroke="#263238" stroke-miterlimit="10"/>
<path d="M254.736 151.26C254.737 151.345 254.713 151.428 254.666 151.5C254.62 151.571 254.553 151.627 254.475 151.66C254.397 151.693 254.31 151.702 254.227 151.685C254.143 151.669 254.067 151.628 254.007 151.568C253.947 151.508 253.906 151.432 253.889 151.348C253.873 151.265 253.882 151.178 253.915 151.1C253.948 151.022 254.004 150.955 254.075 150.909C254.146 150.862 254.23 150.838 254.315 150.839C254.37 150.839 254.425 150.85 254.476 150.871C254.527 150.892 254.573 150.923 254.612 150.963C254.651 151.002 254.682 151.048 254.704 151.099C254.725 151.15 254.736 151.205 254.736 151.26Z" fill="white"/>
<path d="M257.75 151.26C257.75 151.343 257.725 151.425 257.679 151.494C257.633 151.563 257.567 151.617 257.49 151.649C257.413 151.681 257.329 151.689 257.247 151.673C257.166 151.657 257.091 151.616 257.032 151.558C256.973 151.499 256.933 151.424 256.917 151.342C256.9 151.261 256.909 151.176 256.94 151.099C256.972 151.022 257.026 150.956 257.095 150.91C257.165 150.864 257.246 150.839 257.329 150.839C257.384 150.839 257.439 150.85 257.49 150.871C257.541 150.892 257.588 150.923 257.627 150.963C257.666 151.002 257.697 151.048 257.718 151.099C257.739 151.15 257.75 151.205 257.75 151.26Z" fill="white"/>
<path d="M260.771 151.26C260.772 151.345 260.748 151.428 260.702 151.499C260.656 151.57 260.589 151.626 260.512 151.659C260.434 151.692 260.348 151.702 260.264 151.686C260.181 151.67 260.104 151.63 260.044 151.571C259.984 151.511 259.942 151.435 259.925 151.352C259.908 151.269 259.917 151.183 259.949 151.104C259.981 151.026 260.035 150.959 260.106 150.912C260.176 150.865 260.259 150.839 260.344 150.839C260.4 150.838 260.455 150.849 260.507 150.87C260.558 150.89 260.606 150.921 260.645 150.96C260.685 150.999 260.717 151.046 260.738 151.098C260.76 151.149 260.771 151.204 260.771 151.26Z" fill="white"/>
<path d="M263.76 151.26C263.761 151.316 263.751 151.371 263.73 151.423C263.709 151.475 263.678 151.522 263.639 151.562C263.6 151.601 263.553 151.633 263.502 151.654C263.45 151.676 263.395 151.687 263.339 151.687C263.279 151.694 263.218 151.689 263.161 151.671C263.103 151.653 263.05 151.623 263.005 151.583C262.959 151.543 262.923 151.494 262.898 151.439C262.873 151.383 262.861 151.324 262.861 151.263C262.861 151.203 262.873 151.143 262.898 151.088C262.923 151.033 262.959 150.984 263.005 150.944C263.05 150.903 263.103 150.873 263.161 150.855C263.218 150.838 263.279 150.832 263.339 150.839C263.451 150.839 263.558 150.884 263.637 150.963C263.716 151.041 263.76 151.148 263.76 151.26Z" fill="white"/>
<path d="M229.792 154.714H232.216C232.163 154.642 232.125 154.561 232.103 154.475C231.337 154.597 230.566 154.677 229.792 154.714Z" stroke="#263238" stroke-miterlimit="10"/>
<path opacity="0.3" d="M229.792 154.714H232.216C232.163 154.642 232.125 154.561 232.103 154.475C231.337 154.597 230.566 154.677 229.792 154.714Z" stroke="#263238" stroke-miterlimit="10"/>
<path d="M233.44 153.402C233.44 153.483 233.591 153.489 233.647 153.565C233.88 153.847 233.553 154.526 233.459 154.714H236.756L234.244 150.387C233.892 151.643 233.239 152.774 233.44 153.402Z" stroke="#263238" stroke-miterlimit="10"/>
<path opacity="0.3" d="M233.44 153.402C233.44 153.483 233.591 153.489 233.647 153.565C233.88 153.847 233.553 154.526 233.459 154.714H236.756L234.244 150.387C233.892 151.643 233.239 152.774 233.44 153.402Z" stroke="#263238" stroke-miterlimit="10"/>
<path d="M233.647 153.565C233.591 153.489 233.465 153.483 233.44 153.402C233.239 152.774 233.892 151.643 234.225 150.387C234.271 150.215 234.309 150.046 234.338 149.878C234.596 148.422 234.213 147.071 234.69 146.362C234.878 146.079 235.249 145.935 235.318 145.602C235.387 145.269 235.054 145.118 234.966 144.836C234.746 144.126 235.594 142.776 235.864 141.319C236.134 139.862 235.745 138.505 236.216 137.796C236.272 137.714 236.398 137.708 236.486 137.639C236.875 137.306 236.699 136.439 236.699 136.439C236.699 136.439 235.889 136.106 235.5 136.439C235.399 136.521 235.368 136.665 235.261 136.716C234.269 137.212 232.404 136.395 230.237 136.395C228.071 136.395 225.91 137.199 225.088 136.703C225 136.653 225.019 136.502 224.956 136.42C224.68 136.094 223.756 136.42 223.756 136.42C223.756 136.42 223.273 137.287 223.543 137.62C223.599 137.689 223.725 137.695 223.75 137.783C223.976 138.493 223.122 139.843 222.852 141.3C222.582 142.757 222.978 144.107 222.5 144.817C222.312 145.099 221.941 145.244 221.872 145.583C221.803 145.922 222.136 146.06 222.224 146.343C222.45 147.052 221.596 148.403 221.326 149.86C221.056 151.317 221.452 152.673 220.974 153.383C220.918 153.464 220.792 153.471 220.704 153.546C220.315 153.873 220.491 154.739 220.491 154.739C220.491 154.739 221.301 155.072 221.69 154.739C221.785 154.661 221.865 154.568 221.929 154.463C223.592 154.705 225.272 154.812 226.953 154.783C227.977 154.783 228.944 154.783 229.791 154.714C230.566 154.677 231.337 154.597 232.102 154.475C232.125 154.561 232.163 154.642 232.216 154.714C232.216 154.714 232.216 154.714 232.216 154.758C232.486 155.091 233.409 154.758 233.409 154.758V154.714C233.553 154.526 233.88 153.86 233.647 153.565ZM227.336 152.899C226.731 152.918 226.131 152.799 225.58 152.549C225.029 152.299 224.543 151.927 224.158 151.46C223.774 150.992 223.503 150.443 223.364 149.854C223.226 149.266 223.225 148.653 223.361 148.064L224.196 143.385C224.462 142.059 225.168 140.861 226.2 139.986C227.231 139.111 228.527 138.609 229.879 138.562C230.485 138.542 231.086 138.662 231.638 138.912C232.189 139.162 232.676 139.535 233.06 140.003C233.444 140.471 233.716 141.021 233.853 141.611C233.991 142.201 233.992 142.814 233.855 143.404L232.988 148.076C232.724 149.398 232.023 150.592 230.998 151.467C229.972 152.342 228.683 152.846 227.336 152.899V152.899Z" stroke="#263238" stroke-miterlimit="10"/>
<path d="M232.988 148.076L233.823 143.404C233.96 142.814 233.96 142.201 233.822 141.611C233.684 141.021 233.413 140.471 233.029 140.003C232.644 139.535 232.158 139.162 231.606 138.912C231.055 138.662 230.453 138.542 229.848 138.562C228.496 138.609 227.2 139.111 226.168 139.986C225.137 140.861 224.431 142.059 224.165 143.385L223.33 148.064C223.194 148.653 223.195 149.266 223.333 149.854C223.471 150.443 223.743 150.992 224.127 151.46C224.511 151.927 224.998 152.3 225.548 152.549C226.099 152.799 226.7 152.918 227.305 152.899V152.899C228.657 152.853 229.954 152.352 230.986 151.476C232.017 150.601 232.723 149.403 232.988 148.076V148.076Z" stroke="#263238" stroke-miterlimit="10"/>
<path d="M141.156 74.575C141.156 78.2809 139.741 81.8469 137.2 84.5444C134.659 87.2419 131.183 88.8672 127.484 89.0881C127.189 89.0881 88.479 89.0881 88.1084 89.0881C84.4627 88.8187 81.0521 87.1864 78.5556 84.5161C76.059 81.8457 74.6596 78.3332 74.6358 74.6776C74.6121 71.0221 75.9657 67.4916 78.4274 64.789C80.8891 62.0865 84.2782 60.41 87.92 60.0933C88.2099 54.759 90.5405 49.7406 94.429 46.0776C98.3176 42.4147 103.466 40.3878 108.808 40.4168C114.15 40.4459 119.276 42.5287 123.125 46.2337C126.973 49.9388 129.249 54.9823 129.481 60.3194C132.774 60.9822 135.736 62.7641 137.864 65.3627C139.992 67.9612 141.155 71.2162 141.156 74.575Z" fill="white" stroke="#263238" stroke-miterlimit="10"/>
<path d="M92.5359 54.2592C93.9567 50.8894 96.34 48.0136 99.3873 45.9917C102.435 43.9698 106.011 42.8917 109.668 42.8924" stroke="#263238" stroke-linecap="round" stroke-linejoin="round"/>
<path d="M91.1104 60.4324C91.1666 59.3532 91.32 58.2813 91.5688 57.2296" stroke="#263238" stroke-linecap="round" stroke-linejoin="round"/>
<path d="M108.644 159.989C109.605 162.162 110.578 164.291 111.577 166.357" stroke="#263238" stroke-linecap="round" stroke-linejoin="round"/>
<path d="M87.8635 98.3825C87.8635 98.3825 95.3995 127.898 106.138 154.099" stroke="#263238" stroke-linecap="round" stroke-linejoin="round"/>
<path d="M130.172 120.356C130.222 121.487 130.216 122.322 130.285 123.333" stroke="#263238" stroke-linecap="round" stroke-linejoin="round"/>
<path d="M130.172 93.2203C130.115 93.7541 129.707 106.886 130.009 117.474" stroke="#263238" stroke-linecap="round" stroke-linejoin="round"/>
<path d="M148.384 180.318L135.02 200.696L109.41 181.762L122.171 181.291L121.355 179.3C109.223 149.806 100.408 119.055 95.073 87.6123L92.5107 72.5403L123.955 72.2137L123.804 76.9677C123.752 111.953 127.97 146.813 136.364 180.776L148.384 180.318Z" fill="#32746B" stroke="#263238" stroke-miterlimit="10"/>
<path d="M106.534 73.4069H118.215L118.253 77.5203C118.321 85.5335 118.818 93.5372 119.741 101.497L102.157 102.377L101.246 97.1579C100.355 92.0809 99.8466 86.944 99.7266 81.7907L106.572 73.4257" fill="white"/>
<path d="M106.534 73.4069H118.215L118.253 77.5203C118.321 85.5335 118.818 93.5372 119.741 101.497V101.497L102.157 102.377L101.246 97.1579C100.355 92.0809 99.8466 86.944 99.7266 81.7907V81.7907L106.572 73.4257" stroke="#263238" stroke-linecap="round" stroke-linejoin="round"/>
<path d="M107.294 81.6212L99.7642 81.7279L106.54 73.4258L107.294 81.6212Z" fill="white" stroke="#263238" stroke-linecap="round" stroke-linejoin="round"/>
<path d="M126.077 191.044C125.197 191.036 124.325 190.873 123.503 190.56C122.948 190.306 122.455 189.933 122.058 189.469C121.661 189.005 121.37 188.46 121.204 187.872C121.166 187.741 121.135 187.609 121.11 187.471C120.951 186.464 121.048 185.434 121.393 184.475C122.021 182.591 123.484 181.599 125.682 181.599C126.46 181.607 127.234 181.713 127.987 181.913H128.1L121.242 162.395C121.212 162.305 121.203 162.21 121.215 162.117C121.227 162.023 121.26 161.933 121.311 161.854C121.362 161.787 121.427 161.732 121.502 161.693C121.577 161.654 121.66 161.632 121.744 161.628C121.906 161.627 122.065 161.675 122.2 161.766C122.334 161.857 122.438 161.986 122.498 162.137L122.667 162.614C123.688 163.807 125.071 164.632 126.605 164.963C128.073 165.279 129.422 166.001 130.499 167.048C131.155 167.645 131.644 168.402 131.918 169.246L133.676 174.232C133.704 174.298 133.719 174.368 133.719 174.44C133.719 174.511 133.704 174.581 133.676 174.647C133.646 174.706 133.605 174.758 133.554 174.8C133.503 174.842 133.444 174.873 133.381 174.892H133.306H133.18C133.015 174.88 132.86 174.811 132.74 174.697C131.698 173.357 130.222 172.422 128.564 172.053C127.543 171.838 126.588 171.379 125.782 170.716L130.367 183.778C130.936 185.416 130.873 187.208 130.191 188.802C129.779 189.519 129.177 190.108 128.451 190.504C127.725 190.899 126.903 191.086 126.077 191.044Z" fill="white"/>
<path d="M121.782 161.967C121.875 161.973 121.964 162.005 122.04 162.059C122.116 162.114 122.174 162.189 122.209 162.275L122.397 162.803C123.464 164.077 124.924 164.961 126.548 165.315C127.951 165.607 129.244 166.289 130.279 167.28C130.897 167.838 131.358 168.548 131.616 169.34L133.381 174.364C133.391 174.388 133.396 174.414 133.396 174.439C133.395 174.465 133.39 174.491 133.379 174.514C133.368 174.538 133.353 174.559 133.334 174.576C133.315 174.594 133.292 174.607 133.268 174.615H133.205C133.106 174.609 133.012 174.567 132.941 174.496C131.856 173.118 130.327 172.157 128.614 171.777C127.258 171.458 126.027 170.743 125.079 169.723L130.059 183.91C130.585 185.461 130.532 187.149 129.908 188.664C129.529 189.334 128.971 189.885 128.297 190.258C127.623 190.63 126.859 190.809 126.09 190.774C125.251 190.767 124.419 190.612 123.634 190.315C123.124 190.08 122.671 189.737 122.306 189.31C121.94 188.883 121.672 188.382 121.518 187.841C121.484 187.721 121.457 187.6 121.436 187.477C121.279 186.517 121.372 185.533 121.706 184.619C122.385 182.509 124.099 181.963 125.694 181.963C126.445 181.974 127.191 182.075 127.917 182.264C128.049 182.264 128.162 182.327 128.269 182.352H128.344L128.614 182.44L121.549 162.344C121.499 162.156 121.587 161.999 121.775 161.993L121.782 161.967ZM121.775 161.365H121.725C121.593 161.369 121.464 161.403 121.347 161.465C121.231 161.527 121.13 161.615 121.053 161.723C120.972 161.837 120.919 161.968 120.897 162.107C120.875 162.245 120.886 162.386 120.928 162.52V162.552L127.616 181.492C126.98 181.355 126.332 181.284 125.682 181.278C123.333 181.278 121.75 182.346 121.091 184.368C120.736 185.375 120.637 186.454 120.802 187.508C120.826 187.65 120.857 187.791 120.896 187.929C121.075 188.568 121.393 189.159 121.828 189.661C122.262 190.162 122.802 190.562 123.408 190.83C124.267 191.156 125.177 191.326 126.096 191.333C126.976 191.371 127.848 191.164 128.618 190.736C129.387 190.308 130.023 189.676 130.454 188.909C131.175 187.239 131.249 185.361 130.662 183.64L126.391 171.488C127.036 171.891 127.749 172.174 128.495 172.323C130.069 172.673 131.47 173.561 132.458 174.835V174.873V174.904C132.628 175.068 132.85 175.168 133.086 175.187H133.243L133.4 175.143C133.607 175.078 133.781 174.933 133.883 174.741C133.977 174.544 133.99 174.319 133.921 174.113L132.156 169.089C131.865 168.201 131.348 167.405 130.655 166.778C129.535 165.706 128.136 164.971 126.617 164.655C125.175 164.339 123.872 163.569 122.9 162.457L122.755 162.043C122.676 161.833 122.537 161.652 122.355 161.522C122.172 161.392 121.955 161.32 121.732 161.314L121.775 161.365Z" fill="#263238"/>
<path d="M96.2411 139.466L113.285 135.792C111.171 126.548 109.481 117.222 108.217 107.815L89.3206 111.891C91.2046 121.185 93.5114 130.377 96.2411 139.466Z" fill="white" stroke="#263238" stroke-linecap="round" stroke-linejoin="round"/>
<path d="M110.139 129.889L96.3228 132.872C94.7151 126.938 93.9867 123.955 92.6804 117.951L107.319 114.811C108.28 120.865 108.851 123.886 110.139 129.889Z" fill="#263238" stroke="#263238" stroke-linecap="round" stroke-linejoin="round"/>
<path d="M104.248 123.119C103.199 126.561 102.697 128.282 101.736 131.704L110.139 129.896C107.721 127.195 106.54 125.839 104.248 123.119Z" fill="white" stroke="#263238" stroke-linecap="round" stroke-linejoin="round"/>
<path d="M99.2242 122.36C97.9682 126.58 97.403 128.683 96.2852 132.872L106.547 130.662C103.564 127.352 102.1 125.694 99.2242 122.36Z" fill="white" stroke="#263238" stroke-linecap="round" stroke-linejoin="round"/>
<path d="M106.886 118.993C106.968 119.384 106.896 119.791 106.686 120.131C106.475 120.47 106.142 120.715 105.755 120.815C105.564 120.85 105.369 120.846 105.179 120.804C104.99 120.762 104.811 120.682 104.653 120.57C104.495 120.458 104.361 120.315 104.259 120.15C104.157 119.984 104.089 119.801 104.06 119.609C103.974 119.216 104.043 118.804 104.254 118.461C104.465 118.118 104.8 117.87 105.19 117.769C105.382 117.733 105.58 117.737 105.771 117.779C105.961 117.822 106.142 117.903 106.3 118.018C106.459 118.132 106.592 118.278 106.693 118.446C106.794 118.613 106.859 118.8 106.886 118.993Z" fill="white" stroke="#263238" stroke-linecap="round" stroke-linejoin="round"/>
<path d="M120.363 157.402L139.724 158.884C136.637 149.955 135.325 140.509 135.862 131.076L116.99 126.523C116.085 136.938 117.23 147.428 120.363 157.402Z" fill="white" stroke="#263238" stroke-linecap="round" stroke-linejoin="round"/>
<path d="M134.392 144.779C134.97 148.993 132.401 151.97 128.162 151.486C123.923 151.003 119.665 146.952 119.15 142.368C118.636 137.783 122.046 134.756 126.222 135.598C130.398 136.439 133.846 140.572 134.392 144.779Z" fill="#263238" stroke="#263238" stroke-linecap="round" stroke-linejoin="round"/>
<path d="M131.208 144.277C128.143 142.154 126.643 141.061 123.672 138.807C123.823 141.718 124.171 144.616 124.715 147.479C127.289 146.136 128.583 145.495 131.208 144.277Z" fill="white" stroke="#263238" stroke-linecap="round" stroke-linejoin="round"/>
<path d="M129.368 232.561C139.221 227.889 176.317 240.097 176.317 240.097L173.956 245.247C173.956 245.247 116.645 238.596 129.368 232.561Z" fill="#263238" stroke="#263238" stroke-linecap="round" stroke-linejoin="round"/>
<path d="M173.899 245.705C170.636 244.595 167.443 243.284 164.341 241.78C154.419 236.907 134.945 228.391 127.848 232.749C118.146 238.697 124.614 255.138 146.544 265.996C168.473 276.854 184.776 277.017 190.008 271.93C194.78 267.314 186.051 249.906 173.899 245.705Z" fill="#263238" stroke="#263238" stroke-linecap="round" stroke-linejoin="round"/>
<path d="M178.735 137.532C178.735 137.532 177.699 141.243 178.107 142.556C178.515 143.869 180.098 145.407 179.777 146.952C179.457 148.497 177.724 150.356 177.893 151.574C178.063 152.792 180.104 153.383 180.104 153.383C180.104 153.383 183.012 158.984 183.872 160.919C184.732 162.853 185.348 162.3 187.27 162.175C189.191 162.049 193.782 159.449 196.52 157.301C199.258 155.154 197.205 146.475 193.531 140.182C189.857 133.89 182.603 132.508 180.732 133.726C178.861 134.945 178.735 137.532 178.735 137.532Z" fill="white"/>
<path d="M189.775 136.012C188.576 138.826 186.943 143.743 188.048 147.53C189.713 153.219 191.27 156.322 188.902 160.259C188.475 160.938 188.061 161.553 187.646 162.087C189.75 161.653 193.926 159.28 196.438 157.283C199.17 155.135 197.123 146.456 193.449 140.163C192.514 138.548 191.265 137.137 189.775 136.012Z" fill="#32746B"/>
<path opacity="0.5" d="M189.775 136.012C188.576 138.826 186.943 143.743 188.048 147.53C189.713 153.219 191.27 156.322 188.902 160.259C188.475 160.938 188.061 161.553 187.646 162.087C189.75 161.653 193.926 159.28 196.438 157.283C199.17 155.135 197.123 146.456 193.449 140.163C192.514 138.548 191.265 137.137 189.775 136.012Z" fill="white"/>
<path d="M180.449 143.718C180.449 143.718 180.845 141.765 182.924 143.542" stroke="#263238" stroke-linecap="round" stroke-linejoin="round"/>
<path d="M182.12 147.034C182.321 147.699 182.233 148.29 181.913 148.409C181.593 148.528 181.184 148.045 180.983 147.379C180.782 146.713 180.87 146.123 181.178 146.016C181.486 145.91 181.932 146.374 182.12 147.034Z" fill="#263238"/>
<path d="M178.735 137.532C178.735 137.532 177.699 141.243 178.107 142.556C178.515 143.869 180.098 145.407 179.777 146.952C179.457 148.497 177.724 150.356 177.893 151.574C178.063 152.792 180.104 153.383 180.104 153.383C180.104 153.383 183.012 158.984 183.872 160.919C184.732 162.853 185.348 162.3 187.27 162.175C189.191 162.049 193.782 159.449 196.52 157.301C199.258 155.154 197.205 146.475 193.531 140.182C189.857 133.89 182.603 132.508 180.732 133.726C178.861 134.945 178.735 137.532 178.735 137.532Z" stroke="#263238" stroke-linecap="round" stroke-linejoin="round"/>
<path d="M180.085 221.91C180.085 221.91 176.223 218.324 175.061 218.224C173.899 218.123 172.191 218.732 171.752 218.695C171.312 218.657 170.301 218.274 169.528 218.657C168.949 218.99 168.416 219.4 167.946 219.875C167.154 220.153 166.382 220.484 165.635 220.868C164.379 221.496 161.314 224.667 160.812 225.37C160.309 226.074 160.711 226.551 161.484 226.168C162.256 225.785 166.464 223.028 166.464 223.028C166.464 223.028 170.006 225.1 170.816 226.086C171.784 227.322 173.094 228.246 174.584 228.743C176.02 229.151 177.492 229.422 178.98 229.553C178.98 229.553 181.887 226.978 181.592 224.868C181.553 224.299 181.399 223.744 181.14 223.236C180.881 222.727 180.522 222.277 180.085 221.91Z" fill="white" stroke="#263238" stroke-linecap="round" stroke-linejoin="round"/>
<path d="M206.989 172.838C205.972 173.291 204.997 173.831 204.075 174.452C202.367 175.601 200.683 178.101 200.099 183.483C199.515 188.865 199.578 201.626 199.515 207.045C199.371 219.605 182.88 219.486 180.003 220.598C177.127 221.709 174.427 224.874 175.777 227.65C176.976 230.118 180.33 230.363 183.068 230.231C186.742 230.049 205.676 229.038 208.464 226.802C212.521 223.549 211.604 219.046 212.113 213.865C213.74 198.165 213.953 181.944 213.953 181.944C213.988 179.864 213.32 177.832 212.056 176.179C210.791 174.526 209.006 173.349 206.989 172.838Z" fill="white" stroke="#263238" stroke-linecap="round" stroke-linejoin="round"/>
<path d="M192.275 160.994C192.275 160.994 195.038 161.842 194.617 164.184C194.196 166.527 193.763 168.649 193.763 168.649C193.763 168.649 208.835 169.076 208.653 168.222C208.471 167.368 204.188 152.912 204.188 152.912C204.188 152.912 196.105 152.485 192.275 160.994Z" fill="white"/>
<path d="M205.726 159.28L194.617 164.184L194.422 165.327C194.422 165.327 203.717 164.071 206.398 161.522L205.726 159.28Z" fill="#32746B"/>
<path opacity="0.5" d="M205.726 159.28L194.617 164.184L194.422 165.327C194.422 165.327 203.717 164.071 206.398 161.522L205.726 159.28Z" fill="white"/>
<path d="M192.275 160.994C192.275 160.994 195.038 161.842 194.617 164.184C194.196 166.527 193.763 168.649 193.763 168.649C193.763 168.649 208.835 169.076 208.653 168.222C208.471 167.368 204.188 152.912 204.188 152.912C204.188 152.912 196.105 152.485 192.275 160.994Z" stroke="#263238" stroke-linecap="round" stroke-linejoin="round"/>
<path d="M178.239 171.199C173.843 173.981 175.143 177.014 176.204 182.283C178.603 194.159 181.818 217.106 180.6 222.883C179.168 229.641 175.143 233.949 169.61 233.949C167.042 233.949 166.439 236.417 163.657 235.205C157.703 232.649 153.219 234.514 151.097 236.266C142.374 243.501 153.395 269.048 166.169 275.202C177.598 280.685 189.851 277.086 195.886 274.643C198.046 273.764 200.338 274.179 202.599 274.756C214.456 277.752 224.026 267.547 225.088 258.428C226.72 244.386 222.324 243.752 220.114 228.228C219.93 226.533 219.86 224.827 219.907 223.122C219.838 212.383 224.164 202.398 223.091 186.114C222.664 179.69 221.652 171.45 217.351 169.102C199.327 159.229 178.383 171.111 178.239 171.199Z" fill="#32746B"/>
<path opacity="0.2" d="M190.02 203.673L187.251 220.302C186.88 222.532 186.466 224.862 185.078 226.639C183.69 228.416 180.989 229.402 179.105 228.159C178.93 225.647 181.065 223.725 182.61 221.766C186.78 216.503 187.288 209.306 187.477 202.593C187.646 196.382 187.238 184.601 193.757 181.14C193.122 188.632 191.257 196.244 190.02 203.673Z" fill="black"/>
<path opacity="0.2" d="M194.29 229.547L194.579 229.923C194.039 230.595 193.097 230.765 192.243 230.903C191.389 231.041 190.441 231.236 189.926 231.927C189.411 232.617 189.807 233.924 190.673 233.855C189.568 233.943 181.373 233.641 182.748 230.922C183.464 229.521 192.582 229.71 194.29 229.547Z" fill="black"/>
<path opacity="0.2" d="M177.724 243.664C178.157 244.041 178.628 244.637 178.314 245.115C178 245.592 177.253 245.404 176.75 245.115C174.477 243.808 172.354 241.516 171.651 238.96C173.604 238.967 176.261 242.345 177.724 243.664Z" fill="black"/>
<path opacity="0.2" d="M169.227 241.56C169.23 243.135 169.664 244.68 170.483 246.025L168.072 242.81C170.865 248.711 175.403 253.612 181.071 256.852C178.7 255.488 176.954 253.253 176.204 250.622C176.455 251.508 178.521 250.497 178.176 249.316C177.862 248.274 176.462 248.606 175.633 248.248C172.819 247.068 170.866 243.997 169.227 241.56Z" fill="black"/>
<g opacity="0.2">
<path opacity="0.2" d="M148.258 245.63C153.816 255.822 164.084 263.553 173.761 269.971C185.26 277.576 196.564 273.444 206.957 271.296C204.722 272.64 205.268 273.751 207.522 274.204C211.058 274.141 214.223 272.219 217.03 270.065C219.837 267.911 222.18 264.689 225.094 259.207C223.75 267.999 213.225 277.005 204.163 275.102C201.023 274.474 198.398 274.147 196.338 274.763C193.914 275.485 193.374 275.642 188.94 276.891C180.996 279.127 169.698 278.951 162.313 273.054C157.819 269.368 154.283 264.65 152.007 259.301C150.113 254.991 148.856 250.428 148.277 245.755L148.258 245.63Z" fill="black"/>
</g>
<path opacity="0.2" d="M220.83 209.626C220.786 213.426 219.856 217.162 219.655 220.962C219.825 217.778 218.87 214.33 218.883 211.077C218.883 208.647 218.418 203.598 219.919 201.626C220.621 204.232 220.928 206.929 220.83 209.626Z" fill="black"/>
<path d="M178.239 171.199C173.843 173.981 175.143 177.014 176.204 182.283C178.603 194.159 181.818 217.106 180.6 222.883C179.168 229.641 175.143 233.949 169.61 233.949C167.042 233.949 166.439 236.417 163.657 235.205C157.703 232.649 153.219 234.514 151.097 236.266C142.374 243.501 153.395 269.048 166.169 275.202C177.598 280.685 189.851 277.086 195.886 274.643C198.046 273.764 200.338 274.179 202.599 274.756C214.456 277.752 224.026 267.547 225.088 258.428C226.72 244.386 222.324 243.752 220.114 228.228C219.93 226.533 219.86 224.827 219.907 223.122C219.838 212.383 224.164 202.398 223.091 186.114C222.664 179.69 221.652 171.45 217.351 169.102C199.327 159.229 178.383 171.111 178.239 171.199Z" stroke="#263238" stroke-linecap="round" stroke-linejoin="round"/>
<path d="M155.951 221.464C155.951 221.464 151.511 218.619 150.337 218.732C149.162 218.845 147.605 219.737 147.197 219.775C146.789 219.813 145.696 219.624 144.999 220.133C144.489 220.565 144.039 221.064 143.661 221.615C142.929 222.028 142.226 222.492 141.557 223.003C140.452 223.851 137.984 227.506 137.613 228.291C137.243 229.076 137.727 229.465 138.417 228.956C138.926 228.573 141.049 226.582 142.129 225.565C142.32 225.384 142.558 225.262 142.816 225.212C143.074 225.161 143.341 225.186 143.586 225.282C144.773 225.747 146.895 226.62 147.58 227.204C148.762 228.253 150.228 228.931 151.794 229.151C153.277 229.292 154.77 229.292 156.253 229.151C156.253 229.151 158.664 226.099 157.992 224.083C157.847 223.531 157.592 223.014 157.241 222.564C156.89 222.114 156.451 221.739 155.951 221.464Z" fill="white"/>
<path d="M184.682 208.163C183.049 212.515 180.493 216.629 176.763 219.398C173.975 221.464 170.665 222.695 167.343 223.794C164.308 224.816 161.247 225.762 158.162 226.633C157.176 226.909 156.027 227.154 155.191 226.557C154.843 226.261 154.588 225.87 154.458 225.432C154.327 224.994 154.327 224.528 154.457 224.089C154.726 223.216 155.165 222.405 155.75 221.703C155.015 221.915 154.34 222.3 153.783 222.825C153.226 223.351 152.802 224.001 152.547 224.724C152.277 225.502 152.171 226.425 151.505 226.928C151.3 227.055 151.071 227.139 150.833 227.176C150.594 227.213 150.351 227.202 150.117 227.143C149.883 227.085 149.663 226.98 149.47 226.835C149.277 226.69 149.115 226.508 148.993 226.3C148.765 225.874 148.646 225.398 148.646 224.915C148.646 224.432 148.765 223.956 148.993 223.53C149.454 222.684 150.052 221.92 150.764 221.27C150.048 221.05 149.37 221.697 148.993 222.343C148.616 222.99 148.296 223.756 147.611 224.052C146.77 224.41 145.84 223.882 144.955 223.668C144.148 223.519 143.317 223.57 142.534 223.817C141.751 224.063 141.041 224.497 140.465 225.081C139.318 226.256 138.434 227.66 137.871 229.201C138.21 228.362 138.748 227.618 139.437 227.032C140.127 226.446 140.948 226.036 141.83 225.836C142.713 225.637 143.631 225.655 144.505 225.887C145.38 226.12 146.185 226.561 146.851 227.173C147.407 227.814 148.04 228.384 148.735 228.868C149.499 229.199 150.33 229.339 151.16 229.277C159.388 229.268 167.57 228.041 175.438 225.634C178.785 224.604 182.271 223.223 184.312 220.371C185.907 218.155 186.397 215.347 186.748 212.641C187.121 209.781 187.381 206.916 187.527 204.043C187.665 201.456 188.029 198.53 187.602 195.974C186.748 200.093 186.171 204.2 184.682 208.163Z" fill="#32746B"/>
<path opacity="0.5" d="M184.682 208.163C183.049 212.515 180.493 216.629 176.763 219.398C173.975 221.464 170.665 222.695 167.343 223.794C164.308 224.816 161.247 225.762 158.162 226.633C157.176 226.909 156.027 227.154 155.191 226.557C154.843 226.261 154.588 225.87 154.458 225.432C154.327 224.994 154.327 224.528 154.457 224.089C154.726 223.216 155.165 222.405 155.75 221.703C155.015 221.915 154.34 222.3 153.783 222.825C153.226 223.351 152.802 224.001 152.547 224.724C152.277 225.502 152.171 226.425 151.505 226.928C151.3 227.055 151.071 227.139 150.833 227.176C150.594 227.213 150.351 227.202 150.117 227.143C149.883 227.085 149.663 226.98 149.47 226.835C149.277 226.69 149.115 226.508 148.993 226.3C148.765 225.874 148.646 225.398 148.646 224.915C148.646 224.432 148.765 223.956 148.993 223.53C149.454 222.684 150.052 221.92 150.764 221.27C150.048 221.05 149.37 221.697 148.993 222.343C148.616 222.99 148.296 223.756 147.611 224.052C146.77 224.41 145.84 223.882 144.955 223.668C144.148 223.519 143.317 223.57 142.534 223.817C141.751 224.063 141.041 224.497 140.465 225.081C139.318 226.256 138.434 227.66 137.871 229.201C138.21 228.362 138.748 227.618 139.437 227.032C140.127 226.446 140.948 226.036 141.83 225.836C142.713 225.637 143.631 225.655 144.505 225.887C145.38 226.12 146.185 226.561 146.851 227.173C147.407 227.814 148.04 228.384 148.735 228.868C149.499 229.199 150.33 229.339 151.16 229.277C159.388 229.268 167.57 228.041 175.438 225.634C178.785 224.604 182.271 223.223 184.312 220.371C185.907 218.155 186.397 215.347 186.748 212.641C187.121 209.781 187.381 206.916 187.527 204.043C187.665 201.456 188.029 198.53 187.602 195.974C186.748 200.093 186.171 204.2 184.682 208.163Z" fill="white"/>
<path d="M155.951 221.464C155.951 221.464 151.511 218.619 150.337 218.732C149.162 218.845 147.605 219.737 147.197 219.775C146.789 219.813 145.696 219.624 144.999 220.133C144.489 220.565 144.039 221.064 143.661 221.615C142.929 222.028 142.226 222.492 141.557 223.003C140.452 223.851 137.984 227.506 137.613 228.291C137.243 229.076 137.727 229.465 138.417 228.956C138.926 228.573 141.049 226.582 142.129 225.565C142.32 225.384 142.558 225.262 142.816 225.212C143.074 225.161 143.341 225.186 143.586 225.282C144.773 225.747 146.895 226.62 147.58 227.204C148.762 228.253 150.228 228.931 151.794 229.151C153.277 229.292 154.77 229.292 156.253 229.151C156.253 229.151 158.664 226.099 157.992 224.083C157.847 223.531 157.592 223.014 157.241 222.564C156.89 222.114 156.451 221.739 155.951 221.464Z" stroke="#263238" stroke-linecap="round" stroke-linejoin="round"/>
<path d="M187.772 183.822C187.489 179.545 183.533 171.218 179.306 170.508C178.333 171.045 177.407 171.663 176.537 172.355C174.929 173.642 174.446 176.211 174.301 181.624C174.157 187.037 175.155 199.49 174.515 210.977C174.515 211.19 158.495 219.838 155.719 221.182C152.943 222.526 151.147 225.056 152.723 227.713C154.124 230.068 157.119 229.559 159.838 229.195C163.487 228.711 180.562 225.144 183.665 221.967C189.807 215.586 187.772 183.822 187.772 183.822Z" fill="white"/>
<path d="M184.682 208.163C183.049 212.515 180.493 216.629 176.763 219.398C173.975 221.464 170.665 222.695 167.343 223.794C164.308 224.816 161.247 225.762 158.162 226.633C157.176 226.909 156.027 227.154 155.191 226.557C154.843 226.261 154.588 225.87 154.458 225.432C154.327 224.994 154.327 224.528 154.457 224.089C154.726 223.216 155.165 222.405 155.75 221.703C155.015 221.915 154.34 222.3 153.783 222.825C153.226 223.351 152.802 224.001 152.547 224.724C152.277 225.502 152.171 226.425 151.505 226.928C151.3 227.055 151.071 227.139 150.833 227.176C150.594 227.213 150.351 227.202 150.117 227.143C149.883 227.085 149.663 226.98 149.47 226.835C149.277 226.69 149.115 226.508 148.993 226.3C148.765 225.874 148.646 225.398 148.646 224.915C148.646 224.432 148.765 223.956 148.993 223.53C149.454 222.684 150.052 221.92 150.764 221.27C150.048 221.05 149.37 221.697 148.993 222.343C148.616 222.99 148.296 223.756 147.611 224.052C146.77 224.41 145.84 223.882 144.955 223.668C144.148 223.519 143.317 223.57 142.534 223.817C141.751 224.063 141.041 224.497 140.465 225.081C139.318 226.256 138.434 227.66 137.871 229.201C138.21 228.362 138.748 227.618 139.437 227.032C140.127 226.446 140.948 226.036 141.83 225.836C142.713 225.637 143.631 225.655 144.505 225.887C145.38 226.12 146.185 226.561 146.851 227.173C147.407 227.814 148.04 228.384 148.735 228.868C149.499 229.199 150.33 229.339 151.16 229.277C159.388 229.268 167.57 228.041 175.438 225.634C178.785 224.604 182.271 223.223 184.312 220.371C185.907 218.155 186.397 215.347 186.748 212.641C187.121 209.781 187.381 206.916 187.527 204.043C187.665 201.456 188.029 198.53 187.602 195.974C186.748 200.093 186.171 204.2 184.682 208.163Z" fill="#32746B"/>
<path opacity="0.5" d="M184.682 208.163C183.049 212.515 180.493 216.629 176.763 219.398C173.975 221.464 170.665 222.695 167.343 223.794C164.308 224.816 161.247 225.762 158.162 226.633C157.176 226.909 156.027 227.154 155.191 226.557C154.843 226.261 154.588 225.87 154.458 225.432C154.327 224.994 154.327 224.528 154.457 224.089C154.726 223.216 155.165 222.405 155.75 221.703C155.015 221.915 154.34 222.3 153.783 222.825C153.226 223.351 152.802 224.001 152.547 224.724C152.277 225.502 152.171 226.425 151.505 226.928C151.3 227.055 151.071 227.139 150.833 227.176C150.594 227.213 150.351 227.202 150.117 227.143C149.883 227.085 149.663 226.98 149.47 226.835C149.277 226.69 149.115 226.508 148.993 226.3C148.765 225.874 148.646 225.398 148.646 224.915C148.646 224.432 148.765 223.956 148.993 223.53C149.454 222.684 150.052 221.92 150.764 221.27C150.048 221.05 149.37 221.697 148.993 222.343C148.616 222.99 148.296 223.756 147.611 224.052C146.77 224.41 145.84 223.882 144.955 223.668C144.148 223.519 143.317 223.57 142.534 223.817C141.751 224.063 141.041 224.497 140.465 225.081C139.318 226.256 138.434 227.66 137.871 229.201C138.21 228.362 138.748 227.618 139.437 227.032C140.127 226.446 140.948 226.036 141.83 225.836C142.713 225.637 143.631 225.655 144.505 225.887C145.38 226.12 146.185 226.561 146.851 227.173C147.407 227.814 148.04 228.384 148.735 228.868C149.499 229.199 150.33 229.339 151.16 229.277C159.388 229.268 167.57 228.041 175.438 225.634C178.785 224.604 182.271 223.223 184.312 220.371C185.907 218.155 186.397 215.347 186.748 212.641C187.121 209.781 187.381 206.916 187.527 204.043C187.665 201.456 188.029 198.53 187.602 195.974C186.748 200.093 186.171 204.2 184.682 208.163Z" fill="white"/>
<path d="M187.772 183.822C187.489 179.545 183.533 171.218 179.306 170.508C178.333 171.045 177.407 171.663 176.537 172.355C174.929 173.642 174.446 176.211 174.301 181.624C174.157 187.037 175.155 199.49 174.515 210.977C174.515 211.19 158.495 219.838 155.719 221.182C152.943 222.526 151.147 225.056 152.723 227.713C154.124 230.068 157.119 229.559 159.838 229.195C163.487 228.711 180.562 225.144 183.665 221.967C189.807 215.586 187.772 183.822 187.772 183.822Z" stroke="#263238" stroke-linecap="round" stroke-linejoin="round"/>
<path d="M218.651 146.663C221.345 141.407 218.965 134.58 215.461 129.82C209.695 121.976 197.462 119.653 188.262 120.896C183.954 121.48 179.633 123.572 177.397 127.302C175.162 131.032 175.702 136.515 179.281 139.02C182.616 141.375 187.91 140.992 189.957 144.54C192.118 148.308 188.532 152.843 188.475 157.201C188.431 159.945 189.826 162.552 189.838 165.302C189.788 165.302 211.008 161.628 218.651 146.663Z" fill="#263238" stroke="#263238" stroke-linecap="round" stroke-linejoin="round"/>
<path d="M156.893 220.654C156.893 220.654 156.956 221.282 154.381 219.586C151.932 217.991 145.551 223.844 148.007 227.838L148.214 228.523C148.49 229.452 150.274 228.849 151.191 229.151C152.316 229.547 153.523 229.655 154.701 229.465C156.623 229.264 151.31 226.08 156.893 220.654Z" fill="white"/>
<path d="M184.682 208.163C183.049 212.515 180.493 216.629 176.763 219.398C173.975 221.464 170.665 222.695 167.343 223.794C164.308 224.816 161.247 225.762 158.162 226.633C157.176 226.909 156.027 227.154 155.191 226.557C154.843 226.261 154.588 225.87 154.458 225.432C154.327 224.994 154.327 224.528 154.457 224.089C154.726 223.216 155.165 222.405 155.75 221.703C155.015 221.915 154.34 222.3 153.783 222.825C153.226 223.351 152.802 224.001 152.547 224.724C152.277 225.502 152.171 226.425 151.505 226.928C151.3 227.055 151.071 227.139 150.833 227.176C150.594 227.213 150.351 227.202 150.117 227.143C149.883 227.085 149.663 226.98 149.47 226.835C149.277 226.69 149.115 226.508 148.993 226.3C148.765 225.874 148.646 225.398 148.646 224.915C148.646 224.432 148.765 223.956 148.993 223.53C149.454 222.684 150.052 221.92 150.764 221.27C150.048 221.05 149.37 221.697 148.993 222.343C148.616 222.99 148.296 223.756 147.611 224.052C146.77 224.41 145.84 223.882 144.955 223.668C144.148 223.519 143.317 223.57 142.534 223.817C141.751 224.063 141.041 224.497 140.465 225.081C139.318 226.256 138.434 227.66 137.871 229.201C138.21 228.362 138.748 227.618 139.437 227.032C140.127 226.446 140.948 226.036 141.83 225.836C142.713 225.637 143.631 225.655 144.505 225.887C145.38 226.12 146.185 226.561 146.851 227.173C147.407 227.814 148.04 228.384 148.735 228.868C149.499 229.199 150.33 229.339 151.16 229.277C159.388 229.268 167.57 228.041 175.438 225.634C178.785 224.604 182.271 223.223 184.312 220.371C185.907 218.155 186.397 215.347 186.748 212.641C187.121 209.781 187.381 206.916 187.527 204.043C187.665 201.456 188.029 198.53 187.602 195.974C186.748 200.093 186.171 204.2 184.682 208.163Z" fill="#32746B"/>
<path opacity="0.5" d="M184.682 208.163C183.049 212.515 180.493 216.629 176.763 219.398C173.975 221.464 170.665 222.695 167.343 223.794C164.308 224.816 161.247 225.762 158.162 226.633C157.176 226.909 156.027 227.154 155.191 226.557C154.843 226.261 154.588 225.87 154.458 225.432C154.327 224.994 154.327 224.528 154.457 224.089C154.726 223.216 155.165 222.405 155.75 221.703C155.015 221.915 154.34 222.3 153.783 222.825C153.226 223.351 152.802 224.001 152.547 224.724C152.277 225.502 152.171 226.425 151.505 226.928C151.3 227.055 151.071 227.139 150.833 227.176C150.594 227.213 150.351 227.202 150.117 227.143C149.883 227.085 149.663 226.98 149.47 226.835C149.277 226.69 149.115 226.508 148.993 226.3C148.765 225.874 148.646 225.398 148.646 224.915C148.646 224.432 148.765 223.956 148.993 223.53C149.454 222.684 150.052 221.92 150.764 221.27C150.048 221.05 149.37 221.697 148.993 222.343C148.616 222.99 148.296 223.756 147.611 224.052C146.77 224.41 145.84 223.882 144.955 223.668C144.148 223.519 143.317 223.57 142.534 223.817C141.751 224.063 141.041 224.497 140.465 225.081C139.318 226.256 138.434 227.66 137.871 229.201C138.21 228.362 138.748 227.618 139.437 227.032C140.127 226.446 140.948 226.036 141.83 225.836C142.713 225.637 143.631 225.655 144.505 225.887C145.38 226.12 146.185 226.561 146.851 227.173C147.407 227.814 148.04 228.384 148.735 228.868C149.499 229.199 150.33 229.339 151.16 229.277C159.388 229.268 167.57 228.041 175.438 225.634C178.785 224.604 182.271 223.223 184.312 220.371C185.907 218.155 186.397 215.347 186.748 212.641C187.121 209.781 187.381 206.916 187.527 204.043C187.665 201.456 188.029 198.53 187.602 195.974C186.748 200.093 186.171 204.2 184.682 208.163Z" fill="white"/>
<path d="M156.893 220.654C156.893 220.654 156.956 221.282 154.381 219.586C151.932 217.991 145.551 223.844 148.007 227.838L148.214 228.523C148.49 229.452 150.274 228.849 151.191 229.151C152.316 229.547 153.523 229.655 154.701 229.465C156.623 229.264 151.31 226.08 156.893 220.654Z" stroke="#263238" stroke-linecap="round" stroke-linejoin="round"/>
<path d="M185.216 124.005C183.376 126.278 183.514 129.619 184.55 132.351C185.587 135.083 187.37 137.469 188.67 140.088C189.97 142.707 191.578 145.407 190.491 148.126C192.103 142.269 192.295 136.112 191.05 130.166" stroke="#757575" stroke-linecap="round" stroke-linejoin="round"/>
<path d="M193.361 122.165C202.969 131.415 205.865 140.421 206.298 148.723" stroke="#757575" stroke-linecap="round" stroke-linejoin="round"/>
<path d="M188.494 126.756C190.82 132.639 191.55 139.032 190.611 145.288" stroke="#757575" stroke-linecap="round" stroke-linejoin="round"/>
<path d="M180.067 126.046C178.679 127.345 177.779 129.081 177.517 130.963" stroke="#757575" stroke-linecap="round" stroke-linejoin="round"/>
<path d="M182.478 125.305C181.988 126.377 181.72 127.536 181.687 128.715C181.655 129.893 181.86 131.065 182.289 132.163" stroke="#757575" stroke-linecap="round" stroke-linejoin="round"/>
<path d="M203.158 125.06C205.616 126.525 207.689 128.556 209.203 130.985C210.717 133.413 211.629 136.168 211.862 139.02" stroke="#757575" stroke-linecap="round" stroke-linejoin="round"/>
<path d="M210.116 126.699C211.253 127.445 212.189 128.458 212.842 129.651" stroke="#757575" stroke-linecap="round" stroke-linejoin="round"/>
<path d="M167.249 238.583C168.033 242.385 169.614 245.978 171.887 249.124C174.16 252.271 177.074 254.901 180.437 256.839" stroke="#263238" stroke-linecap="round" stroke-linejoin="round"/>
<path d="M170.847 236.291C170.934 238.351 171.661 240.332 172.928 241.959C174.194 243.586 175.937 244.777 177.912 245.366" stroke="#263238" stroke-linecap="round" stroke-linejoin="round"/>
<path d="M194.975 229.346L184.236 230.746C183.703 230.815 183.081 230.947 182.861 231.443C182.788 231.661 182.786 231.897 182.856 232.116C182.926 232.335 183.064 232.526 183.25 232.661C183.625 232.923 184.055 233.097 184.506 233.17C189.173 234.252 193.936 234.87 198.724 235.016" stroke="#263238" stroke-linecap="round" stroke-linejoin="round"/>
<path d="M194.134 275.353C197.565 273.737 201.215 272.635 204.967 272.081" stroke="#263238" stroke-linecap="round" stroke-linejoin="round"/>
<path d="M156.259 221.056C155.484 221.321 154.789 221.777 154.237 222.381C153.665 222.965 153.182 223.637 152.635 224.234C152.547 224.35 152.433 224.445 152.302 224.51C152.237 224.542 152.162 224.552 152.09 224.54C152.018 224.527 151.952 224.493 151.901 224.441C151.861 224.367 151.841 224.286 151.841 224.202C151.841 224.119 151.861 224.037 151.901 223.964C152.179 223.181 152.65 222.482 153.27 221.929" fill="white"/>
<path d="M156.259 221.056C155.484 221.321 154.789 221.777 154.237 222.381C153.665 222.965 153.182 223.637 152.635 224.234C152.547 224.35 152.433 224.445 152.302 224.51C152.237 224.542 152.162 224.552 152.09 224.54C152.018 224.527 151.952 224.493 151.901 224.441C151.861 224.367 151.841 224.286 151.841 224.202C151.841 224.119 151.861 224.037 151.901 223.964C152.179 223.181 152.65 222.482 153.27 221.929" stroke="#263238" stroke-linecap="round" stroke-linejoin="round"/>
<path d="M191.483 182.679L188.017 194.787L191.483 182.679Z" fill="white"/>
<path d="M191.483 182.679L188.017 194.787" stroke="#263238" stroke-linecap="round" stroke-linejoin="round"/>
<path d="M220.02 200.175C218.557 211.316 219.517 224.824 221.496 235.224" stroke="#263238" stroke-linecap="round" stroke-linejoin="round"/>
<path d="M220.541 196.162L220.321 197.958" stroke="#263238" stroke-linecap="round" stroke-linejoin="round"/>
</svg>
