<svg width="260" height="240" viewBox="0 0 260 240" fill="none" xmlns="http://www.w3.org/2000/svg">
<path d="M213.894 44.1919V128.688L210.664 128.289V46.8391C210.663 46.0607 210.489 45.2923 210.155 44.5892C209.821 43.8862 209.335 43.2659 208.732 42.7733C204.014 38.9354 191.956 29.6447 187.713 31.456C183.736 33.1532 166.092 91.0949 157.441 120.215C154.521 130.031 152.627 136.573 152.627 136.573L148.441 137.32C148.441 137.32 150.341 130.17 153.305 119.505C161.728 89.2203 178.777 30.658 185.458 27.6244C185.584 27.5669 185.719 27.5306 185.857 27.5168C187.757 27.3331 190.202 27.9854 192.824 29.1191C193.577 29.442 194.35 29.803 195.135 30.202C196.402 30.8353 197.719 31.5636 199.011 32.3363C199.701 32.7479 200.392 33.1659 201.076 33.6029C202.342 34.4009 203.565 35.2178 204.736 36.0221L206.066 36.9468C207.301 37.8334 208.454 38.6757 209.467 39.4357C210.48 40.1957 211.209 40.7657 211.88 41.2913L212.817 42.0323C213.12 42.2719 213.368 42.5732 213.545 42.916C213.721 43.2589 213.823 43.6356 213.843 44.0209C213.866 44.076 213.883 44.1333 213.894 44.1919Z" fill="#9EC5AB" stroke="#263238" stroke-miterlimit="10"/>
<path d="M217.301 25.1735L192.862 29.1127L186.529 30.1323C186.44 30.1383 186.351 30.1383 186.263 30.1323C185.92 30.1451 185.584 30.0392 185.311 29.8327C185.037 29.6262 184.843 29.3316 184.762 28.9987C184.714 28.7238 184.753 28.4407 184.875 28.1896C184.996 27.9384 185.194 27.7318 185.44 27.5991C185.604 27.505 185.784 27.4407 185.972 27.4091L216.731 22.4566C217.113 22.3777 217.51 22.4489 217.84 22.6553C218.171 22.8617 218.409 23.1875 218.505 23.5649C218.536 23.7501 218.529 23.9398 218.485 24.1224C218.441 24.305 218.36 24.4767 218.248 24.6271C218.135 24.7775 217.993 24.9035 217.831 24.9974C217.668 25.0914 217.488 25.1513 217.301 25.1735Z" fill="#9EC5AB" stroke="#263238" stroke-miterlimit="10"/>
<path d="M225.623 27.7448L199.024 32.3299L196.06 32.8366C195.974 32.8429 195.887 32.8429 195.8 32.8366C195.469 32.835 195.148 32.7197 194.891 32.5099C194.634 32.3002 194.456 32.0086 194.388 31.684C194.334 31.3821 194.381 31.0707 194.524 30.7989C194.666 30.5271 194.894 30.3104 195.173 30.183C195.299 30.1199 195.434 30.0752 195.572 30.05L225.104 24.9835C225.479 24.9107 225.868 24.9889 226.186 25.2012C226.503 25.4135 226.725 25.7427 226.801 26.1172C226.833 26.3016 226.827 26.4905 226.785 26.6727C226.742 26.855 226.664 27.027 226.554 27.1786C226.444 27.3302 226.306 27.4583 226.146 27.5555C225.986 27.6528 225.808 27.7171 225.623 27.7448Z" fill="#9EC5AB" stroke="#263238" stroke-miterlimit="10"/>
<path d="M231.893 31.0506L204.774 36.0031L201.728 36.5604C201.642 36.5698 201.555 36.5698 201.469 36.5604C201.113 36.5586 200.77 36.43 200.5 36.1979C200.231 35.9657 200.053 35.6452 199.999 35.2938C199.926 34.9152 200.001 34.5229 200.208 34.1978C200.416 33.8727 200.74 33.6393 201.114 33.5459H201.203L231.367 28.0361C231.562 28.0025 231.761 28.0076 231.954 28.0512C232.146 28.0948 232.329 28.176 232.49 28.2901C232.651 28.4043 232.788 28.5491 232.893 28.7164C232.998 28.8836 233.069 29.0699 233.102 29.2647C233.179 29.6619 233.094 30.0731 232.867 30.4079C232.64 30.7428 232.29 30.9739 231.893 31.0506Z" fill="#9EC5AB" stroke="#263238" stroke-miterlimit="10"/>
<path d="M237.726 34.3629L209.505 39.4294L206.833 39.9044C206.742 39.9137 206.651 39.9137 206.56 39.9044C206.197 39.8996 205.848 39.7661 205.574 39.5278C205.3 39.2895 205.12 38.9618 205.065 38.603C205.011 38.2442 205.085 37.8776 205.275 37.5685C205.466 37.2595 205.759 37.0279 206.104 36.9151C206.166 36.8937 206.23 36.8788 206.294 36.8708L237.187 31.3293C237.389 31.284 237.598 31.28 237.802 31.3177C238.005 31.3553 238.199 31.4338 238.371 31.5484C238.544 31.6629 238.691 31.8112 238.804 31.9843C238.918 32.1573 238.995 32.3516 239.032 32.5553C239.068 32.759 239.063 32.968 239.016 33.1697C238.97 33.3713 238.883 33.5614 238.761 33.7286C238.639 33.8957 238.484 34.0364 238.306 34.1421C238.128 34.2479 237.931 34.3165 237.726 34.3439V34.3629Z" fill="#9EC5AB" stroke="#263238" stroke-miterlimit="10"/>
<path d="M244.35 38.3464C244.153 38.513 243.914 38.6225 243.66 38.663L213.894 44.0082L212.786 44.2045C212.695 44.2108 212.604 44.2108 212.514 44.2045C212.161 44.2016 211.82 44.0772 211.548 43.8522C211.277 43.6272 211.091 43.3154 211.023 42.9694C210.954 42.6234 211.007 42.2644 211.173 41.9529C211.338 41.6415 211.606 41.3966 211.931 41.2596C212.03 41.2169 212.134 41.1872 212.241 41.171L243.134 35.6295C243.427 35.5761 243.729 35.6114 244.002 35.7308C244.245 35.8336 244.458 35.9979 244.619 36.2075C244.779 36.4171 244.883 36.6649 244.92 36.9266C244.956 37.1883 244.924 37.455 244.826 37.7005C244.729 37.9461 244.569 38.1621 244.363 38.3274L244.35 38.3464Z" fill="#9EC5AB" stroke="#263238" stroke-miterlimit="10"/>
<path opacity="0.3" d="M243.66 38.6504L213.894 43.9955C213.901 44.0566 213.901 44.1181 213.894 44.1792V89.1443L210.664 93.6788V46.8391C210.663 46.0607 210.489 45.2923 210.155 44.5892C209.821 43.8862 209.335 43.2659 208.733 42.7732C204.014 38.9354 191.956 29.6447 187.713 31.456C183.736 33.1532 166.092 91.0949 157.441 120.215L153.843 120.848L153.305 119.493C161.728 89.2077 178.777 30.6453 185.458 27.6118C185.623 27.5177 185.803 27.4533 185.99 27.4218L216.75 22.4693C217.132 22.3904 217.529 22.4615 217.859 22.668C218.189 22.8744 218.427 23.2002 218.524 23.5776C218.552 23.7637 218.542 23.9538 218.495 24.1361C218.447 24.3184 218.363 24.4891 218.248 24.6378C218.132 24.7866 217.988 24.9102 217.823 25.0012C217.658 25.0922 217.476 25.1487 217.289 25.1672L192.849 29.1064C193.603 29.4294 194.375 29.7903 195.161 30.1893C195.287 30.1263 195.421 30.0815 195.56 30.0563L225.091 24.9898C225.466 24.917 225.855 24.9953 226.173 25.2075C226.491 25.4198 226.712 25.749 226.788 26.1235C226.821 26.3084 226.816 26.4979 226.774 26.6809C226.732 26.8639 226.654 27.0367 226.544 27.189C226.434 27.3413 226.295 27.47 226.135 27.5676C225.974 27.6653 225.796 27.7298 225.61 27.7574L199.011 32.3426C199.702 32.7542 200.392 33.1722 201.076 33.6092H201.165L231.329 28.0994C231.524 28.0658 231.723 28.0709 231.916 28.1145C232.108 28.1581 232.291 28.2393 232.452 28.3535C232.613 28.4676 232.75 28.6125 232.855 28.7797C232.96 28.9469 233.031 29.1333 233.064 29.328C233.137 29.7233 233.05 30.1312 232.824 30.4632C232.598 30.7952 232.249 31.0245 231.855 31.1013L204.736 36.0538L206.066 36.9784C206.128 36.957 206.192 36.9421 206.256 36.9341L237.149 31.3926C237.351 31.3473 237.56 31.3433 237.764 31.381C237.967 31.4186 238.161 31.4971 238.333 31.6117C238.506 31.7262 238.653 31.8745 238.767 32.0476C238.88 32.2206 238.957 32.4149 238.994 32.6186C239.03 32.8223 239.025 33.0313 238.978 33.233C238.932 33.4346 238.845 33.6247 238.723 33.7919C238.601 33.959 238.446 34.0997 238.268 34.2054C238.09 34.3112 237.893 34.3798 237.688 34.4072L209.467 39.4737C210.398 40.1703 211.209 40.8036 211.88 41.3293C211.979 41.2866 212.084 41.2568 212.19 41.2406L243.083 35.6991C243.376 35.6458 243.678 35.6811 243.951 35.8005C244.09 36.6934 244.204 37.5611 244.312 38.3971C244.119 38.5349 243.895 38.622 243.66 38.6504Z" fill="black"/>
<path d="M255.129 161.551C255.129 161.551 250.506 153.47 239.727 156.174C235.059 156.807 231.361 165.826 231.361 176.839C231.361 188.239 235.338 197.517 240.227 197.542L240.265 197.719C240.265 197.719 248.714 199.619 253.698 195.351C258.682 191.082 255.129 161.551 255.129 161.551Z" fill="#263238"/>
<path d="M251.032 196.237C255.463 196.237 259.056 187.887 259.056 177.586C259.056 167.286 255.463 158.935 251.032 158.935C246.6 158.935 243.008 167.286 243.008 177.586C243.008 187.887 246.6 196.237 251.032 196.237Z" fill="#263238"/>
<path opacity="0.3" d="M251.032 196.237C255.463 196.237 259.056 187.887 259.056 177.586C259.056 167.286 255.463 158.935 251.032 158.935C246.6 158.935 243.008 167.286 243.008 177.586C243.008 187.887 246.6 196.237 251.032 196.237Z" fill="black"/>
<path d="M252.83 176.383C252.83 182.273 250.822 187.042 248.346 187.042C248.036 187.041 247.731 186.97 247.453 186.833C245.414 185.832 243.875 181.538 243.875 176.383C243.875 171.228 245.414 166.94 247.453 165.94C247.731 165.801 248.036 165.727 248.346 165.724C250.822 165.724 252.83 170.5 252.83 176.383Z" fill="white" stroke="#263238" stroke-miterlimit="10"/>
<path d="M251.031 176.383C251.031 181.538 249.499 185.832 247.453 186.833C245.414 185.832 243.875 181.538 243.875 176.383C243.875 171.228 245.414 166.94 247.453 165.94C249.499 166.94 251.031 171.234 251.031 176.383Z" fill="white" stroke="#263238" stroke-miterlimit="10"/>
<path d="M257.491 148.011C257.491 151.893 257.903 155.186 254.882 156.788C251.861 158.391 246.497 160.911 244.116 172.944C241.981 183.71 244.394 187.32 240.772 188.302C237.954 189.075 216.548 194.268 207.276 196.535L203.014 197.567L179.904 182.089L179.341 181.709L176.776 179.987L179.341 168.017L179.638 166.624L191.81 149.581L212.71 128.517L222.843 122.336C222.843 122.336 246.839 122.634 248.118 124.059C249.398 125.484 249.733 126.256 250.354 132.039C250.974 137.821 250.24 140.113 254.154 141.247C257.542 142.216 257.561 143.691 257.51 146.592C257.504 147.023 257.491 147.498 257.491 148.011Z" fill="#9EC5AB"/>
<path opacity="0.3" d="M243.875 123.198C243.875 123.198 243.672 123.35 243.666 123.369C241.899 124.781 233.432 128.904 228.302 136.174C223.172 143.444 218.106 152.754 218.213 158.258C219.131 158.869 219.783 159.806 220.037 160.88V164.603C210.411 173.318 203.571 180.93 203.571 180.93L179.904 182.07H179.341V167.023L179.638 166.605L191.81 149.562L212.71 128.498L222.843 122.317C222.843 122.317 236.649 122.495 243.875 123.198Z" fill="black"/>
<path d="M206.206 196.738L239.948 188.612C240.766 188.407 241.495 187.943 242.026 187.289C242.557 186.634 242.861 185.825 242.893 184.983C243.115 179.493 244.002 167.7 247.637 162.691C250.271 159.049 252.976 157.472 254.882 156.788C255.643 156.519 256.301 156.021 256.767 155.362C257.233 154.703 257.484 153.916 257.485 153.109V145.085C257.486 144.176 257.171 143.296 256.593 142.596C256.015 141.895 255.21 141.418 254.318 141.247H254.185C253.36 141.094 252.606 140.678 252.035 140.062C251.465 139.446 251.108 138.662 251.019 137.827L249.803 126.852C249.707 125.948 249.298 125.107 248.646 124.473C247.995 123.839 247.143 123.453 246.237 123.381C239.315 122.837 222.805 121.83 212.342 123.66" stroke="#263238" stroke-linecap="round" stroke-linejoin="round"/>
<path d="M238.979 149.562C242.039 147.404 245.21 145.409 248.479 143.584" stroke="#263238" stroke-linecap="round" stroke-linejoin="round"/>
<path d="M204.394 179.575C213.323 170.47 222.83 161.951 232.855 154.071" stroke="#263238" stroke-linecap="round" stroke-linejoin="round"/>
<path d="M206.693 171.684C206.693 171.684 197.396 154.413 180.778 166.13" stroke="#263238" stroke-linecap="round" stroke-linejoin="round"/>
<path d="M219.999 164.755C219.999 164.755 220.816 158.657 216.275 157.023C211.735 155.389 193.736 156.035 193.736 156.035" stroke="#263238" stroke-linecap="round" stroke-linejoin="round"/>
<path d="M218.213 158.258C218.213 158.258 219.018 139.258 240.766 125.566" stroke="#263238" stroke-linecap="round" stroke-linejoin="round"/>
<path d="M203.919 177.187C203.919 177.187 198.758 168.156 186.706 171.177C181.494 171.912 177.358 181.944 177.358 194.268C177.358 207.029 181.791 217.377 187.295 217.403L187.333 217.605C187.333 217.605 196.782 219.746 202.355 214.958C207.928 210.17 203.919 177.187 203.919 177.187Z" fill="#263238"/>
<path d="M199.34 215.952C204.293 215.952 208.308 206.621 208.308 195.11C208.308 183.599 204.293 174.268 199.34 174.268C194.388 174.268 190.373 183.599 190.373 195.11C190.373 206.621 194.388 215.952 199.34 215.952Z" fill="#222221"/>
<path opacity="0.3" d="M199.34 215.952C204.293 215.952 208.308 206.621 208.308 195.11C208.308 183.599 204.293 174.268 199.34 174.268C194.388 174.268 190.373 183.599 190.373 195.11C190.373 206.621 194.388 215.952 199.34 215.952Z" fill="black"/>
<path d="M201.354 193.761C201.354 200.341 199.106 205.674 196.339 205.674C195.991 205.671 195.649 205.589 195.338 205.433C193.058 204.318 191.342 199.518 191.342 193.761C191.342 188.004 193.058 183.204 195.338 182.089C195.649 181.933 195.991 181.851 196.339 181.849C199.138 181.849 201.354 187.187 201.354 193.761Z" fill="white" stroke="#263238" stroke-miterlimit="10"/>
<path d="M199.341 193.761C199.341 199.518 197.624 204.318 195.338 205.433C193.058 204.318 191.342 199.518 191.342 193.761C191.342 188.004 193.058 183.204 195.338 182.089C197.624 183.204 199.341 188.004 199.341 193.761Z" fill="white" stroke="#263238" stroke-miterlimit="10"/>
<path opacity="0.1" d="M254.869 156.788C251.842 158.397 246.484 160.911 244.103 172.944C241.969 183.71 244.382 187.32 240.759 188.302C237.941 189.075 216.535 194.268 207.263 196.535L206.687 191.773L236.94 185.199C236.94 185.199 235.857 150.215 257.504 146.567C257.504 147.016 257.504 147.491 257.504 148.004C257.491 151.893 257.903 155.18 254.869 156.788Z" fill="black"/>
<path opacity="0.1" d="M218.213 157.004C218.213 157.004 222.216 159.759 224.325 157.637C226.434 155.515 240.791 145.705 247.447 144.128C247.447 144.128 225.655 159.328 218.625 165.883C218.625 165.883 222.248 163.951 218.625 158.916L218.213 157.004Z" fill="black"/>
<path d="M176.003 97.0291C176.003 97.0291 177.434 112.906 184.869 116.883C188.756 117.152 192.632 116.219 195.971 114.211C198.549 112.602 203.729 97.4217 204.204 95.9524L192.963 94.2742L190.81 109.429C190.81 109.429 185.889 104.635 183.033 99.822C183.4 98.036 181.709 96.9784 181.24 95.4331C179.074 88.4224 176.003 97.0291 176.003 97.0291Z" fill="white" stroke="#263238" stroke-linecap="round" stroke-linejoin="round"/>
<path d="M217.504 73.4445C217.504 73.4445 220.671 73.4445 221.988 76.2691C221.988 76.2691 233.951 81.1836 236.263 84.6162C238.574 88.0487 237.529 101.659 234.66 107.523C232.873 111.087 229.895 113.914 226.244 115.515L225.104 120.677L200.234 120.417L197.802 104.806L197.897 97.4914L192.868 94.6795C192.868 94.6795 194.356 83.2165 196.497 82.1399C198.638 81.0633 208.004 77.2191 208.004 77.2191C208.004 77.2191 208.638 75.3191 209.904 74.7808C211.171 74.2425 217.504 73.4445 217.504 73.4445Z" fill="#9EC5AB"/>
<path d="M235.439 104.952C235.439 104.952 232.387 115.914 230.373 118.055C230.373 118.055 224.958 118.486 220.873 117.485C216.788 116.484 199.974 109.664 197.954 107.574C195.933 105.484 199.74 102.925 199.74 102.925C202.407 103.871 205.126 104.664 207.884 105.3C212.685 106.427 221.07 107.2 223.425 108.6L225.363 102.609C227.112 102.236 228.921 102.254 230.662 102.658C232.404 103.063 234.034 103.846 235.439 104.952Z" fill="white"/>
<path d="M204.204 55.7878C204.204 55.7878 203.774 59.157 205.078 65.5408C206.383 71.9246 207.441 73.5902 209.264 73.4002C211.088 73.2102 211.088 74.2425 211.088 74.2425V78.2324C211.088 78.2324 212.906 85.3951 214.014 85.8005C215.123 86.2058 218.371 80.3286 219.163 78.663C219.955 76.9974 219.961 69.594 219.961 69.594L220.335 63.7612C221.033 63.6303 221.652 63.2288 222.057 62.6442C222.461 62.0596 222.618 61.339 222.494 60.639C222.095 58.0171 219.081 54.5402 219.081 54.5402C219.081 54.5402 209.606 52.2793 204.204 55.7878Z" fill="white"/>
<path d="M179.334 116.883C179.334 116.883 193.267 117.719 194.692 119.296C196.117 120.873 195.794 124.654 195.794 124.654L198.669 126.7L193.736 162.051C193.736 162.051 184.572 159.676 179.334 169.17V116.883Z" fill="#263238"/>
<path d="M207.7 60.088C207.846 60.8199 207.818 61.5758 207.619 62.295C207.42 63.0142 207.055 63.6768 206.554 64.2298C206.485 64.2935 206.427 64.3685 206.383 64.4515C206.338 64.5874 206.337 64.7341 206.38 64.8706C206.423 65.0072 206.508 65.1265 206.624 65.2115C206.771 65.343 206.946 65.4399 207.136 65.4949C207.326 65.55 207.525 65.5619 207.72 65.5297C207.915 65.4975 208.101 65.422 208.263 65.3089C208.425 65.1958 208.559 65.0478 208.657 64.8758" stroke="#263238" stroke-linecap="round" stroke-linejoin="round"/>
<path d="M207.498 58.378C207.337 58.2496 207.153 58.1542 206.955 58.0974C206.757 58.0405 206.55 58.0234 206.346 58.047C206.142 58.0705 205.944 58.1343 205.765 58.2346C205.585 58.3349 205.427 58.4697 205.3 58.6314" stroke="#263238" stroke-linecap="round" stroke-linejoin="round"/>
<path d="M210.303 58.036C210.772 57.8158 211.306 57.7808 211.8 57.9382C212.293 58.0956 212.709 58.4337 212.963 58.8847" stroke="#263238" stroke-linecap="round" stroke-linejoin="round"/>
<path d="M206.915 60.772C206.915 61.323 206.674 61.7663 206.377 61.7663C206.079 61.7663 205.838 61.323 205.838 60.772C205.838 60.221 206.079 59.7713 206.377 59.7713C206.674 59.7713 206.915 60.221 206.915 60.772Z" fill="#263238"/>
<path d="M210.968 61.7726C211.265 61.7726 211.506 61.3246 211.506 60.772C211.506 60.2193 211.265 59.7713 210.968 59.7713C210.671 59.7713 210.43 60.2193 210.43 60.772C210.43 61.3246 210.671 61.7726 210.968 61.7726Z" fill="#263238"/>
<path d="M208.182 67.4344C208.182 67.4344 211.38 68.0044 212.235 66.2311" stroke="#263238" stroke-linecap="round" stroke-linejoin="round"/>
<path d="M205.838 51.9499C205.838 51.9499 203.337 55.9018 204.572 62.7986C205.807 69.6953 207.137 72.9315 209.29 73.3812C211.443 73.8308 217.523 70.3603 218.929 68.872C220.335 67.3837 220.36 63.7422 220.36 63.7422" stroke="#263238" stroke-linecap="round" stroke-linejoin="round"/>
<path d="M218.562 60.639C218.562 60.639 218.999 58.2071 220.183 57.8017C221.367 57.3964 222.513 59.3723 222.513 60.639C222.513 61.9056 221.411 64.0588 219.91 63.7612" stroke="#263238" stroke-linecap="round" stroke-linejoin="round"/>
<path d="M219.841 57.9854C218.809 58.5906 217.63 58.9016 216.434 58.8847C214.825 58.7137 212.589 55.8765 209.467 56.1298C206.345 56.3831 203.704 58.5047 202.684 57.6561C201.665 56.8074 203.197 54.5212 203.197 54.5212L203.913 53.6156C203.913 53.6156 203.723 51.6776 203.723 50.0627C203.723 48.4477 206.313 45.9588 211.652 45.6295C216.991 45.3002 219.366 47.3648 220.227 48.3147C220.43 48.5427 222.127 50.4553 222.532 52.2539C222.976 54.2932 222.197 57.2444 222.007 58.91C221.184 57.2318 219.841 57.9854 219.841 57.9854Z" fill="#263238"/>
<path d="M205.838 53.7042C205.838 53.7042 210.24 51.0823 215.338 54.7935" stroke="white" stroke-linecap="round" stroke-linejoin="round"/>
<path d="M211.107 73.2166V78.2324C211.107 78.2324 212.735 85.3128 214.033 85.8005C215.332 86.2881 218.428 80.5123 219.1 78.967C219.448 78.1374 219.606 76.1994 219.682 74.5718L220.373 63.7612" stroke="#263238" stroke-linecap="round" stroke-linejoin="round"/>
<path d="M210.968 74.5718C210.968 74.5718 208.745 74.6542 208.498 76.1171C208.251 77.5801 208.422 83.9259 207.935 84.9012C207.447 85.8765 206.63 86.5288 206.953 86.8581C207.276 87.1874 211.715 83.4699 212.874 84.0652" stroke="#263238" stroke-linecap="round" stroke-linejoin="round"/>
<path d="M216.193 84.0398C217.5 84.5646 218.698 85.3268 219.727 86.2881C221.196 87.751 222.336 86.1804 221.925 85.8258C221.513 85.4711 220.949 84.4958 221.602 81.8929C222.254 79.29 222.108 74.5782 219.702 73.6599" stroke="#263238" stroke-linecap="round" stroke-linejoin="round"/>
<path d="M192.805 94.9518C193.736 89.8347 195.085 83.0519 196.484 82.1399C198.505 80.829 208.429 77.1938 208.429 77.1938" stroke="#263238" stroke-linecap="round" stroke-linejoin="round"/>
<path d="M196.814 98.1817L199.854 119.239L225.072 120.677L225.959 118.232" stroke="#263238" stroke-linecap="round" stroke-linejoin="round"/>
<path d="M199.195 104.306L191.652 100.905" stroke="#222221" stroke-linecap="round" stroke-linejoin="round"/>
<path d="M195.971 106.687C194.333 102.128 191.21 98.2518 187.105 95.6801C183.058 93.2418 178.669 92.7099 174.736 94.1855C170.804 95.6611 167.84 98.9417 166.396 103.438C166.041 104.555 165.789 105.702 165.642 106.864L168.676 107.27C168.792 106.287 169.004 105.317 169.309 104.375C170.462 100.791 172.761 98.188 175.8 97.0481C176.904 96.6324 178.073 96.4179 179.252 96.4147C181.471 96.4522 183.638 97.0985 185.515 98.283C187.217 99.3257 188.718 100.664 189.949 102.235C191.268 103.893 192.316 105.751 193.052 107.738C194.577 111.6 194.763 115.862 193.577 119.841C192.425 123.426 190.126 126.028 187.086 127.168C184.535 128.079 181.732 127.972 179.258 126.871V130.139C180.668 130.607 182.143 130.849 183.628 130.854C185.175 130.853 186.708 130.575 188.156 130.031C192.089 128.555 195.053 125.268 196.497 120.772C197.113 118.817 197.425 116.78 197.422 114.73C197.421 111.984 196.93 109.26 195.971 106.687Z" fill="#263238"/>
<path d="M179.182 94.9075C179.182 94.9075 177.593 105.914 181.488 109.347C185.383 112.78 194.344 107.84 194.344 107.84L195.737 111.912C195.737 111.912 184.192 113.85 185.604 125.433L179.043 126.288V108.587L173.66 107.897C173.66 107.897 173.996 102.431 170.183 99.423C172.805 97.2605 175.881 95.7171 179.182 94.9075Z" fill="#263238"/>
<path d="M198.258 108.175C204.591 110.398 211.076 114.736 216.82 116.491C223.527 118.536 229.968 118.34 230.354 118.055C232.215 114.396 233.754 110.582 234.952 106.655C237.485 98.0234 238.904 87.5801 236.282 84.5972C232.856 80.7023 222.007 76.2501 222.007 76.2501" stroke="#263238" stroke-linecap="round" stroke-linejoin="round"/>
<path d="M211.107 74.2425C211.107 74.2425 211.259 77.5484 212.874 77.1937C214.489 76.8391 218.979 73.5459 220.113 67.5231C219.079 68.9223 217.738 70.0661 216.193 70.867C213.527 72.2856 211.633 73.0519 211.633 73.0519L211.107 74.2425Z" fill="#263238"/>
<path d="M198.777 100.854C198.467 99.6256 197.909 98.245 196.757 97.96C196.497 97.901 196.231 97.8797 195.965 97.8967C193.717 97.9474 191.342 98.7453 190.044 100.582C189.842 100.832 189.719 101.136 189.689 101.456C189.681 101.617 189.728 101.775 189.822 101.906C189.917 102.036 190.053 102.13 190.208 102.172C190.433 102.182 190.655 102.12 190.842 101.994C191.706 101.463 192.631 101.038 193.597 100.728C194.148 100.55 194.742 100.55 195.294 100.728C195.401 100.867 195.579 101.279 195.686 101.418C193.875 101.532 190.816 102.634 190.107 104.464C190.038 104.606 190.018 104.766 190.05 104.92C190.17 105.344 190.778 105.325 191.209 105.218C192.744 104.836 194.307 104.573 195.883 104.432C195.3 104.515 194.73 104.762 194.154 104.85C193.115 104.996 191.944 105.237 191.412 106.117C191.358 106.192 191.322 106.279 191.306 106.369C191.29 106.46 191.293 106.553 191.317 106.643C191.399 106.864 191.671 106.953 191.912 106.985C192.707 107.009 193.503 106.954 194.287 106.82C194.681 106.756 195.084 106.788 195.463 106.913C195.842 107.037 196.186 107.251 196.465 107.536C196.51 108.232 196.497 108.752 196.541 109.436C197.076 109.2 197.552 108.851 197.939 108.414C198.326 107.977 198.614 107.461 198.783 106.902C199.254 105.281 199.332 103.57 199.011 101.912C198.948 101.614 198.872 101.241 198.777 100.854Z" fill="white" stroke="#263238" stroke-linecap="round" stroke-linejoin="round"/>
<path d="M223.432 108.6C223.432 108.6 226.13 102.609 225.965 97.2507" stroke="#263238" stroke-linecap="round" stroke-linejoin="round"/>
<path d="M225.477 120.5C225.477 120.5 229.493 132.02 224.692 140.132C222.875 143.21 202.317 143.584 202.317 143.584L193.736 162.051L184.052 128.061L199.854 119.239L225.477 120.5Z" fill="#263238"/>
<path d="M201.576 142.571L221.158 143.584" stroke="#263238" stroke-linecap="round" stroke-linejoin="round"/>
<path d="M199.41 102.615C203.597 104.458 213.058 106.681 215.668 106.921C219.93 107.314 225.003 107.903 227.219 112.127" stroke="#263238" stroke-linecap="round" stroke-linejoin="round"/>
<path d="M225.37 102.615C225.37 102.615 229.898 101.405 235.439 104.958" stroke="#263238" stroke-linecap="round" stroke-linejoin="round"/>
<g opacity="0.2">
<path opacity="0.2" d="M208.409 123.255C204.952 124.306 199.872 125.959 194.591 128.061" stroke="white" stroke-linecap="round" stroke-linejoin="round"/>
<path opacity="0.2" d="M204.565 124.046L203.736 121.969" stroke="white" stroke-linecap="round" stroke-linejoin="round"/>
</g>
<path d="M198.258 99.3787L197.479 91.9499" stroke="#263238" stroke-linecap="round" stroke-linejoin="round"/>
<path d="M172.184 94.6352C171.361 95.5281 170.576 96.6174 170.677 97.8017C170.678 97.9264 170.709 98.0491 170.768 98.1593C170.826 98.2695 170.91 98.364 171.013 98.435C171.165 98.479 171.326 98.4773 171.477 98.43C171.628 98.3827 171.762 98.2919 171.861 98.169C172.262 97.7882 172.549 97.3037 172.691 96.7694C172.837 96.2818 173.381 93.3432 172.184 94.6352Z" fill="white" stroke="#263238" stroke-linecap="round" stroke-linejoin="round"/>
<path d="M175.003 95.6484C174.558 96.3635 174.041 97.0301 173.457 97.637C173.434 97.6598 173.406 97.6771 173.375 97.6877C173.342 97.6835 173.312 97.6703 173.286 97.6497C173.115 97.5078 172.974 97.3324 172.873 97.1342C172.772 96.936 172.712 96.7192 172.697 96.4971C172.675 96.0534 172.733 95.6092 172.868 95.1861C173.072 94.2762 173.573 93.4603 174.293 92.8682C174.424 92.7648 174.579 92.6971 174.743 92.6719C174.921 92.6626 175.098 92.702 175.256 92.7859C175.518 92.8958 175.768 93.0316 176.003 93.1912C175.741 94.0376 175.406 94.8597 175.003 95.6484Z" fill="white" stroke="#263238" stroke-linecap="round" stroke-linejoin="round"/>
<path d="M177.206 91.4876C175.731 92.2602 174.914 94.4768 174.736 96.0221C174.673 96.5414 174.736 97.1177 175.37 97.2444C175.671 97.2754 175.975 97.2168 176.243 97.076C176.511 96.9352 176.731 96.7184 176.877 96.4528C177.153 95.9178 177.366 95.3524 177.51 94.7682C177.674 94.184 178.034 93.6741 178.53 93.3242C178.986 93.0202 179.797 93.0899 179.93 92.4312C180.196 91.1393 177.903 91.1266 177.206 91.4876Z" fill="white" stroke="#263238" stroke-linecap="round" stroke-linejoin="round"/>
<path d="M198.061 97.4914L192.836 94.6795" stroke="#263238" stroke-linecap="round" stroke-linejoin="round"/>
<path d="M177.219 3.19759V108.112L165.18 108.182L160.797 109.068V28.3591L160.778 28.3654H160.772L134.553 32.8556L134.262 32.9062L134.699 103.685L121.956 102.362V14.1285L125.25 12.9949L134.262 14.8189L134.319 14.8062L160.468 8.66941L160.5 8.65674L160.772 2.88093V2.86827L160.797 2.37429L165.18 1L177.219 3.19759Z" fill="#9EC5AB"/>
<path opacity="0.3" d="M160.772 28.3654L134.977 32.7859L134.553 32.8556L134.318 14.8062L160.468 8.66942L160.734 26.0222L160.772 28.3654Z" fill="black"/>
<path opacity="0.2" d="M160.772 28.3654L134.553 32.8556L134.591 30.791L160.734 26.0221L160.772 28.3654Z" fill="black"/>
<path opacity="0.2" d="M125.25 12.9949V102.71L121.956 102.362V14.1285L125.25 12.9949Z" fill="black"/>
<path opacity="0.2" d="M165.18 1V108.182L160.797 109.068L160.778 28.3654L160.772 2.88093V2.86827L160.797 2.37429L165.18 1Z" fill="black"/>
<path d="M177.219 108.695V3.19759L165.186 1L160.797 2.37429V109.74" stroke="#263238" stroke-linecap="round" stroke-linejoin="round"/>
<path d="M165.186 1V109.068" stroke="#263238" stroke-linecap="round" stroke-linejoin="round"/>
<path d="M134.699 104.73L134.255 14.8125L125.243 12.9949L121.956 14.1349V104.002" stroke="#263238" stroke-linecap="round" stroke-linejoin="round"/>
<path d="M125.243 12.9949V105.978" stroke="#263238" stroke-linecap="round" stroke-linejoin="round"/>
<path d="M134.255 14.8125L160.797 8.70107" stroke="#263238" stroke-linecap="round" stroke-linejoin="round"/>
<path d="M134.318 30.8417L160.797 25.8765" stroke="#263238" stroke-linecap="round" stroke-linejoin="round"/>
<path d="M134.553 32.8556L160.797 28.3591" stroke="#263238" stroke-linecap="round" stroke-linejoin="round"/>
<path d="M246.243 123.381V51.5446C246.243 49.0114 246.319 46.4465 246.37 43.9069C246.408 41.8866 246.699 39.613 245.617 37.8271C243.672 34.5972 240.221 32.4629 237.124 30.4553C231.367 26.7315 224.977 23.5396 218.213 22.2223C209.777 20.5567 179.068 109.499 179.068 109.499L179.334 116.896C179.334 116.896 211.817 24.4325 220.113 25.8892C224.963 26.822 229.576 28.7194 233.679 31.4686C235.965 32.9379 238.549 34.1539 240.493 36.0791C243.394 38.948 243.026 42.6149 243.026 46.3768V63.4192C243.026 73.5818 243.026 83.7464 243.026 93.9132V118.213C243.026 118.467 242.938 122.989 243.026 123.001L246.243 123.381Z" fill="#9EC5AB" stroke="#263238" stroke-miterlimit="10"/>
<path d="M178.435 194.021V215.743L171.709 217.574L149.638 213.261L145.94 214.312V224.591L135.079 227.358L112.4 222.735L109.315 223.546V234.572L94.8443 238.511L74.4706 234.413V223.824L72.1464 223.748L48.8025 229.626L37.3776 227.054V217.384L32.2541 216.845L12.2034 222.304L4.78101 220.392V200.082L94.8443 196.94L100.291 196.75L178.435 194.021Z" fill="#9EC5AB"/>
<path opacity="0.1" d="M178.435 194.021V215.743L171.709 217.574L149.638 213.261L145.94 214.312V224.591L135.078 227.358L112.399 222.735L109.315 223.546V234.572L94.844 238.511V196.94L100.29 196.75L178.435 194.021Z" fill="black"/>
<path opacity="0.3" d="M94.8443 196.301V238.511L74.4706 234.413V223.824L72.1464 223.748L48.8025 229.626L37.3776 227.054V217.384L32.2541 216.845L12.2034 222.305L4.78101 220.392V188.866L94.8443 196.301Z" fill="black"/>
<path opacity="0.3" d="M50.6895 219.695V229.632L72.146 223.748L50.6895 219.695Z" fill="black"/>
<path opacity="0.3" d="M135.078 216.763V227.358L112.399 222.735L135.078 216.763Z" fill="black"/>
<path opacity="0.3" d="M171.709 217.574V206.978L150.031 213.09L171.709 217.574Z" fill="black"/>
<path opacity="0.3" d="M13.5967 213.254L33.7867 216.852L13.5967 222.273V213.254Z" fill="black"/>
<path d="M179.334 108.612V197.073L94.8441 215.503L1 203.59V108.612L94.8441 99.822L179.334 108.612Z" fill="white"/>
<path opacity="0.1" d="M85.4333 110.867L95.294 110.158L104.255 110.867V115.826L95.294 115.078L85.4333 116.028V110.867Z" fill="black"/>
<path d="M1 108.612V203.59L94.8441 215.496L179.334 197.067V108.612L94.8441 99.822L1 108.612Z" stroke="#263238" stroke-linecap="round" stroke-linejoin="round"/>
<path d="M94.844 238.511V215.496V99.822" stroke="#263238" stroke-linecap="round" stroke-linejoin="round"/>
<path d="M72.7797 223.533L50.6898 229.632L37.3776 227.054V217.384L13.5967 213.254V222.273L4.78101 220.398V204.071" stroke="#263238" stroke-linecap="round" stroke-linejoin="round"/>
<path d="M13.7488 222.304L33.7868 216.852" stroke="#263238" stroke-linecap="round" stroke-linejoin="round"/>
<path d="M135.078 227.365V216.763L109.309 223.552V234.572L94.844 238.511L74.464 234.413V223.824L50.6895 219.695V229.632" stroke="#263238" stroke-linecap="round" stroke-linejoin="round"/>
<path opacity="0.1" d="M94.8441 99.822V215.503L1 203.59V108.612L94.8441 99.822Z" fill="black"/>
<path d="M112.399 222.735L135.078 227.301L145.94 224.591V214.312L171.709 206.978V217.58L172.881 217.257L178.435 215.743V197.263" stroke="#263238" stroke-linecap="round" stroke-linejoin="round"/>
<path d="M171.519 217.662L149.638 213.261" stroke="#263238" stroke-linecap="round" stroke-linejoin="round"/>
<path d="M1 138.498L94.8441 135.135L179.334 138.498" stroke="#263238" stroke-linecap="round" stroke-linejoin="round"/>
<path d="M1 171.608L94.8441 177.035L179.334 169.163" stroke="#263238" stroke-linecap="round" stroke-linejoin="round"/>
<path d="M143.749 104.914V136.814" stroke="#263238" stroke-linecap="round" stroke-linejoin="round"/>
<path d="M132.811 136.814V173.501" stroke="#263238" stroke-linecap="round" stroke-linejoin="round"/>
<path d="M160.582 137.751V170.62" stroke="#263238" stroke-linecap="round" stroke-linejoin="round"/>
<path d="M142.412 172.608V205.123" stroke="#263238" stroke-linecap="round" stroke-linejoin="round"/>
<path d="M58.1816 103.255V174.825" stroke="#263238" stroke-linecap="round" stroke-linejoin="round"/>
<path d="M15.8259 107.225V137.751" stroke="#263238" stroke-linecap="round" stroke-linejoin="round"/>
<path d="M26.6682 137.58V173.102" stroke="#263238" stroke-linecap="round" stroke-linejoin="round"/>
<path d="M39.8789 208.524V173.793" stroke="#263238" stroke-linecap="round" stroke-linejoin="round"/>
<path opacity="0.1" d="M1.08252 152.248H9.01792V156.94L1.08252 156.858V152.248Z" fill="black"/>
<path opacity="0.1" d="M126.028 151.424V156.7L139.695 156.003V151.646L126.028 151.424Z" fill="black"/>
<path opacity="0.1" d="M32.3618 187.973V193.356L47.9223 194.92V188.866L32.3618 187.973Z" fill="black"/>
</svg>
