<svg width="370" height="370" viewBox="0 0 370 370" fill="none" xmlns="http://www.w3.org/2000/svg">
<path d="M137.929 57.9938C137.929 57.9938 91.1383 76.146 76.6565 124.964C62.1747 173.782 83.6569 226.817 99.8999 270.159C116.143 313.501 156.044 337.129 196.292 328.619C236.541 320.109 233.011 283.901 268.324 251.141C303.637 218.381 318.57 214.94 328.323 168.483C338.076 122.026 295.327 69.7746 235.89 55.3964C176.453 41.0182 137.929 57.9938 137.929 57.9938Z" fill="#32746D"/>
<path opacity="0.75" d="M137.929 57.9938C137.929 57.9938 91.1383 76.146 76.6565 124.964C62.1747 173.782 83.6569 226.817 99.8999 270.159C116.143 313.501 156.044 337.129 196.292 328.619C236.541 320.109 233.011 283.901 268.324 251.141C303.637 218.381 318.57 214.94 328.323 168.483C338.076 122.026 295.327 69.7746 235.89 55.3964C176.453 41.0182 137.929 57.9938 137.929 57.9938Z" fill="white"/>
<path d="M243.142 237.214H204.751C201.855 237.21 199.079 236.058 197.032 234.011C194.984 231.963 193.832 229.188 193.828 226.292V94.4018C193.832 91.5069 194.984 88.7318 197.032 86.6855C199.08 84.6391 201.856 83.4888 204.751 83.4868H243.142V84.2268H204.751C202.052 84.2288 199.464 85.3012 197.555 87.2087C195.646 89.1163 194.572 91.7032 194.568 94.4018V226.292C194.57 228.992 195.644 231.581 197.553 233.49C199.462 235.399 202.051 236.472 204.751 236.474H243.142V237.214Z" fill="#263238"/>
<path d="M283.102 237.214H218.477C215.337 237.214 212.326 235.967 210.105 233.747C207.885 231.526 206.637 228.515 206.637 225.374V95.3268C206.637 92.1867 207.885 89.1751 210.105 86.9547C212.326 84.7342 215.337 83.4868 218.477 83.4868H283.102C286.242 83.4868 289.253 84.7342 291.474 86.9547C293.694 89.1751 294.942 92.1867 294.942 95.3268V225.374C294.942 228.515 293.694 231.526 291.474 233.747C289.253 235.967 286.242 237.214 283.102 237.214ZM218.477 84.2268C215.534 84.2268 212.71 85.3963 210.629 87.4779C208.547 89.5596 207.377 92.3829 207.377 95.3268V225.374C207.377 228.318 208.547 231.142 210.629 233.223C212.71 235.305 215.534 236.474 218.477 236.474H283.102C286.046 236.474 288.869 235.305 290.951 233.223C293.032 231.142 294.202 228.318 294.202 225.374V95.3268C294.202 92.3829 293.032 89.5596 290.951 87.4779C288.869 85.3963 286.046 84.2268 283.102 84.2268H218.477Z" fill="#263238"/>
<path d="M281.94 112.709H219.136C218.659 112.731 218.181 112.656 217.734 112.488C217.286 112.321 216.877 112.064 216.531 111.734C216.185 111.403 215.91 111.006 215.722 110.567C215.534 110.127 215.437 109.654 215.437 109.176C215.437 108.698 215.534 108.225 215.722 107.785C215.91 107.345 216.185 106.948 216.531 106.618C216.877 106.288 217.286 106.031 217.734 105.863C218.181 105.696 218.659 105.621 219.136 105.642H281.94C282.418 105.621 282.895 105.696 283.343 105.863C283.79 106.031 284.199 106.288 284.545 106.618C284.891 106.948 285.166 107.345 285.354 107.785C285.542 108.225 285.639 108.698 285.639 109.176C285.639 109.654 285.542 110.127 285.354 110.567C285.166 111.006 284.891 111.403 284.545 111.734C284.199 112.064 283.79 112.321 283.343 112.488C282.895 112.656 282.418 112.731 281.94 112.709ZM219.166 106.382C218.787 106.363 218.408 106.421 218.052 106.552C217.696 106.684 217.371 106.886 217.096 107.148C216.82 107.409 216.601 107.724 216.452 108.072C216.302 108.421 216.225 108.796 216.225 109.176C216.225 109.555 216.302 109.931 216.452 110.28C216.601 110.628 216.82 110.943 217.096 111.204C217.371 111.465 217.696 111.668 218.052 111.8C218.408 111.931 218.787 111.989 219.166 111.969H281.94C282.319 111.989 282.698 111.931 283.054 111.8C283.41 111.668 283.735 111.465 284.01 111.204C284.285 110.943 284.504 110.628 284.654 110.28C284.804 109.931 284.881 109.555 284.881 109.176C284.881 108.796 284.804 108.421 284.654 108.072C284.504 107.724 284.285 107.409 284.01 107.148C283.735 106.886 283.41 106.684 283.054 106.552C282.698 106.421 282.319 106.363 281.94 106.382H219.166Z" fill="#263238"/>
<path d="M281.94 217.042H219.136C218.198 217.042 217.298 216.669 216.635 216.006C215.972 215.343 215.599 214.443 215.599 213.505C215.599 212.567 215.972 211.667 216.635 211.004C217.298 210.34 218.198 209.968 219.136 209.968H281.94C282.878 209.968 283.778 210.34 284.441 211.004C285.104 211.667 285.477 212.567 285.477 213.505C285.477 214.443 285.104 215.343 284.441 216.006C283.778 216.669 282.878 217.042 281.94 217.042ZM219.166 210.708C218.424 210.708 217.712 211.002 217.188 211.527C216.663 212.051 216.368 212.763 216.368 213.505C216.368 214.247 216.663 214.958 217.188 215.483C217.712 216.007 218.424 216.302 219.166 216.302H281.94C282.682 216.302 283.393 216.007 283.918 215.483C284.442 214.958 284.737 214.247 284.737 213.505C284.737 212.763 284.442 212.051 283.918 211.527C283.393 211.002 282.682 210.708 281.94 210.708H219.166Z" fill="#263238"/>
<path d="M262.922 125.371H219.136C218.659 125.393 218.181 125.317 217.734 125.15C217.286 124.982 216.877 124.725 216.531 124.395C216.185 124.065 215.91 123.668 215.722 123.228C215.534 122.789 215.437 122.315 215.437 121.837C215.437 121.359 215.534 120.886 215.722 120.446C215.91 120.007 216.185 119.61 216.531 119.28C216.877 118.949 217.286 118.693 217.734 118.525C218.181 118.357 218.659 118.282 219.136 118.304H262.922C263.4 118.282 263.877 118.357 264.324 118.525C264.772 118.693 265.181 118.949 265.527 119.28C265.873 119.61 266.148 120.007 266.336 120.446C266.524 120.886 266.621 121.359 266.621 121.837C266.621 122.315 266.524 122.789 266.336 123.228C266.148 123.668 265.873 124.065 265.527 124.395C265.181 124.725 264.772 124.982 264.324 125.15C263.877 125.317 263.4 125.393 262.922 125.371ZM219.136 119.044C218.757 119.024 218.378 119.082 218.022 119.214C217.666 119.345 217.341 119.548 217.066 119.809C216.791 120.07 216.572 120.385 216.422 120.734C216.272 121.082 216.195 121.458 216.195 121.837C216.195 122.217 216.272 122.592 216.422 122.941C216.572 123.29 216.791 123.604 217.066 123.865C217.341 124.127 217.666 124.329 218.022 124.461C218.378 124.593 218.757 124.65 219.136 124.631H262.922C263.301 124.65 263.68 124.593 264.036 124.461C264.392 124.329 264.717 124.127 264.992 123.865C265.267 123.604 265.486 123.29 265.636 122.941C265.786 122.592 265.863 122.217 265.863 121.837C265.863 121.458 265.786 121.082 265.636 120.734C265.486 120.385 265.267 120.07 264.992 119.809C264.717 119.548 264.392 119.345 264.036 119.214C263.68 119.082 263.301 119.024 262.922 119.044H219.136Z" fill="#263238"/>
<path d="M276.109 127.117C279.023 127.117 281.385 124.755 281.385 121.841C281.385 118.927 279.023 116.565 276.109 116.565C273.195 116.565 270.833 118.927 270.833 121.841C270.833 124.755 273.195 127.117 276.109 127.117Z" fill="#32746D"/>
<path d="M276.109 127.487C274.992 127.487 273.9 127.156 272.972 126.536C272.043 125.915 271.32 125.033 270.892 124.002C270.465 122.97 270.353 121.835 270.571 120.739C270.789 119.644 271.327 118.638 272.116 117.849C272.906 117.059 273.912 116.521 275.007 116.303C276.102 116.085 277.238 116.197 278.269 116.625C279.301 117.052 280.183 117.776 280.803 118.704C281.424 119.633 281.755 120.724 281.755 121.841C281.751 123.337 281.155 124.771 280.097 125.829C279.039 126.887 277.605 127.483 276.109 127.487ZM276.109 116.935C275.138 116.935 274.19 117.223 273.383 117.762C272.576 118.301 271.947 119.067 271.576 119.963C271.205 120.86 271.107 121.846 271.297 122.798C271.486 123.75 271.953 124.624 272.639 125.31C273.326 125.996 274.2 126.464 275.151 126.653C276.103 126.842 277.09 126.745 277.986 126.374C278.883 126.002 279.649 125.374 280.188 124.567C280.727 123.76 281.015 122.811 281.015 121.841C281.016 121.196 280.89 120.557 280.644 119.96C280.398 119.364 280.036 118.821 279.581 118.364C279.125 117.907 278.584 117.545 277.988 117.297C277.393 117.049 276.754 116.921 276.109 116.92V116.935Z" fill="#263238"/>
<path d="M224.671 154.386C223.084 154.386 221.533 153.916 220.214 153.034C218.895 152.152 217.866 150.899 217.26 149.433C216.653 147.966 216.494 146.353 216.804 144.797C217.114 143.241 217.879 141.811 219.002 140.69C220.124 139.568 221.554 138.805 223.111 138.496C224.667 138.188 226.28 138.347 227.746 138.956C229.212 139.564 230.464 140.593 231.345 141.913C232.225 143.234 232.694 144.785 232.693 146.372C232.691 148.498 231.845 150.537 230.341 152.039C228.837 153.542 226.797 154.386 224.671 154.386ZM224.671 139.09C223.231 139.09 221.823 139.517 220.626 140.318C219.428 141.118 218.495 142.255 217.944 143.585C217.393 144.916 217.249 146.38 217.53 147.793C217.811 149.205 218.504 150.503 219.522 151.521C220.541 152.539 221.838 153.233 223.251 153.514C224.663 153.795 226.127 153.65 227.458 153.099C228.788 152.548 229.926 151.615 230.726 150.417C231.526 149.22 231.953 147.812 231.953 146.372C231.945 144.446 231.174 142.601 229.81 141.242C228.445 139.883 226.597 139.12 224.671 139.12V139.09Z" fill="#263238"/>
<path d="M250.786 154.386C249.199 154.386 247.648 153.916 246.328 153.034C245.009 152.152 243.981 150.899 243.374 149.433C242.767 147.966 242.609 146.353 242.919 144.797C243.229 143.241 243.994 141.811 245.116 140.69C246.239 139.568 247.669 138.805 249.225 138.496C250.782 138.188 252.395 138.347 253.861 138.956C255.326 139.564 256.579 140.593 257.459 141.913C258.34 143.234 258.809 144.785 258.807 146.372C258.803 148.498 257.957 150.535 256.453 152.037C254.949 153.54 252.911 154.384 250.786 154.386ZM250.786 139.09C249.346 139.09 247.938 139.517 246.74 140.318C245.543 141.118 244.61 142.255 244.058 143.585C243.507 144.916 243.363 146.38 243.644 147.793C243.925 149.205 244.619 150.503 245.637 151.521C246.655 152.539 247.953 153.233 249.365 153.514C250.778 153.795 252.242 153.65 253.572 153.099C254.903 152.548 256.04 151.615 256.84 150.417C257.64 149.22 258.067 147.812 258.067 146.372C258.058 144.447 257.286 142.603 255.922 141.244C254.558 139.886 252.711 139.122 250.786 139.12V139.09Z" fill="#263238"/>
<path d="M276.9 154.386C275.313 154.391 273.759 153.924 272.437 153.045C271.115 152.166 270.083 150.914 269.473 149.448C268.863 147.982 268.701 146.368 269.009 144.811C269.316 143.253 270.079 141.822 271.201 140.698C272.323 139.574 273.753 138.808 275.31 138.498C276.867 138.187 278.481 138.346 279.948 138.954C281.415 139.561 282.669 140.591 283.55 141.911C284.432 143.232 284.901 144.784 284.9 146.372C284.896 148.494 284.052 150.528 282.553 152.029C281.055 153.531 279.022 154.378 276.9 154.386ZM276.9 139.09C275.459 139.086 274.049 139.509 272.849 140.307C271.649 141.104 270.712 142.24 270.157 143.57C269.603 144.9 269.455 146.365 269.734 147.779C270.012 149.193 270.704 150.492 271.722 151.513C272.739 152.534 274.036 153.229 275.45 153.512C276.863 153.795 278.328 153.652 279.66 153.101C280.991 152.551 282.13 151.618 282.931 150.42C283.732 149.222 284.16 147.813 284.16 146.372C284.15 144.45 283.382 142.61 282.022 141.252C280.663 139.894 278.822 139.128 276.9 139.12V139.09Z" fill="#263238"/>
<path d="M224.671 174.44C223.085 174.44 221.534 173.97 220.215 173.088C218.896 172.207 217.867 170.954 217.26 169.488C216.653 168.023 216.494 166.41 216.804 164.854C217.113 163.298 217.877 161.868 218.999 160.746C220.121 159.625 221.55 158.861 223.106 158.551C224.662 158.242 226.275 158.4 227.741 159.008C229.207 159.615 230.46 160.643 231.341 161.962C232.222 163.281 232.693 164.832 232.693 166.419C232.691 168.545 231.845 170.585 230.341 172.089C228.837 173.592 226.798 174.438 224.671 174.44ZM224.671 159.137C223.231 159.137 221.823 159.564 220.626 160.364C219.428 161.164 218.495 162.302 217.944 163.632C217.393 164.963 217.249 166.427 217.53 167.839C217.811 169.252 218.504 170.549 219.522 171.567C220.541 172.586 221.838 173.279 223.251 173.56C224.663 173.841 226.127 173.697 227.458 173.146C228.788 172.595 229.926 171.662 230.726 170.464C231.526 169.267 231.953 167.859 231.953 166.419C231.953 164.487 231.186 162.635 229.82 161.27C228.455 159.904 226.602 159.137 224.671 159.137Z" fill="#263238"/>
<path d="M250.786 174.44C249.199 174.44 247.648 173.97 246.329 173.088C245.01 172.207 243.982 170.954 243.375 169.488C242.768 168.023 242.609 166.41 242.918 164.854C243.228 163.298 243.992 161.868 245.114 160.746C246.235 159.625 247.665 158.861 249.221 158.551C250.777 158.242 252.39 158.4 253.855 159.008C255.321 159.615 256.574 160.643 257.455 161.962C258.337 163.281 258.807 164.832 258.807 166.419C258.803 168.545 257.957 170.583 256.454 172.086C254.95 173.59 252.912 174.436 250.786 174.44ZM250.786 159.137C249.346 159.137 247.938 159.564 246.74 160.364C245.543 161.164 244.61 162.302 244.058 163.632C243.507 164.963 243.363 166.427 243.644 167.839C243.925 169.252 244.619 170.549 245.637 171.567C246.655 172.586 247.953 173.279 249.365 173.56C250.778 173.841 252.242 173.697 253.572 173.146C254.903 172.595 256.04 171.662 256.84 170.464C257.64 169.267 258.067 167.859 258.067 166.419C258.065 164.488 257.298 162.637 255.932 161.272C254.567 159.907 252.716 159.139 250.786 159.137Z" fill="#263238"/>
<path d="M276.9 174.44C275.313 174.445 273.76 173.978 272.438 173.099C271.116 172.22 270.084 170.969 269.474 169.504C268.863 168.038 268.701 166.425 269.008 164.867C269.315 163.31 270.077 161.878 271.198 160.754C272.319 159.63 273.749 158.864 275.305 158.553C276.862 158.241 278.476 158.399 279.943 159.006C281.41 159.612 282.664 160.64 283.546 161.96C284.429 163.279 284.9 164.831 284.9 166.419C284.896 168.541 284.053 170.576 282.554 172.079C281.055 173.581 279.023 174.43 276.9 174.44ZM276.9 159.137C275.46 159.137 274.052 159.564 272.855 160.364C271.658 161.164 270.724 162.302 270.173 163.632C269.622 164.963 269.478 166.427 269.759 167.839C270.04 169.252 270.733 170.549 271.752 171.567C272.77 172.586 274.067 173.279 275.48 173.56C276.892 173.841 278.356 173.697 279.687 173.146C281.018 172.595 282.155 171.662 282.955 170.464C283.755 169.267 284.182 167.859 284.182 166.419C284.18 164.488 283.412 162.637 282.047 161.272C280.682 159.907 278.831 159.139 276.9 159.137Z" fill="#263238"/>
<path d="M224.671 194.487C223.084 194.487 221.533 194.016 220.213 193.134C218.894 192.252 217.866 190.998 217.259 189.532C216.652 188.065 216.494 186.451 216.805 184.895C217.116 183.338 217.881 181.909 219.004 180.788C220.128 179.667 221.558 178.904 223.115 178.596C224.672 178.288 226.286 178.449 227.751 179.058C229.217 179.668 230.469 180.698 231.348 182.019C232.228 183.341 232.696 184.893 232.693 186.48C232.687 188.604 231.84 190.64 230.336 192.14C228.833 193.641 226.796 194.485 224.671 194.487ZM224.671 179.184C223.231 179.184 221.823 179.611 220.626 180.411C219.428 181.211 218.495 182.348 217.944 183.679C217.393 185.009 217.249 186.473 217.53 187.886C217.811 189.298 218.504 190.596 219.522 191.614C220.541 192.632 221.838 193.326 223.251 193.607C224.663 193.888 226.127 193.744 227.458 193.193C228.788 192.641 229.926 191.708 230.726 190.511C231.526 189.313 231.953 187.905 231.953 186.465C231.953 184.534 231.186 182.682 229.82 181.316C228.455 179.951 226.602 179.184 224.671 179.184Z" fill="#263238"/>
<path d="M250.786 194.487C249.199 194.487 247.647 194.016 246.328 193.134C245.008 192.252 243.98 190.998 243.374 189.532C242.767 188.065 242.609 186.451 242.92 184.895C243.23 183.338 243.996 181.909 245.119 180.788C246.242 179.667 247.673 178.904 249.23 178.596C250.787 178.288 252.401 178.449 253.866 179.058C255.331 179.668 256.583 180.698 257.463 182.019C258.343 183.341 258.811 184.893 258.808 186.48C258.8 188.604 257.952 190.638 256.449 192.138C254.946 193.639 252.91 194.483 250.786 194.487ZM250.786 179.184C249.346 179.184 247.938 179.611 246.741 180.411C245.543 181.211 244.61 182.348 244.059 183.679C243.508 185.009 243.363 186.473 243.644 187.886C243.925 189.298 244.619 190.596 245.637 191.614C246.655 192.632 247.953 193.326 249.365 193.607C250.778 193.888 252.242 193.744 253.573 193.193C254.903 192.641 256.04 191.708 256.84 190.511C257.641 189.313 258.068 187.905 258.068 186.465C258.066 184.535 257.298 182.684 255.933 181.319C254.568 179.953 252.717 179.186 250.786 179.184Z" fill="#263238"/>
<path d="M276.9 194.487C275.312 194.491 273.759 194.024 272.436 193.145C271.114 192.265 270.082 191.013 269.472 189.547C268.862 188.081 268.701 186.466 269.009 184.908C269.317 183.351 270.081 181.919 271.204 180.796C272.326 179.672 273.757 178.907 275.314 178.598C276.872 178.288 278.486 178.448 279.953 179.056C281.42 179.665 282.673 180.696 283.554 182.017C284.434 183.339 284.903 184.892 284.9 186.48C284.892 188.6 284.047 190.631 282.549 192.13C281.05 193.63 279.02 194.477 276.9 194.487ZM276.9 179.184C275.46 179.179 274.051 179.602 272.851 180.399C271.65 181.196 270.714 182.331 270.159 183.66C269.604 184.989 269.456 186.453 269.733 187.867C270.01 189.28 270.7 190.58 271.716 191.601C272.732 192.622 274.028 193.319 275.44 193.603C276.853 193.888 278.317 193.747 279.649 193.199C280.981 192.651 282.121 191.72 282.924 190.524C283.727 189.328 284.157 187.92 284.16 186.48C284.162 184.551 283.399 182.699 282.038 181.332C280.677 179.964 278.83 179.191 276.9 179.184Z" fill="#263238"/>
<path d="M145.173 47.7892H144.433V326.769H145.173V47.7892Z" fill="#263238"/>
<path d="M153.631 47.7892H152.891V326.769H153.631V47.7892Z" fill="#263238"/>
<path d="M182.913 47.7892H182.173V326.769H182.913V47.7892Z" fill="#263238"/>
<path d="M143.592 83.8939L70.8718 150.553L71.3719 151.099L144.092 84.4394L143.592 83.8939Z" fill="#263238"/>
<path d="M116.09 117.443L110.281 122.768L110.781 123.314L116.59 117.988L116.09 117.443Z" fill="#263238"/>
<path d="M143.593 92.2302L122.749 111.336L123.249 111.882L144.093 92.7757L143.593 92.2302Z" fill="#263238"/>
<path d="M143.613 148.887L98.1331 190.518L98.6327 191.064L144.113 149.433L143.613 148.887Z" fill="#263238"/>
<path d="M126.412 169.828L122.779 173.158L123.279 173.704L126.912 170.374L126.412 169.828Z" fill="#263238"/>
<path d="M143.6 154.075L130.574 166.016L131.074 166.561L144.1 154.621L143.6 154.075Z" fill="#263238"/>
<path d="M100.129 289.976C97.35 289.983 94.5757 289.736 91.8415 289.236C83.1391 287.616 76.0055 283.013 72.2611 276.605C66.1265 266.082 70.0411 252.71 76.5827 244.119C84.9151 233.226 97.4729 226.906 108.662 222.155C130.122 213.053 152.854 207.207 174.862 201.554C181.152 199.941 187.657 198.268 194.035 196.544C197.217 195.686 200.466 194.842 203.752 193.991C227.039 187.945 253.435 181.093 270.892 163.888C283.531 151.434 292.907 136.952 297.983 122.019C300.193 115.798 301.427 109.273 301.639 102.675C301.885 95.5862 301.373 88.4914 300.114 81.511L299.633 81.1484C288.948 73.075 277.041 68.154 266.97 67.6434C250.927 66.8442 219.04 72.52 201.953 91.2938L201.213 92.1078C193.918 101.19 187.526 110.962 182.129 121.286C182.047 121.466 181.93 121.629 181.784 121.763C181.639 121.897 181.467 122.001 181.281 122.068C181.095 122.134 180.897 122.163 180.699 122.152C180.501 122.141 180.307 122.091 180.13 122.003C179.952 121.916 179.793 121.794 179.663 121.645C179.534 121.495 179.435 121.321 179.374 121.133C179.312 120.944 179.29 120.745 179.307 120.548C179.323 120.351 179.38 120.159 179.472 119.984C182.38 114.322 185.614 108.834 189.159 103.548C189.052 103.31 189.01 103.047 189.037 102.787C189.064 102.527 189.16 102.279 189.314 102.068C192.11 98.2176 195.101 94.5128 198.276 90.9682C199.021 90.0259 199.783 89.0837 200.562 88.1414C212.913 73.2156 232.767 54.8414 257.194 51.8814C272.86 50.0018 284.293 52.54 292.137 59.6366C297.317 64.3282 300.84 70.9438 302.786 79.8756C314.626 89.429 319.258 101.506 316.528 115.795C312.421 137.255 301.143 153.239 287.912 170.415C252.725 216.08 214.415 249.38 174.07 269.197C155.394 278.386 135.502 284.865 114.996 288.437C110.094 289.377 105.12 289.892 100.129 289.976ZM303.629 84.5228C304.447 90.5618 304.772 96.6574 304.599 102.749C304.38 109.651 303.094 116.479 300.788 122.988C295.556 138.358 285.936 153.232 272.971 166.012C254.945 183.772 228.142 190.728 204.499 196.87C201.221 197.721 197.98 198.564 194.812 199.415C188.411 201.147 181.899 202.819 175.572 204.44C153.676 210.064 131.032 215.88 109.794 224.893C98.9677 229.496 86.8539 235.586 78.9137 245.932C72.9419 253.739 69.3529 265.793 74.7993 275.125C78.1071 280.793 84.5081 284.878 92.3595 286.343C99.7595 287.712 107.344 286.75 114.463 285.514C134.692 281.994 154.315 275.605 172.738 266.541C212.136 247.16 251.149 213.305 285.566 168.594C298.56 151.722 309.638 136.034 313.619 115.225C315.913 103.237 312.554 92.9366 303.629 84.5228ZM266.592 54.2272C263.57 54.2433 260.55 54.4361 257.55 54.8044C240.774 56.8172 226.07 66.4742 214.208 77.8332C231.968 67.3992 254.368 64.0544 267.118 64.7056C280.105 65.3642 291.967 72.1056 299.034 77.0636C297.14 70.485 294.202 65.4752 290.154 61.8122C284.537 56.7358 276.76 54.2272 266.592 54.2272Z" fill="#263238"/>
<path d="M137.255 154.549L157.568 297.48C157.713 298.479 158.248 299.38 159.055 299.986C159.862 300.592 160.876 300.853 161.875 300.714L248.366 288.415C249.366 288.272 250.268 287.738 250.874 286.931C251.481 286.123 251.742 285.108 251.6 284.108L231.28 141.185C231.21 140.69 231.043 140.214 230.789 139.784C230.535 139.353 230.199 138.977 229.8 138.677C229.401 138.377 228.946 138.158 228.462 138.033C227.979 137.909 227.475 137.881 226.98 137.951L140.482 150.22C139.984 150.29 139.506 150.457 139.074 150.713C138.642 150.969 138.265 151.308 137.965 151.711C137.665 152.114 137.447 152.572 137.326 153.059C137.204 153.546 137.18 154.053 137.255 154.549ZM193.828 152.077L176.253 154.571C175.879 154.624 175.497 154.603 175.131 154.508C174.765 154.414 174.42 154.248 174.118 154.021C173.816 153.793 173.561 153.509 173.369 153.183C173.177 152.857 173.05 152.496 172.997 152.122C172.944 151.747 172.966 151.366 173.06 150.999C173.155 150.633 173.32 150.289 173.548 149.987C173.775 149.684 174.06 149.43 174.386 149.237C174.712 149.045 175.072 148.919 175.447 148.866L193.014 146.365C193.394 146.302 193.782 146.315 194.156 146.404C194.53 146.494 194.882 146.657 195.193 146.884C195.503 147.111 195.764 147.398 195.962 147.728C196.16 148.058 196.289 148.424 196.344 148.805C196.398 149.185 196.375 149.573 196.278 149.945C196.18 150.317 196.009 150.665 195.775 150.97C195.54 151.275 195.248 151.53 194.913 151.72C194.579 151.91 194.21 152.032 193.828 152.077Z" fill="white"/>
<path d="M161.32 301.113C160.315 301.111 159.345 300.747 158.587 300.088C157.829 299.429 157.333 298.519 157.191 297.524L136.9 154.601C136.748 153.505 137.035 152.394 137.699 151.51C138.363 150.625 139.35 150.039 140.445 149.88L226.943 137.588C228.039 137.434 229.151 137.72 230.036 138.385C230.921 139.049 231.507 140.037 231.664 141.133L251.977 284.049C252.057 284.592 252.028 285.145 251.892 285.677C251.757 286.209 251.518 286.709 251.188 287.148C250.859 287.587 250.446 287.956 249.973 288.234C249.5 288.513 248.976 288.695 248.433 288.77L161.927 301.069C161.726 301.099 161.523 301.114 161.32 301.113ZM227.498 138.313C227.338 138.303 227.177 138.303 227.017 138.313L140.533 150.612C140.087 150.676 139.657 150.827 139.269 151.056C138.881 151.286 138.541 151.59 138.271 151.951C138 152.311 137.803 152.722 137.691 153.159C137.579 153.596 137.554 154.051 137.618 154.497L157.938 297.421C158.068 298.322 158.55 299.135 159.278 299.681C160.007 300.228 160.922 300.463 161.823 300.336L248.314 288.038C248.761 287.976 249.191 287.826 249.58 287.598C249.969 287.369 250.308 287.066 250.579 286.706C250.85 286.345 251.047 285.935 251.159 285.498C251.271 285.061 251.295 284.606 251.23 284.16L230.917 141.236C230.798 140.418 230.389 139.669 229.764 139.127C229.139 138.585 228.34 138.286 227.513 138.284L227.498 138.313ZM175.831 155C175.013 154.991 174.229 154.674 173.634 154.113C173.039 153.552 172.677 152.787 172.62 151.971C172.563 151.155 172.815 150.347 173.327 149.709C173.838 149.071 174.571 148.648 175.38 148.525L192.948 146.032C193.37 145.969 193.801 145.991 194.215 146.097C194.63 146.202 195.019 146.389 195.36 146.646C195.703 146.902 195.992 147.223 196.21 147.591C196.429 147.959 196.572 148.366 196.633 148.79C196.693 149.213 196.669 149.645 196.563 150.059C196.456 150.473 196.269 150.863 196.011 151.204C195.492 151.882 194.726 152.326 193.88 152.44L176.305 154.941C176.153 154.962 176 154.972 175.846 154.971L175.831 155ZM193.414 146.735C193.293 146.724 193.172 146.724 193.051 146.735L175.484 149.228C175.157 149.277 174.842 149.39 174.559 149.56C174.275 149.73 174.028 149.954 173.831 150.219C173.634 150.485 173.492 150.787 173.411 151.107C173.331 151.428 173.315 151.761 173.363 152.089C173.412 152.416 173.525 152.73 173.695 153.013C173.865 153.297 174.089 153.544 174.354 153.741C174.62 153.938 174.922 154.08 175.243 154.161C175.563 154.241 175.897 154.257 176.224 154.209L193.776 151.7C194.104 151.656 194.419 151.547 194.704 151.38C194.989 151.212 195.237 150.989 195.434 150.723C195.832 150.189 196.005 149.519 195.915 148.858C195.828 148.26 195.529 147.713 195.073 147.316C194.617 146.92 194.033 146.7 193.429 146.698L193.414 146.735Z" fill="#263238"/>
<path d="M228.395 154.336L143.666 166.38L161.992 295.309L246.721 283.265L228.395 154.336Z" fill="#32746D"/>
<path d="M162.001 295.674C161.912 295.674 161.827 295.641 161.761 295.583C161.694 295.524 161.651 295.444 161.638 295.356L143.309 166.433C143.302 166.384 143.305 166.334 143.317 166.285C143.33 166.237 143.352 166.192 143.383 166.152C143.411 166.114 143.446 166.082 143.487 166.058C143.527 166.034 143.572 166.018 143.619 166.012L228.357 153.964C228.405 153.958 228.454 153.961 228.501 153.974C228.548 153.987 228.592 154.009 228.631 154.038C228.671 154.066 228.704 154.102 228.729 154.144C228.753 154.187 228.767 154.234 228.771 154.283L247.101 283.205C247.108 283.254 247.106 283.303 247.094 283.35C247.083 283.397 247.062 283.442 247.033 283.481C247.004 283.52 246.968 283.553 246.926 283.578C246.884 283.603 246.838 283.62 246.79 283.627L162.06 295.674H162.001ZM144.093 166.692L162.319 294.89L246.317 282.946L228.09 154.749L144.093 166.692Z" fill="#263238"/>
<path d="M171.68 116.291L176.483 150.079C176.506 150.25 176.563 150.414 176.651 150.562C176.738 150.71 176.854 150.84 176.991 150.943C177.129 151.046 177.286 151.121 177.452 151.163C177.619 151.206 177.793 151.214 177.963 151.189L191.187 149.31C191.357 149.286 191.521 149.229 191.669 149.142C191.817 149.055 191.947 148.939 192.05 148.801C192.153 148.664 192.228 148.507 192.27 148.34C192.313 148.173 192.322 148 192.297 147.83L187.494 114.041L171.68 116.291ZM180.827 123.883C180.276 123.961 179.715 123.874 179.214 123.633C178.713 123.392 178.295 123.008 178.012 122.529C177.729 122.05 177.595 121.499 177.625 120.943C177.656 120.388 177.851 119.855 178.185 119.41C178.519 118.966 178.977 118.63 179.501 118.446C180.026 118.262 180.593 118.237 181.132 118.375C181.67 118.514 182.156 118.808 182.527 119.222C182.898 119.636 183.138 120.151 183.217 120.701C183.321 121.436 183.131 122.181 182.69 122.777C182.248 123.373 181.589 123.77 180.856 123.883H180.827Z" fill="white"/>
<path d="M177.807 151.574C177.398 151.572 177.004 151.42 176.699 151.147C176.394 150.875 176.198 150.5 176.15 150.094L171.34 116.306C171.329 116.208 171.356 116.11 171.415 116.032C171.474 115.953 171.561 115.9 171.658 115.884L187.472 113.664C187.569 113.654 187.667 113.68 187.746 113.738C187.785 113.767 187.819 113.803 187.844 113.845C187.869 113.887 187.886 113.934 187.894 113.982L192.696 147.771C192.728 147.989 192.715 148.212 192.661 148.426C192.606 148.64 192.509 148.841 192.377 149.018C192.244 149.194 192.078 149.343 191.887 149.456C191.697 149.568 191.487 149.642 191.268 149.672L178.044 151.552L177.807 151.574ZM172.124 116.602L176.86 150.028C176.895 150.274 177.026 150.496 177.224 150.646C177.423 150.795 177.672 150.861 177.918 150.827L191.142 148.947C191.39 148.91 191.613 148.777 191.764 148.577C191.838 148.479 191.892 148.367 191.922 148.247C191.953 148.128 191.959 148.004 191.941 147.882L187.22 114.463L172.124 116.602ZM180.457 124.276C179.638 124.217 178.874 123.843 178.326 123.233C177.778 122.623 177.488 121.823 177.517 121.004C177.546 120.184 177.893 119.407 178.483 118.837C179.073 118.268 179.862 117.949 180.682 117.949C181.503 117.949 182.291 118.268 182.882 118.837C183.472 119.407 183.818 120.184 183.847 121.004C183.877 121.823 183.587 122.623 183.038 123.233C182.49 123.843 181.726 124.217 180.908 124.276C180.758 124.287 180.607 124.287 180.457 124.276ZM180.464 118.659H180.116C179.799 118.703 179.494 118.809 179.218 118.972C178.943 119.134 178.702 119.35 178.51 119.606C178.121 120.125 177.953 120.777 178.044 121.419C178.088 121.736 178.194 122.041 178.357 122.317C178.519 122.593 178.735 122.833 178.991 123.025C179.51 123.414 180.162 123.582 180.804 123.491C181.282 123.423 181.728 123.214 182.087 122.893C182.446 122.571 182.702 122.15 182.822 121.683C182.943 121.216 182.922 120.724 182.763 120.269C182.604 119.814 182.314 119.416 181.929 119.125C181.505 118.814 180.99 118.65 180.464 118.659Z" fill="#263238"/>
<path d="M173.761 130.735L189.579 128.487L192.313 147.726C192.366 148.099 192.269 148.478 192.043 148.779C191.816 149.081 191.48 149.28 191.107 149.333L178.102 151.181C177.729 151.234 177.35 151.137 177.049 150.911C176.748 150.684 176.549 150.347 176.496 149.974L173.761 130.735Z" fill="white"/>
<path d="M177.904 151.559C177.472 151.557 177.057 151.401 176.731 151.118C176.405 150.836 176.191 150.447 176.128 150.02L173.397 130.78C173.389 130.732 173.39 130.684 173.402 130.636C173.413 130.589 173.434 130.545 173.464 130.506C173.492 130.467 173.529 130.433 173.571 130.408C173.613 130.383 173.659 130.366 173.708 130.358L189.529 128.138C189.626 128.128 189.723 128.155 189.8 128.214C189.877 128.274 189.929 128.36 189.943 128.457L192.681 147.697C192.747 148.167 192.623 148.645 192.338 149.025C192.052 149.405 191.627 149.656 191.157 149.724L178.155 151.574L177.904 151.559ZM174.204 131.039L176.86 149.917C176.9 150.192 177.049 150.441 177.272 150.607C177.495 150.774 177.776 150.845 178.052 150.805L191.053 148.962C191.19 148.943 191.323 148.897 191.442 148.827C191.561 148.756 191.666 148.663 191.749 148.553C191.832 148.442 191.892 148.316 191.927 148.182C191.961 148.047 191.969 147.908 191.949 147.771L189.263 128.893L174.204 131.039Z" fill="#263238"/>
<path d="M185.37 135.124C185.29 134.559 185.043 134.03 184.663 133.605C184.282 133.18 183.783 132.877 183.23 132.735C182.677 132.593 182.095 132.618 181.556 132.808C181.018 132.997 180.547 133.341 180.205 133.798C179.862 134.255 179.662 134.802 179.631 135.372C179.6 135.942 179.738 136.509 180.029 137C180.32 137.491 180.75 137.886 181.264 138.132C181.779 138.379 182.355 138.468 182.921 138.387C183.677 138.277 184.36 137.872 184.818 137.261C185.277 136.65 185.476 135.881 185.37 135.124Z" fill="white"/>
<path d="M182.506 138.787C181.804 138.789 181.12 138.56 180.56 138.136C180.043 137.752 179.652 137.223 179.437 136.616C179.221 136.009 179.191 135.352 179.349 134.728C179.508 134.104 179.848 133.541 180.327 133.111C180.806 132.681 181.403 132.403 182.04 132.312C182.465 132.247 182.898 132.267 183.315 132.371C183.731 132.475 184.123 132.661 184.468 132.918C184.812 133.175 185.102 133.498 185.32 133.867C185.539 134.237 185.681 134.647 185.74 135.072C185.803 135.497 185.781 135.929 185.676 136.345C185.572 136.761 185.385 137.152 185.129 137.496C184.873 137.84 184.551 138.129 184.182 138.348C183.813 138.568 183.405 138.712 182.98 138.772C182.823 138.788 182.664 138.793 182.506 138.787ZM182.506 133.015C182.386 133.004 182.264 133.004 182.144 133.015C181.65 133.083 181.188 133.296 180.816 133.628C180.444 133.959 180.179 134.394 180.055 134.877C179.931 135.36 179.954 135.868 180.12 136.338C180.287 136.808 180.589 137.217 180.989 137.514C181.387 137.811 181.865 137.984 182.361 138.01C182.857 138.037 183.349 137.915 183.777 137.662C184.204 137.409 184.547 137.035 184.762 136.587C184.977 136.139 185.055 135.638 184.985 135.146C184.902 134.548 184.605 134 184.149 133.603C183.694 133.206 183.11 132.987 182.506 132.985V133.015Z" fill="#263238"/>
<path d="M183.572 135.42C183.523 135.147 183.37 134.904 183.146 134.741C182.921 134.578 182.642 134.509 182.368 134.547C182.093 134.585 181.844 134.729 181.673 134.946C181.501 135.164 181.421 135.44 181.448 135.716C181.462 135.86 181.506 135.999 181.575 136.126C181.645 136.253 181.739 136.364 181.852 136.453C181.966 136.543 182.096 136.608 182.236 136.646C182.375 136.683 182.521 136.693 182.664 136.673C182.807 136.653 182.945 136.604 183.069 136.53C183.192 136.455 183.3 136.357 183.385 136.24C183.469 136.123 183.53 135.99 183.562 135.849C183.594 135.708 183.598 135.562 183.572 135.42Z" fill="white"/>
<path d="M182.514 136.974C182.226 136.982 181.943 136.907 181.697 136.756C181.452 136.606 181.256 136.388 181.133 136.128C181.01 135.868 180.966 135.578 181.005 135.293C181.044 135.008 181.165 134.741 181.354 134.524C181.543 134.307 181.791 134.149 182.067 134.071C182.344 133.992 182.637 133.996 182.912 134.082C183.186 134.167 183.43 134.331 183.613 134.553C183.796 134.775 183.91 135.045 183.942 135.331C183.991 135.708 183.893 136.09 183.668 136.397C183.554 136.549 183.412 136.678 183.248 136.774C183.084 136.871 182.902 136.934 182.714 136.959L182.514 136.974ZM182.514 134.828H182.41C182.231 134.864 182.072 134.964 181.962 135.111C181.853 135.257 181.802 135.438 181.818 135.62C181.852 135.8 181.952 135.961 182.099 136.072C182.245 136.183 182.427 136.235 182.61 136.219C182.794 136.19 182.961 136.092 183.076 135.945C183.184 135.795 183.231 135.611 183.209 135.427C183.178 135.264 183.092 135.116 182.966 135.007C182.839 134.898 182.68 134.835 182.514 134.828Z" fill="#263238"/>
<path d="M179.924 117.327C179.177 117.433 178.479 117.757 177.917 118.26C177.355 118.763 176.955 119.421 176.767 120.151C176.579 120.881 176.612 121.651 176.862 122.362C177.111 123.074 177.567 123.695 178.169 124.148C178.772 124.601 179.496 124.864 180.249 124.906C181.002 124.947 181.75 124.764 182.399 124.38C183.048 123.996 183.568 123.428 183.894 122.748C184.22 122.068 184.337 121.307 184.23 120.561C184.16 120.065 183.994 119.589 183.739 119.158C183.485 118.727 183.148 118.351 182.748 118.05C182.348 117.75 181.892 117.531 181.408 117.407C180.923 117.283 180.419 117.256 179.924 117.327ZM180.856 123.883C180.305 123.961 179.744 123.874 179.243 123.633C178.742 123.392 178.324 123.008 178.041 122.529C177.758 122.05 177.624 121.499 177.655 120.943C177.685 120.388 177.88 119.855 178.214 119.41C178.548 118.966 179.006 118.63 179.531 118.446C180.055 118.262 180.623 118.237 181.161 118.375C181.7 118.514 182.185 118.808 182.556 119.222C182.928 119.636 183.168 120.151 183.246 120.701C183.35 121.44 183.156 122.19 182.708 122.786C182.26 123.383 181.594 123.777 180.856 123.883Z" fill="white"/>
<path d="M180.456 125.282C179.679 125.282 178.918 125.065 178.257 124.656C177.596 124.247 177.063 123.661 176.716 122.966C176.37 122.27 176.224 121.492 176.295 120.718C176.366 119.944 176.651 119.206 177.119 118.585C177.447 118.144 177.859 117.773 178.331 117.494C178.804 117.214 179.328 117.032 179.872 116.957C180.416 116.879 180.97 116.909 181.502 117.046C182.034 117.183 182.534 117.425 182.972 117.756C183.414 118.083 183.785 118.495 184.065 118.968C184.345 119.441 184.527 119.965 184.6 120.509C184.755 121.607 184.467 122.721 183.802 123.607C183.136 124.494 182.146 125.08 181.048 125.238C180.853 125.267 180.655 125.282 180.456 125.282ZM179.976 117.66C179.185 117.771 178.458 118.153 177.918 118.74C177.378 119.328 177.058 120.084 177.013 120.881C176.968 121.677 177.201 122.465 177.672 123.109C178.142 123.753 178.822 124.215 179.595 124.414C180.367 124.613 181.185 124.538 181.909 124.202C182.632 123.866 183.217 123.289 183.563 122.57C183.909 121.851 183.995 121.035 183.807 120.259C183.618 119.484 183.166 118.798 182.528 118.319C182.168 118.045 181.757 117.845 181.318 117.732C180.88 117.619 180.423 117.595 179.976 117.66ZM180.456 124.246C179.658 124.236 178.892 123.927 178.311 123.379C177.73 122.83 177.377 122.084 177.321 121.287C177.265 120.49 177.511 119.702 178.009 119.078C178.508 118.454 179.223 118.04 180.012 117.919C180.834 117.829 181.658 118.062 182.311 118.569C182.963 119.075 183.393 119.816 183.51 120.634C183.626 121.452 183.42 122.283 182.934 122.952C182.448 123.621 181.722 124.074 180.908 124.216C180.759 124.247 180.608 124.267 180.456 124.276V124.246ZM180.464 118.629C180.348 118.622 180.232 118.622 180.116 118.629C179.799 118.673 179.494 118.78 179.218 118.942C178.943 119.105 178.702 119.32 178.51 119.577C178.121 120.095 177.953 120.747 178.044 121.39C178.088 121.707 178.194 122.012 178.357 122.287C178.519 122.563 178.735 122.804 178.991 122.995C179.3 123.229 179.66 123.386 180.041 123.454C180.422 123.521 180.814 123.497 181.184 123.383C181.555 123.269 181.892 123.069 182.17 122.799C182.447 122.529 182.656 122.197 182.78 121.83C182.904 121.463 182.939 121.072 182.882 120.689C182.824 120.306 182.677 119.942 182.451 119.627C182.226 119.312 181.929 119.055 181.584 118.878C181.24 118.701 180.859 118.608 180.471 118.607L180.464 118.629Z" fill="#263238"/>
<path d="M215.437 161.695L158.182 169.834L170.107 253.728L227.362 245.589L215.437 161.695Z" fill="white"/>
<path d="M170.111 254.094C170.029 254.095 169.948 254.069 169.882 254.02C169.806 253.959 169.756 253.872 169.741 253.776L157.812 169.882C157.8 169.784 157.826 169.685 157.885 169.606C157.945 169.527 158.033 169.475 158.131 169.46L215.384 161.32C215.482 161.307 215.581 161.334 215.66 161.393C215.739 161.452 215.792 161.541 215.806 161.638L227.735 245.532C227.745 245.629 227.719 245.727 227.661 245.806C227.632 245.845 227.596 245.879 227.554 245.904C227.512 245.93 227.465 245.947 227.417 245.954L170.163 254.094H170.111ZM158.597 170.141L170.437 253.309L226.965 245.273L215.125 162.112L158.597 170.141Z" fill="#263238"/>
<path d="M170.111 253.724C181.034 252.244 215.51 247.064 227.365 245.584C226.388 238.731 225.101 229.822 224.945 225.552C223.399 224.442 220.698 223.487 216.805 221.43C210.7 218.211 200.792 211.448 200.792 211.448L196.766 211.877L196.729 211.64L193.51 212.217L190.247 212.558V212.794L186.258 213.534C186.258 213.534 178.629 222.792 173.678 227.594C170.407 230.754 168.365 232.197 167.233 233.736C167.321 233.995 169.001 245.806 170.111 253.724Z" fill="white"/>
<path d="M170.104 254.005C170.037 254.004 169.972 253.979 169.922 253.934C169.871 253.889 169.839 253.828 169.83 253.761C168.713 245.776 167.055 234.077 166.989 233.781C166.98 233.742 166.98 233.702 166.989 233.664C166.998 233.625 167.015 233.589 167.04 233.559C167.955 232.443 168.982 231.424 170.104 230.517C171.029 229.696 172.183 228.675 173.515 227.38C178.414 222.659 186.014 213.453 186.095 213.357C186.138 213.304 186.199 213.27 186.266 213.261L189.966 212.595C189.962 212.561 189.966 212.528 189.976 212.496C189.986 212.464 190.003 212.435 190.025 212.41C190.047 212.38 190.074 212.356 190.106 212.338C190.138 212.32 190.173 212.309 190.21 212.306L193.473 211.966L196.677 211.388C196.713 211.381 196.75 211.381 196.786 211.388C196.821 211.396 196.855 211.411 196.885 211.433C196.94 211.471 196.98 211.529 196.996 211.596L200.755 211.196C200.82 211.191 200.884 211.207 200.94 211.24C201.043 211.314 210.908 218.034 216.924 221.208C218.618 222.104 220.061 222.777 221.364 223.369C222.672 223.92 223.93 224.583 225.123 225.352C225.158 225.376 225.188 225.408 225.208 225.445C225.229 225.482 225.24 225.524 225.241 225.567C225.382 229.615 226.566 237.903 227.513 244.563L227.654 245.569C227.66 245.605 227.659 245.642 227.65 245.678C227.641 245.714 227.625 245.747 227.602 245.776C227.556 245.835 227.49 245.874 227.417 245.887C219.943 246.797 203.826 249.151 189.603 251.223C181.337 252.429 174.204 253.443 170.163 254.02L170.104 254.005ZM167.551 233.773C167.766 235.128 169.364 246.42 170.341 253.413C174.426 252.851 181.441 251.829 189.507 250.653C203.567 248.603 219.455 246.287 227.054 245.347L226.951 244.607C226.011 238.006 224.842 229.807 224.679 225.685C223.538 224.98 222.346 224.362 221.112 223.835C219.839 223.243 218.389 222.562 216.672 221.66C210.93 218.633 201.702 212.387 200.718 211.721L196.796 212.136C196.732 212.14 196.669 212.123 196.616 212.089C196.563 212.054 196.522 212.003 196.5 211.943L193.54 212.476L190.543 212.794C190.542 212.858 190.518 212.919 190.476 212.966C190.434 213.014 190.376 213.045 190.313 213.053L186.428 213.749C185.688 214.667 178.555 223.228 173.848 227.742C172.509 229.045 171.347 230.073 170.415 230.895C169.377 231.768 168.418 232.731 167.551 233.773Z" fill="#263238"/>
<path d="M224.96 225.552C223.449 224.622 221.868 223.81 220.231 223.125L219.824 222.932L219.284 222.673L218.544 222.311L218.108 222.089C217.693 221.882 217.271 221.667 216.827 221.43C210.722 218.211 200.814 211.448 200.814 211.448L196.788 211.877L196.751 211.64L193.532 212.217L190.269 212.558V212.794L186.28 213.534C186.28 213.534 178.651 222.792 173.7 227.594C173.367 227.92 173.049 228.223 172.731 228.519C170.022 231.043 168.291 232.353 167.255 233.736C167.255 233.84 167.477 235.253 167.788 237.385L225.212 229.245C225.078 227.787 224.96 226.544 224.96 225.552Z" fill="#263238"/>
<path d="M225.944 235.32L168.661 243.46C168.957 245.569 169.275 247.804 169.578 249.942L226.825 241.802C226.521 239.656 226.218 237.436 225.944 235.32Z" fill="#263238"/>
<path d="M195.419 227.002L197.565 240.707L200.999 240.219L197.684 226.484C197.684 226.484 195.693 226.188 195.419 227.002Z" fill="white"/>
<path d="M197.58 240.981C197.515 240.98 197.452 240.957 197.402 240.915C197.352 240.874 197.318 240.816 197.306 240.752L195.16 227.047C195.149 227.003 195.149 226.957 195.16 226.914C195.493 225.907 197.499 226.174 197.728 226.211C197.782 226.218 197.832 226.242 197.872 226.279C197.911 226.317 197.939 226.365 197.95 226.418L201.28 240.152C201.291 240.19 201.293 240.229 201.286 240.267C201.28 240.306 201.265 240.342 201.243 240.374C201.221 240.406 201.192 240.433 201.159 240.454C201.126 240.474 201.089 240.487 201.051 240.493L197.617 240.981H197.58ZM195.723 227.039L197.81 240.359L200.673 239.952L197.477 226.706C196.788 226.669 195.9 226.714 195.708 227.039H195.723Z" fill="#263238"/>
<path d="M197.735 230.739C197.725 230.668 197.701 230.599 197.665 230.537C197.628 230.475 197.579 230.42 197.522 230.377C197.464 230.334 197.398 230.302 197.328 230.284C197.258 230.267 197.185 230.263 197.114 230.273C197.007 230.289 196.907 230.336 196.827 230.408C196.746 230.481 196.689 230.575 196.662 230.68C196.636 230.785 196.641 230.895 196.677 230.997C196.713 231.099 196.778 231.188 196.865 231.253C196.951 231.318 197.055 231.356 197.163 231.362C197.271 231.368 197.378 231.342 197.471 231.287C197.564 231.232 197.639 231.15 197.686 231.053C197.733 230.956 197.75 230.847 197.735 230.739Z" fill="white"/>
<path d="M197.195 231.62C197.016 231.62 196.841 231.56 196.7 231.45C196.525 231.319 196.409 231.125 196.374 230.91C196.359 230.802 196.366 230.692 196.394 230.586C196.422 230.481 196.471 230.382 196.537 230.295C196.633 230.162 196.768 230.061 196.923 230.005C197.077 229.949 197.245 229.941 197.405 229.981C197.564 230.022 197.708 230.11 197.817 230.233C197.926 230.356 197.996 230.51 198.017 230.673C198.035 230.78 198.03 230.89 198.003 230.996C197.976 231.102 197.928 231.201 197.861 231.287C197.797 231.373 197.716 231.446 197.623 231.501C197.531 231.555 197.428 231.591 197.321 231.605L197.195 231.62ZM197.195 230.517H197.158C197.123 230.521 197.089 230.532 197.058 230.55C197.027 230.567 197.001 230.592 196.981 230.621C196.958 230.649 196.942 230.681 196.933 230.715C196.924 230.75 196.922 230.786 196.929 230.821C196.932 230.856 196.943 230.89 196.961 230.921C196.979 230.952 197.003 230.978 197.033 230.998C197.09 231.04 197.162 231.059 197.232 231.05C197.268 231.047 197.302 231.036 197.333 231.018C197.363 231 197.39 230.976 197.41 230.947C197.453 230.889 197.471 230.818 197.462 230.747C197.447 230.687 197.413 230.635 197.364 230.597C197.316 230.56 197.257 230.539 197.195 230.54V230.517Z" fill="#263238"/>
<path d="M199.216 237.259C199.211 237.183 199.191 237.109 199.156 237.042C199.122 236.975 199.073 236.915 199.015 236.868C198.956 236.82 198.888 236.785 198.815 236.764C198.742 236.744 198.666 236.739 198.591 236.75C198.516 236.761 198.444 236.787 198.38 236.827C198.316 236.867 198.26 236.92 198.217 236.982C198.175 237.045 198.145 237.115 198.131 237.19C198.117 237.264 198.118 237.34 198.135 237.414C198.144 237.485 198.167 237.554 198.203 237.616C198.239 237.678 198.287 237.733 198.344 237.776C198.402 237.82 198.467 237.851 198.536 237.869C198.606 237.887 198.678 237.891 198.749 237.88C198.821 237.87 198.89 237.846 198.952 237.81C199.014 237.773 199.068 237.724 199.112 237.667C199.155 237.609 199.187 237.543 199.204 237.473C199.222 237.403 199.226 237.33 199.216 237.259Z" fill="white"/>
<path d="M198.675 238.162C198.472 238.162 198.275 238.087 198.124 237.95C197.974 237.813 197.88 237.624 197.861 237.422C197.841 237.315 197.845 237.206 197.872 237.101C197.898 236.996 197.948 236.898 198.017 236.815C198.113 236.681 198.248 236.58 198.402 236.524C198.557 236.468 198.725 236.46 198.885 236.501C199.044 236.541 199.188 236.629 199.297 236.752C199.406 236.876 199.476 237.029 199.497 237.192C199.514 237.3 199.51 237.41 199.483 237.516C199.456 237.621 199.408 237.72 199.341 237.806C199.209 237.979 199.015 238.093 198.801 238.125L198.675 238.162ZM198.675 237.066H198.638C198.593 237.072 198.55 237.088 198.513 237.114C198.476 237.14 198.446 237.175 198.426 237.216C198.406 237.256 198.396 237.301 198.397 237.346C198.399 237.392 198.411 237.436 198.434 237.475C198.456 237.514 198.488 237.547 198.527 237.571C198.565 237.595 198.609 237.609 198.654 237.611C198.699 237.614 198.745 237.606 198.786 237.587C198.827 237.568 198.863 237.539 198.89 237.503C198.912 237.475 198.928 237.443 198.937 237.409C198.946 237.374 198.948 237.338 198.942 237.303C198.934 237.238 198.903 237.177 198.854 237.134C198.805 237.09 198.741 237.066 198.675 237.066Z" fill="#263238"/>
<path d="M186.88 209.346C186.88 209.346 184.66 210.241 184.046 214.03C183.431 217.819 183.979 227.269 183.705 229.444C183.431 231.62 184.06 231.923 185.503 231.139C186.946 230.355 188.286 227.439 190.572 227.106C192.586 226.943 194.612 226.98 196.618 227.217C196.618 227.217 199.948 224.605 202.235 224.257C204.521 223.909 207.977 227.72 208.895 227.587C209.812 227.454 207.541 219.447 205.446 214.267C203.352 209.087 199.756 207.096 195.752 207.666C191.749 208.236 186.88 209.346 186.88 209.346Z" fill="white"/>
<path d="M184.364 231.812C184.18 231.817 183.999 231.765 183.846 231.664C183.402 231.361 183.276 230.665 183.431 229.407C183.535 228.556 183.513 226.521 183.483 224.168C183.439 220.653 183.387 216.28 183.772 213.978C184.416 210.086 186.68 209.124 186.776 209.087H186.821C186.872 209.087 191.779 207.992 195.752 207.429C200.192 206.8 203.707 209.205 205.742 214.2C207.393 218.256 210.005 226.455 209.309 227.661C209.276 227.724 209.229 227.778 209.171 227.819C209.113 227.86 209.046 227.887 208.976 227.898C208.51 227.964 207.881 227.528 206.712 226.684C205.38 225.715 203.545 224.39 202.272 224.575C200.089 224.886 196.825 227.424 196.788 227.454C196.732 227.498 196.66 227.52 196.589 227.513C194.604 227.278 192.601 227.239 190.609 227.395C189.292 227.587 188.271 228.749 187.368 229.777C186.884 230.407 186.299 230.952 185.637 231.391C185.252 231.632 184.816 231.776 184.364 231.812ZM186.969 209.612C186.761 209.716 184.882 210.693 184.319 214.052C183.942 216.272 184.001 220.646 184.038 224.139C184.038 226.514 184.097 228.579 183.979 229.459C183.824 230.747 184.023 231.087 184.157 231.183C184.29 231.28 184.608 231.287 185.37 230.873C185.969 230.461 186.502 229.962 186.954 229.393C187.916 228.297 189.011 227.047 190.535 226.832C192.534 226.663 194.545 226.697 196.537 226.936C197.099 226.499 200.044 224.316 202.198 223.976C203.678 223.769 205.55 225.108 207.037 226.196C207.581 226.654 208.19 227.031 208.843 227.313C209.206 226.492 207.437 219.802 205.224 214.371C203.3 209.635 199.97 207.348 195.826 207.94C192.03 208.502 187.368 209.516 186.969 209.605V209.612Z" fill="#263238"/>
<path d="M171.229 236.06C169.653 233.292 168.269 233.662 167.396 234.58C167.817 237.496 169.164 246.99 170.104 253.702H170.319C172.08 253.465 174.411 253.132 177.134 252.74L177.26 252.673C175.521 246.997 172.968 239.153 171.229 236.06Z" fill="white"/>
<path d="M170.104 253.99C170.037 253.989 169.972 253.964 169.922 253.919C169.871 253.874 169.839 253.813 169.83 253.746C168.942 247.404 167.566 237.666 167.122 234.624C167.115 234.582 167.118 234.538 167.13 234.497C167.143 234.456 167.166 234.418 167.196 234.388C167.414 234.131 167.69 233.93 168.002 233.801C168.313 233.673 168.651 233.62 168.987 233.648C169.838 233.766 170.674 234.536 171.466 235.934C173.197 238.983 175.721 246.664 177.526 252.569C177.548 252.638 177.542 252.713 177.51 252.777C177.479 252.842 177.423 252.892 177.356 252.917L177.245 252.969H177.178C174.448 253.361 172.117 253.709 170.356 253.931H170.126L170.104 253.99ZM167.692 234.684C168.143 237.836 169.468 247.16 170.341 253.413L176.912 252.481C175.121 246.642 172.664 239.161 170.992 236.201C170.289 234.957 169.593 234.284 168.92 234.188C168.691 234.172 168.462 234.209 168.249 234.295C168.036 234.38 167.845 234.513 167.692 234.684Z" fill="#263238"/>
<path d="M220.875 246.42C223.012 245.985 225.171 245.664 227.343 245.458C226.492 239.457 225.404 231.946 225.049 227.335C220.32 229.289 220.298 239.442 220.875 246.42Z" fill="white"/>
<path d="M220.875 246.664C220.816 246.663 220.759 246.642 220.713 246.605C220.681 246.583 220.655 246.555 220.635 246.521C220.616 246.488 220.605 246.451 220.602 246.413C219.958 238.68 220.187 229.045 224.945 227.047C224.984 227.027 225.027 227.016 225.071 227.016C225.115 227.016 225.158 227.027 225.197 227.047C225.234 227.072 225.265 227.105 225.288 227.143C225.311 227.182 225.325 227.224 225.33 227.269C225.663 231.642 226.677 238.761 227.491 244.474L227.617 245.362C227.622 245.4 227.62 245.438 227.61 245.475C227.6 245.512 227.582 245.547 227.558 245.576C227.536 245.606 227.508 245.63 227.476 245.648C227.444 245.666 227.409 245.677 227.373 245.68C225.211 245.885 223.062 246.207 220.935 246.642L220.875 246.664ZM224.805 227.728C220.557 230.036 220.646 239.997 221.105 246.05C222.947 245.68 224.886 245.391 227.025 245.169L226.943 244.57C226.152 239.02 225.175 232.145 224.805 227.728Z" fill="#263238"/>
<path d="M201.85 190.01C201.85 190.01 202.146 183.838 205.084 188.093C208.022 192.348 202.827 198.927 202.124 197.861C201.421 196.796 201.85 190.01 201.85 190.01Z" fill="white"/>
<path d="M202.324 198.253C202.233 198.256 202.144 198.236 202.064 198.194C201.983 198.153 201.915 198.092 201.865 198.017C201.125 196.907 201.524 190.713 201.576 189.995C201.576 189.64 201.769 186.717 203.056 186.354C203.722 186.169 204.47 186.68 205.335 187.93C207.037 190.395 206.075 193.34 205.335 194.872C204.484 196.67 203.167 198.187 202.375 198.253H202.324ZM203.308 186.872H203.189C202.494 187.072 202.176 189.092 202.131 190.01C201.939 192.592 201.828 196.966 202.324 197.684C202.449 197.684 203.13 197.306 203.966 196.093C205.446 193.984 206.534 190.654 204.854 188.226C204.24 187.353 203.693 186.872 203.308 186.872Z" fill="#263238"/>
<path d="M202.205 193.569H202.153C202.117 193.563 202.082 193.55 202.051 193.53C202.02 193.51 201.994 193.484 201.973 193.454C201.952 193.423 201.938 193.389 201.931 193.353C201.924 193.317 201.924 193.28 201.931 193.244C202.05 192.607 202.708 189.403 203.567 188.885C203.681 188.804 203.814 188.753 203.953 188.735C204.093 188.717 204.234 188.733 204.366 188.781C204.551 188.885 204.712 189.026 204.839 189.196C204.966 189.365 205.057 189.559 205.106 189.766C205.121 189.837 205.109 189.912 205.07 189.974C205.031 190.036 204.97 190.081 204.899 190.099C204.864 190.109 204.827 190.111 204.791 190.106C204.755 190.102 204.72 190.089 204.689 190.071C204.658 190.052 204.631 190.027 204.609 189.998C204.588 189.968 204.573 189.934 204.566 189.899C204.521 189.736 204.381 189.373 204.181 189.299C204.181 189.299 204.062 189.248 203.885 189.359C203.411 189.647 202.79 191.867 202.508 193.347C202.493 193.414 202.454 193.474 202.398 193.514C202.342 193.555 202.274 193.575 202.205 193.569Z" fill="#263238"/>
<path d="M204.055 193.547C204.01 193.548 203.966 193.537 203.926 193.517C203.886 193.496 203.851 193.466 203.826 193.429C203.786 193.367 203.771 193.293 203.785 193.221C203.798 193.149 203.84 193.086 203.9 193.044C204.048 192.931 204.159 192.776 204.217 192.599C204.275 192.422 204.278 192.231 204.225 192.052C204.218 192.018 204.203 191.987 204.181 191.96C204.159 191.933 204.131 191.911 204.099 191.897C203.631 191.825 203.152 191.903 202.73 192.119C202.697 192.134 202.662 192.142 202.626 192.142C202.59 192.143 202.554 192.137 202.52 192.124C202.486 192.111 202.455 192.091 202.429 192.066C202.403 192.041 202.382 192.011 202.368 191.978C202.352 191.945 202.343 191.91 202.342 191.873C202.34 191.837 202.346 191.8 202.36 191.766C202.373 191.732 202.393 191.702 202.418 191.676C202.444 191.65 202.475 191.629 202.508 191.616C203.072 191.334 203.715 191.256 204.329 191.394C204.435 191.438 204.528 191.507 204.603 191.595C204.677 191.682 204.73 191.785 204.758 191.897C204.843 192.188 204.837 192.497 204.74 192.785C204.644 193.072 204.461 193.322 204.218 193.503C204.169 193.532 204.112 193.547 204.055 193.547Z" fill="#263238"/>
<path d="M179.08 193.251C179.08 193.251 177.075 187.398 175.439 192.304C173.804 197.21 180.619 202.079 181.034 200.858C181.448 199.637 179.08 193.251 179.08 193.251Z" fill="white"/>
<path d="M180.715 201.324C180.546 201.319 180.379 201.286 180.22 201.228C178.414 200.629 173.759 196.47 175.18 192.215C175.661 190.772 176.238 190.069 176.927 190.069C178.244 190.069 179.228 192.822 179.339 193.155C179.591 193.836 181.722 199.659 181.3 200.94C181.259 201.06 181.18 201.163 181.074 201.232C180.968 201.302 180.842 201.334 180.715 201.324ZM176.934 190.624C176.52 190.624 176.09 191.253 175.706 192.393C174.773 195.197 176.764 198.083 178.754 199.704C179.894 200.636 180.664 200.836 180.789 200.755C181.056 199.941 179.724 195.774 178.821 193.355C178.436 192.208 177.6 190.624 176.934 190.624Z" fill="#263238"/>
<path d="M179.665 196.773C179.613 196.773 179.562 196.758 179.517 196.73C179.473 196.703 179.437 196.664 179.413 196.618C178.725 195.271 177.511 193.318 176.971 193.17C176.771 193.118 176.697 193.17 176.675 193.17C176.505 193.295 176.468 193.68 176.475 193.85C176.477 193.924 176.451 193.995 176.401 194.049C176.351 194.103 176.282 194.135 176.209 194.139C176.172 194.141 176.136 194.136 176.101 194.123C176.067 194.111 176.035 194.092 176.008 194.067C175.981 194.042 175.96 194.012 175.945 193.979C175.929 193.945 175.921 193.909 175.92 193.873C175.904 193.665 175.932 193.456 176.002 193.259C176.072 193.063 176.183 192.884 176.327 192.733C176.438 192.647 176.568 192.59 176.707 192.568C176.845 192.546 176.987 192.559 177.119 192.607C178.088 192.866 179.613 195.76 179.909 196.307C179.941 196.372 179.946 196.447 179.924 196.516C179.902 196.585 179.854 196.643 179.791 196.677C179.758 196.72 179.714 196.753 179.665 196.773Z" fill="#263238"/>
<path d="M177.874 197.269C177.845 197.276 177.814 197.276 177.785 197.269C177.5 197.165 177.255 196.975 177.081 196.726C176.908 196.477 176.815 196.181 176.816 195.878C176.815 195.764 176.839 195.651 176.886 195.548C176.933 195.444 177.003 195.352 177.09 195.279C177.643 194.976 178.282 194.872 178.903 194.983C178.939 194.987 178.973 194.999 179.005 195.017C179.036 195.035 179.064 195.059 179.086 195.088C179.108 195.117 179.124 195.15 179.133 195.186C179.142 195.221 179.145 195.257 179.139 195.293C179.136 195.33 179.125 195.365 179.107 195.397C179.089 195.429 179.065 195.457 179.036 195.48C179.006 195.502 178.973 195.518 178.937 195.527C178.902 195.535 178.865 195.536 178.829 195.53C178.363 195.442 177.882 195.501 177.452 195.7C177.427 195.723 177.406 195.75 177.392 195.78C177.378 195.811 177.371 195.844 177.371 195.878C177.369 196.066 177.425 196.249 177.531 196.404C177.637 196.559 177.787 196.677 177.963 196.744C178.033 196.767 178.092 196.818 178.125 196.885C178.158 196.951 178.164 197.028 178.14 197.099C178.117 197.15 178.08 197.194 178.032 197.224C177.985 197.254 177.93 197.27 177.874 197.269Z" fill="#263238"/>
<path d="M185.17 205.498C185.17 205.498 188.374 216.702 188.996 218.774C189.736 221.193 194.058 227.002 196.27 226.107C198.483 225.212 198.89 218.529 199.186 216.546C199.482 214.563 198.897 203.552 198.897 203.552L185.17 205.498Z" fill="white"/>
<path d="M195.767 226.477C195.377 226.466 194.994 226.365 194.65 226.181C192.304 225.064 189.351 220.883 188.73 218.848C188.108 216.813 184.934 205.69 184.897 205.579C184.88 205.543 184.871 205.504 184.871 205.465C184.871 205.425 184.88 205.386 184.897 205.35C184.918 205.317 184.947 205.289 184.98 205.267C185.013 205.245 185.05 205.231 185.089 205.224L198.823 203.278C198.861 203.271 198.9 203.272 198.938 203.283C198.975 203.293 199.009 203.312 199.038 203.337C199.068 203.361 199.093 203.391 199.109 203.426C199.126 203.461 199.134 203.499 199.134 203.537C199.134 203.988 199.726 214.593 199.423 216.583C199.378 216.887 199.334 217.286 199.275 217.767C198.831 221.526 198.202 225.604 196.315 226.359C196.141 226.431 195.955 226.472 195.767 226.477ZM185.518 205.72C186.044 207.533 188.708 216.82 189.263 218.677C189.818 220.535 192.704 224.597 194.887 225.67C195.076 225.784 195.287 225.857 195.506 225.885C195.725 225.913 195.947 225.895 196.159 225.833C197.884 225.13 198.476 220.106 198.764 217.693C198.823 217.212 198.868 216.798 198.912 216.494C199.179 214.741 198.727 205.639 198.638 203.863L185.518 205.72Z" fill="#263238"/>
<path d="M177.422 179.761C177.422 179.761 178.066 190.469 180.308 198.039C182.551 205.609 189.255 211.662 192.733 211.462C196.211 211.263 202.797 202.146 202.397 197.232C201.998 192.319 202.856 179.938 200.444 175.313C198.031 170.688 194.687 169.712 187.775 170.4C180.863 171.088 176.157 174.973 177.422 179.761Z" fill="white"/>
<path d="M192.563 211.744C188.774 211.744 182.203 205.461 180.049 198.12C177.896 190.779 177.186 180.412 177.149 179.805C176.914 178.952 176.873 178.058 177.029 177.187C177.185 176.316 177.534 175.491 178.051 174.773C179.798 172.257 183.328 170.563 187.745 170.126C195.071 169.386 198.335 170.674 200.695 175.188C202.449 178.555 202.494 185.777 202.531 191.586C202.531 193.865 202.531 195.826 202.671 197.21C202.938 200.407 200.348 205.224 197.654 208.31C196.588 209.538 194.531 211.618 192.748 211.721L192.563 211.744ZM191.26 170.481C190.224 170.481 189.077 170.548 187.797 170.674C183.609 171.095 180.131 172.746 178.51 175.114C178.037 175.769 177.718 176.522 177.576 177.318C177.434 178.113 177.472 178.93 177.689 179.709C177.692 179.726 177.692 179.744 177.689 179.761C177.689 179.872 178.362 190.535 180.567 197.98C182.787 205.542 189.544 211.403 192.711 211.203C193.858 211.137 195.508 209.96 197.225 207.984C199.844 204.973 202.36 200.325 202.109 197.284C201.99 195.878 201.983 193.902 201.968 191.616C201.931 185.866 201.887 178.717 200.192 175.469C198.32 171.895 195.989 170.481 191.26 170.481Z" fill="#263238"/>
<path d="M178.436 192.459C178.436 192.459 179.613 192.045 179.339 190.099C179.065 188.152 178.651 186.976 179.339 186.51C180.027 186.043 181.071 185.644 181.026 183.55C180.982 181.455 178.318 180.22 178.88 178.037C179.251 176.888 180.004 175.9 181.013 175.238C182.023 174.575 183.229 174.278 184.43 174.396C186.939 174.662 187.612 178.525 191.616 180.56C195.619 182.595 200.333 181.796 200.333 181.796C200.117 182.136 200.019 182.537 200.054 182.938C200.088 183.34 200.254 183.718 200.525 184.016C201.033 184.61 201.352 185.341 201.443 186.117C201.443 186.117 201.783 190.276 202.516 190.173C203.249 190.069 202.886 180.59 202.679 179.132C202.472 177.674 202.738 171.732 198.239 169.734C193.74 167.736 187.265 168.32 183.365 169.615C179.465 170.91 177.445 173.064 176.564 176.653C175.684 180.242 178.436 192.459 178.436 192.459Z" fill="#263238"/>
<path d="M178.436 192.733C178.392 192.743 178.347 192.743 178.303 192.733C178.236 192.689 178.187 192.624 178.162 192.548C178.051 192.045 175.432 180.205 176.29 176.594C177.149 172.982 179.317 170.674 183.268 169.364C187.442 167.973 193.961 167.573 198.342 169.482C202.375 171.251 202.708 176.009 202.871 178.303C202.871 178.636 202.908 178.91 202.938 179.102C203.049 179.842 203.182 182.617 203.211 185.163C203.256 190.343 202.841 190.409 202.538 190.454C202.471 190.464 202.402 190.46 202.337 190.441C202.271 190.422 202.211 190.388 202.161 190.343C201.502 189.817 201.221 186.998 201.154 186.147C201.055 185.427 200.755 184.75 200.288 184.193C200.06 183.914 199.901 183.585 199.825 183.232C199.749 182.88 199.758 182.514 199.852 182.166C196.99 182.494 194.093 182.034 191.475 180.834C189.77 179.893 188.306 178.571 187.198 176.971C186.258 175.772 185.511 174.818 184.386 174.707C183.251 174.596 182.112 174.875 181.157 175.497C180.202 176.12 179.488 177.05 179.132 178.133C178.858 179.198 179.465 180.042 180.101 180.93C180.756 181.651 181.174 182.555 181.3 183.52C181.352 185.533 180.419 186.125 179.739 186.561L179.494 186.717C179.132 186.968 179.228 187.627 179.443 188.87C179.502 189.225 179.568 189.61 179.628 190.039C179.931 192.178 178.599 192.674 178.547 192.696C178.514 192.717 178.476 192.73 178.436 192.733ZM191.075 168.72C188.488 168.708 185.914 169.098 183.446 169.874C179.642 171.14 177.667 173.182 176.83 176.705C176.09 179.835 178.17 189.906 178.621 192.023C178.844 191.777 179.002 191.481 179.082 191.159C179.163 190.837 179.162 190.501 179.08 190.18C179.021 189.758 178.954 189.373 178.895 189.018C178.658 187.679 178.51 186.798 179.184 186.317L179.435 186.154C180.072 185.747 180.789 185.296 180.745 183.594C180.631 182.725 180.254 181.912 179.665 181.263C178.984 180.308 178.273 179.324 178.606 178C179.206 175.654 181.885 173.893 184.452 174.159C185.814 174.3 186.672 175.387 187.649 176.638C188.707 178.172 190.108 179.439 191.741 180.338C195.619 182.306 200.244 181.559 200.288 181.552C200.343 181.54 200.399 181.546 200.45 181.568C200.5 181.591 200.542 181.629 200.57 181.677C200.602 181.723 200.62 181.777 200.62 181.833C200.62 181.889 200.602 181.943 200.57 181.988C200.395 182.279 200.319 182.619 200.354 182.956C200.389 183.294 200.532 183.611 200.762 183.86C201.308 184.499 201.646 185.289 201.731 186.125C201.783 187.389 202.033 188.638 202.471 189.825C202.886 188.559 202.649 180.723 202.434 179.176C202.434 178.976 202.383 178.688 202.36 178.34C202.205 176.12 201.894 171.621 198.165 169.993C195.912 169.094 193.5 168.661 191.075 168.72Z" fill="#263238"/>
<path d="M184.756 196.899C183.347 196.901 181.993 196.356 180.979 195.379C179.965 194.402 179.37 193.069 179.319 191.662C179.269 190.254 179.767 188.882 180.709 187.835C181.651 186.788 182.963 186.148 184.368 186.049C185.773 185.951 187.161 186.402 188.24 187.308C189.319 188.213 190.003 189.503 190.15 190.903C190.296 192.304 189.892 193.707 189.024 194.816C188.156 195.925 186.891 196.653 185.496 196.847C185.251 196.881 185.003 196.899 184.756 196.899ZM184.756 186.539C184.521 186.539 184.286 186.554 184.053 186.584C182.93 186.742 181.898 187.285 181.131 188.12C180.364 188.955 179.91 190.03 179.847 191.162C179.784 192.294 180.116 193.412 180.785 194.327C181.455 195.242 182.421 195.896 183.519 196.179C184.616 196.461 185.778 196.354 186.806 195.875C187.834 195.397 188.664 194.577 189.154 193.555C189.645 192.533 189.766 191.373 189.497 190.272C189.228 189.17 188.586 188.196 187.679 187.516C186.839 186.891 185.818 186.556 184.771 186.561L184.756 186.539Z" fill="#263238"/>
<path d="M196.529 195.227C195.151 195.224 193.824 194.699 192.818 193.757C191.811 192.815 191.199 191.527 191.105 190.151C191.011 188.776 191.442 187.416 192.312 186.346C193.181 185.276 194.424 184.575 195.789 184.386C196.498 184.284 197.219 184.324 197.913 184.501C198.606 184.679 199.258 184.991 199.83 185.421C200.403 185.85 200.885 186.388 201.249 187.004C201.614 187.62 201.853 188.302 201.954 189.011C202.066 189.784 202.011 190.572 201.792 191.322C201.572 192.072 201.193 192.765 200.681 193.355C200.169 193.945 199.536 194.418 198.824 194.741C198.113 195.064 197.34 195.23 196.559 195.227H196.529ZM196.529 184.867C196.299 184.867 196.069 184.882 195.841 184.911C194.575 185.082 193.426 185.738 192.634 186.741C191.843 187.743 191.471 189.013 191.598 190.284C191.725 191.555 192.34 192.727 193.314 193.554C194.288 194.38 195.545 194.796 196.819 194.713C198.094 194.631 199.287 194.057 200.146 193.113C201.006 192.168 201.466 190.927 201.428 189.65C201.391 188.374 200.859 187.161 199.945 186.269C199.031 185.377 197.807 184.874 196.529 184.867Z" fill="#263238"/>
<path d="M185.984 191.571C186.103 192.407 185.851 193.14 185.414 193.199C184.978 193.258 184.526 192.629 184.408 191.793C184.29 190.957 184.549 190.224 184.985 190.165C185.422 190.106 185.866 190.735 185.984 191.571Z" fill="#263238"/>
<path d="M195.937 190.18C196.056 191.016 195.804 191.741 195.367 191.808C194.931 191.875 194.479 191.238 194.361 190.402C194.243 189.566 194.494 188.833 194.931 188.774C195.367 188.715 195.819 189.314 195.937 190.18Z" fill="#263238"/>
<path d="M190.957 187.331C190.955 189.916 191.116 192.499 191.438 195.064C191.882 197.358 192.333 198.764 190.876 198.986C189.418 199.208 189.44 196.714 189.44 196.714" fill="white"/>
<path d="M190.713 199.275C190.418 199.278 190.132 199.17 189.914 198.971C189.174 198.32 189.174 196.751 189.174 196.707C189.175 196.635 189.205 196.566 189.256 196.515C189.307 196.464 189.375 196.435 189.447 196.433C189.522 196.433 189.593 196.463 189.646 196.515C189.699 196.568 189.729 196.64 189.729 196.714C189.694 197.374 189.89 198.026 190.284 198.557C190.36 198.623 190.45 198.671 190.547 198.698C190.645 198.725 190.747 198.73 190.846 198.712C190.963 198.706 191.077 198.676 191.181 198.624C191.285 198.571 191.378 198.498 191.453 198.409C191.756 197.98 191.549 197.003 191.297 195.76L191.172 195.116C190.846 192.536 190.683 189.939 190.683 187.338C190.683 187.264 190.713 187.192 190.766 187.14C190.818 187.087 190.89 187.057 190.964 187.057C191.001 187.056 191.037 187.063 191.07 187.076C191.104 187.089 191.135 187.11 191.16 187.135C191.186 187.161 191.206 187.191 191.219 187.225C191.233 187.259 191.239 187.295 191.238 187.331C191.238 189.899 191.398 192.464 191.719 195.012L191.845 195.649C192.134 197.077 192.348 198.105 191.904 198.734C191.787 198.885 191.64 199.01 191.471 199.1C191.303 199.191 191.118 199.245 190.927 199.26L190.713 199.275Z" fill="#263238"/>
<path d="M186.665 200.695C186.665 200.695 190.89 203.441 196.13 199.349L186.665 200.695Z" fill="white"/>
<path d="M190.232 201.865C188.938 201.883 187.663 201.561 186.532 200.932C186.501 200.913 186.474 200.887 186.453 200.857C186.432 200.827 186.417 200.793 186.41 200.757C186.402 200.721 186.402 200.684 186.409 200.648C186.416 200.612 186.43 200.578 186.451 200.547C186.469 200.517 186.494 200.49 186.524 200.469C186.553 200.448 186.586 200.433 186.622 200.426C186.657 200.418 186.694 200.418 186.729 200.425C186.764 200.432 186.798 200.446 186.828 200.466C186.998 200.57 190.965 203.041 195.974 199.134C196.003 199.112 196.036 199.095 196.071 199.085C196.106 199.076 196.142 199.073 196.179 199.078C196.215 199.082 196.249 199.094 196.281 199.112C196.313 199.129 196.34 199.153 196.363 199.182C196.385 199.211 196.402 199.244 196.411 199.279C196.421 199.314 196.424 199.35 196.419 199.386C196.415 199.422 196.403 199.457 196.385 199.489C196.367 199.52 196.343 199.548 196.315 199.571C194.608 201.007 192.462 201.816 190.232 201.865Z" fill="#263238"/>
<path d="M190.002 190.469C189.935 190.471 189.87 190.448 189.819 190.404C189.768 190.36 189.736 190.299 189.729 190.232C189.723 190.196 189.725 190.159 189.735 190.124C189.744 190.089 189.76 190.056 189.782 190.027C189.804 189.998 189.831 189.974 189.863 189.955C189.895 189.937 189.929 189.926 189.965 189.921L191.445 189.714C191.482 189.706 191.52 189.707 191.556 189.715C191.593 189.723 191.627 189.739 191.657 189.761C191.687 189.784 191.712 189.812 191.731 189.845C191.749 189.877 191.76 189.913 191.764 189.951C191.772 190.023 191.752 190.096 191.708 190.154C191.664 190.212 191.599 190.25 191.527 190.261L190.047 190.469H190.002Z" fill="#263238"/>
<path d="M178.244 192.267C178.177 192.261 178.114 192.232 178.066 192.184C178.019 192.136 177.991 192.072 177.986 192.005C177.982 191.938 178.002 191.871 178.042 191.818C178.083 191.764 178.141 191.726 178.207 191.712L179.302 191.556C179.372 191.554 179.44 191.577 179.494 191.622C179.548 191.667 179.582 191.731 179.592 191.8C179.601 191.87 179.584 191.94 179.544 191.998C179.504 192.055 179.444 192.096 179.376 192.111L178.288 192.267H178.244Z" fill="#263238"/>
<path d="M201.665 188.937C201.599 188.936 201.535 188.912 201.485 188.868C201.435 188.825 201.402 188.765 201.391 188.7C201.38 188.626 201.399 188.552 201.444 188.492C201.488 188.432 201.554 188.393 201.628 188.382L202.723 188.226C202.793 188.224 202.861 188.247 202.915 188.292C202.969 188.337 203.003 188.401 203.013 188.47C203.022 188.54 203.005 188.61 202.965 188.668C202.925 188.725 202.865 188.766 202.797 188.781L201.709 188.937H201.665Z" fill="#263238"/>
<path d="M181.211 187.479C181.088 187.478 180.966 187.447 180.856 187.39C180.771 187.343 180.696 187.28 180.636 187.204C180.575 187.128 180.53 187.04 180.503 186.947C180.476 186.853 180.468 186.756 180.479 186.659C180.49 186.562 180.52 186.469 180.568 186.384C181.308 185.052 183.587 182.987 187.035 184.674C187.212 184.761 187.347 184.914 187.411 185.1C187.475 185.286 187.462 185.489 187.376 185.666C187.289 185.843 187.136 185.978 186.95 186.042C186.764 186.105 186.561 186.093 186.384 186.006C183.328 184.526 181.944 186.991 181.863 187.094C181.799 187.211 181.704 187.308 181.59 187.376C181.475 187.444 181.344 187.479 181.211 187.479Z" fill="#263238"/>
<path d="M192.866 185.821C192.738 185.822 192.611 185.789 192.499 185.725C192.387 185.662 192.294 185.57 192.228 185.46C192.162 185.349 192.127 185.223 192.124 185.095C192.122 184.966 192.153 184.839 192.215 184.726C192.955 183.394 195.242 181.33 198.683 183.017C198.854 183.105 198.984 183.257 199.044 183.44C199.105 183.623 199.092 183.822 199.009 183.996C198.925 184.169 198.776 184.303 198.595 184.369C198.414 184.435 198.215 184.428 198.039 184.349C194.983 182.869 193.599 185.333 193.51 185.437C193.447 185.552 193.354 185.649 193.241 185.717C193.127 185.784 192.998 185.82 192.866 185.821Z" fill="#263238"/>
<path d="M184.364 194.368C184.298 194.358 184.238 194.324 184.195 194.273C184.152 194.222 184.128 194.158 184.128 194.091C184.128 194.024 184.152 193.96 184.195 193.909C184.238 193.858 184.298 193.824 184.364 193.813L186.791 193.473C186.827 193.467 186.864 193.468 186.9 193.477C186.935 193.485 186.969 193.501 186.998 193.524C187.027 193.546 187.051 193.574 187.069 193.606C187.087 193.638 187.098 193.673 187.102 193.71C187.107 193.746 187.105 193.783 187.096 193.818C187.087 193.853 187.071 193.886 187.048 193.915C187.026 193.944 186.999 193.968 186.967 193.986C186.936 194.004 186.901 194.016 186.865 194.021L184.438 194.368H184.364Z" fill="#263238"/>
<path d="M194.317 192.955C194.25 192.956 194.186 192.932 194.135 192.888C194.085 192.845 194.052 192.784 194.043 192.718C194.032 192.645 194.051 192.57 194.096 192.51C194.14 192.451 194.206 192.411 194.28 192.4L196.707 192.06C196.779 192.049 196.851 192.067 196.91 192.11C196.968 192.153 197.007 192.217 197.018 192.289C197.028 192.363 197.009 192.437 196.965 192.497C196.921 192.557 196.854 192.596 196.781 192.607L194.354 192.948L194.317 192.955Z" fill="#263238"/>
<path d="M242.599 254.228L157.87 266.272L161.998 295.313L246.728 283.27L242.599 254.228Z" fill="#263238"/>
<path d="M213.306 262.85L187.804 266.457L188.011 267.922L213.513 264.315L213.306 262.85Z" fill="white"/>
<path d="M234.817 275.999L170.802 285.051L171.01 286.516L235.024 277.464L234.817 275.999Z" fill="white"/>
<path d="M217.509 266.236L184.718 270.873L184.925 272.338L217.716 267.701L217.509 266.236Z" fill="white"/>
<path d="M179.895 274.092L179.558 274.14L180.38 279.949L180.717 279.902L179.895 274.092Z" fill="#263238"/>
<path d="M183.351 273.606L183.014 273.653L183.836 279.463L184.173 279.415L183.351 273.606Z" fill="#263238"/>
<path d="M184.264 273.381L183.927 273.429L184.753 279.238L185.09 279.19L184.264 273.381Z" fill="#263238"/>
<path d="M185.09 273.265L184.753 273.313L185.579 279.123L185.916 279.075L185.09 273.265Z" fill="#263238"/>
<path d="M186.901 273.005L186.564 273.053L187.39 278.863L187.727 278.815L186.901 273.005Z" fill="#263238"/>
<path d="M187.598 272.908L187.261 272.956L188.087 278.766L188.424 278.718L187.598 272.908Z" fill="#263238"/>
<path d="M181.178 273.907L180.504 274.002L181.325 279.812L181.999 279.717L181.178 273.907Z" fill="#263238"/>
<path d="M190.902 272.434L190.565 272.482L191.391 278.292L191.728 278.244L190.902 272.434Z" fill="#263238"/>
<path d="M192.178 272.255L191.504 272.351L192.329 278.161L193.004 278.065L192.178 272.255Z" fill="#263238"/>
<path d="M183.046 273.55L182.372 273.645L183.197 279.455L183.871 279.359L183.046 273.55Z" fill="#263238"/>
<path d="M186.171 273.2L185.497 273.295L186.319 279.105L186.993 279.01L186.171 273.2Z" fill="#263238"/>
<path d="M189.106 272.697L188.769 272.745L189.595 278.555L189.932 278.507L189.106 272.697Z" fill="#263238"/>
<path d="M189.81 272.593L189.473 272.641L190.299 278.45L190.636 278.403L189.81 272.593Z" fill="#263238"/>
<path d="M188.593 272.769L187.919 272.865L188.745 278.675L189.419 278.579L188.593 272.769Z" fill="#263238"/>
<path d="M193.518 272.075L193.181 272.123L194.007 277.933L194.344 277.885L193.518 272.075Z" fill="#263238"/>
<path d="M196.981 271.578L196.644 271.626L197.469 277.436L197.806 277.388L196.981 271.578Z" fill="#263238"/>
<path d="M197.678 271.475L197.341 271.523L198.167 277.332L198.504 277.284L197.678 271.475Z" fill="#263238"/>
<path d="M198.497 271.359L198.16 271.407L198.985 277.217L199.323 277.169L198.497 271.359Z" fill="#263238"/>
<path d="M200.329 271.091L199.992 271.139L200.818 276.948L201.155 276.901L200.329 271.091Z" fill="#263238"/>
<path d="M200.994 271.013L200.657 271.061L201.484 276.87L201.821 276.822L200.994 271.013Z" fill="#263238"/>
<path d="M194.82 271.864L194.146 271.96L194.972 277.769L195.646 277.673L194.82 271.864Z" fill="#263238"/>
<path d="M204.306 270.538L203.969 270.585L204.796 276.395L205.133 276.347L204.306 270.538Z" fill="#263238"/>
<path d="M205.591 270.349L204.917 270.445L205.743 276.255L206.417 276.159L205.591 270.349Z" fill="#263238"/>
<path d="M196.252 271.774L195.578 271.869L196.399 277.679L197.073 277.583L196.252 271.774Z" fill="#263238"/>
<path d="M199.586 271.304L198.912 271.399L199.733 277.209L200.407 277.113L199.586 271.304Z" fill="#263238"/>
<path d="M202.535 270.79L202.198 270.838L203.024 276.648L203.361 276.6L202.535 270.79Z" fill="#263238"/>
<path d="M203.224 270.679L202.887 270.727L203.713 276.537L204.05 276.489L203.224 270.679Z" fill="#263238"/>
<path d="M202.006 270.863L201.332 270.959L202.158 276.768L202.832 276.673L202.006 270.863Z" fill="#263238"/>
<path d="M206.543 270.216L206.206 270.264L207.032 276.074L207.369 276.026L206.543 270.216Z" fill="#263238"/>
<path d="M207.241 270.113L206.904 270.161L207.729 275.971L208.066 275.923L207.241 270.113Z" fill="#263238"/>
<path d="M210.546 269.645L210.209 269.693L211.035 275.503L211.372 275.455L210.546 269.645Z" fill="#263238"/>
<path d="M211.814 269.467L211.14 269.563L211.966 275.373L212.64 275.277L211.814 269.467Z" fill="#263238"/>
<path d="M208.764 269.893L208.427 269.941L209.253 275.751L209.59 275.703L208.764 269.893Z" fill="#263238"/>
<path d="M209.447 269.805L209.11 269.853L209.935 275.663L210.272 275.615L209.447 269.805Z" fill="#263238"/>
<path d="M208.036 270.112L207.362 270.207L208.183 276.016L208.857 275.921L208.036 270.112Z" fill="#263238"/>
<path d="M212.961 269.414L212.624 269.462L213.446 275.271L213.783 275.224L212.961 269.414Z" fill="#263238"/>
<path d="M216.418 268.935L216.081 268.983L216.902 274.792L217.239 274.745L216.418 268.935Z" fill="#263238"/>
<path d="M217.314 268.694L216.977 268.742L217.803 274.552L218.14 274.504L217.314 268.694Z" fill="#263238"/>
<path d="M218.148 268.57L217.811 268.618L218.636 274.428L218.973 274.38L218.148 268.57Z" fill="#263238"/>
<path d="M219.958 268.31L219.621 268.358L220.447 274.168L220.784 274.12L219.958 268.31Z" fill="#263238"/>
<path d="M220.448 268.354L220.111 268.402L220.933 274.211L221.27 274.164L220.448 268.354Z" fill="#263238"/>
<path d="M214.455 269.072L213.781 269.168L214.607 274.978L215.281 274.882L214.455 269.072Z" fill="#263238"/>
<path d="M223.96 267.731L223.623 267.779L224.448 273.589L224.785 273.541L223.96 267.731Z" fill="#263238"/>
<path d="M225.227 267.561L224.553 267.657L225.379 273.467L226.053 273.371L225.227 267.561Z" fill="#263238"/>
<path d="M216.103 268.855L215.428 268.95L216.254 274.76L216.928 274.664L216.103 268.855Z" fill="#263238"/>
<path d="M219.237 268.529L218.563 268.625L219.385 274.434L220.059 274.339L219.237 268.529Z" fill="#263238"/>
<path d="M222.17 267.995L221.833 268.043L222.659 273.852L222.996 273.804L222.17 267.995Z" fill="#263238"/>
<path d="M222.857 267.912L222.52 267.96L223.346 273.769L223.683 273.721L222.857 267.912Z" fill="#263238"/>
<path d="M221.656 268.067L220.982 268.162L221.808 273.972L222.482 273.876L221.656 268.067Z" fill="#263238"/>
<path d="M180.464 122.574C180.326 122.575 180.19 122.557 180.057 122.522C179.87 122.469 179.695 122.38 179.542 122.259C179.39 122.139 179.262 121.989 179.167 121.82C179.073 121.65 179.012 121.463 178.99 121.27C178.967 121.077 178.983 120.881 179.036 120.694C179.117 120.405 181.13 113.442 189.314 102.083C189.544 101.764 189.891 101.549 190.279 101.486C190.667 101.423 191.064 101.517 191.383 101.746C191.701 101.976 191.916 102.323 191.979 102.711C192.042 103.099 191.949 103.496 191.719 103.815C183.883 114.693 181.907 121.434 181.885 121.501C181.796 121.809 181.61 122.081 181.354 122.275C181.097 122.468 180.785 122.573 180.464 122.574Z" fill="#263238"/>
</svg>
