<svg width="262" height="262" viewBox="0 0 262 262" fill="none" xmlns="http://www.w3.org/2000/svg">
<path d="M229.464 77.6047H26.6592V214.923H229.464V77.6047Z" fill="white" stroke="#263238" stroke-linecap="round" stroke-linejoin="round"/>
<path d="M227.335 81.5776H158.86V194.101H227.335V81.5776Z" fill="white" stroke="#263238" stroke-linecap="round" stroke-linejoin="round"/>
<path d="M97.3321 81.5776H28.8569V194.101H97.3321V81.5776Z" fill="white" stroke="#263238" stroke-linecap="round" stroke-linejoin="round"/>
<path d="M227.335 117.93L158.86 141.85V81.5706H227.335V117.93Z" fill="#263238" stroke="#263238" stroke-linecap="round" stroke-linejoin="round"/>
<path d="M97.3321 117.93L28.8569 146.357V81.5706H97.3321V117.93Z" fill="#263238" stroke="#263238" stroke-linecap="round" stroke-linejoin="round"/>
<path d="M156.052 77.6047H100.071V214.923H156.052V77.6047Z" fill="#9EC5AB" stroke="#263238" stroke-linecap="round" stroke-linejoin="round"/>
<path d="M103.24 152.597H152.883V209.736H103.24V152.597ZM103.24 82.784V139.923H152.883V82.784H103.24Z" fill="white" stroke="#263238" stroke-linecap="round" stroke-linejoin="round"/>
<path d="M152.883 203.219V196.181L118.008 209.736H135.834L152.883 203.219Z" fill="#263238"/>
<path d="M103.24 123.324L152.883 101.657V82.784H103.24V123.324Z" fill="#263238"/>
<path d="M132.929 139.923L152.883 132.296V125.987L117.023 139.923H132.929Z" fill="#263238"/>
<path d="M103.24 201.319L152.883 180.955V152.597H103.24V201.319Z" fill="#263238"/>
<path d="M232.963 80.2186H23.8276L44.739 43.1868H212.051L232.963 80.2186Z" fill="#9EC5AB" stroke="#263238" stroke-linecap="round" stroke-linejoin="round"/>
<path d="M23.8302 80.3157C23.8302 80.5722 23.7886 80.8288 23.7886 81.0853C23.7508 82.6311 24.0226 84.1688 24.588 85.608C25.1535 87.0471 26.0011 88.3586 27.081 89.4653C28.1609 90.5719 29.4513 91.4514 30.8762 92.0518C32.3011 92.6523 33.8317 92.9616 35.378 92.9616C36.9242 92.9616 38.4548 92.6523 39.8797 92.0518C41.3046 91.4514 42.595 90.5719 43.6749 89.4653C44.7549 88.3586 45.6025 87.0471 46.1679 85.608C46.7333 84.1688 47.0051 82.6311 46.9673 81.0853C46.9673 80.8288 46.9673 80.5722 46.9326 80.3157H23.8302Z" fill="white" stroke="#263238" stroke-linecap="round" stroke-linejoin="round"/>
<path d="M47.0573 80.3157C47.0573 80.5722 47.0157 80.8288 47.0157 81.0853C46.9779 82.6311 47.2497 84.1688 47.8151 85.608C48.3805 87.0471 49.2281 88.3586 50.308 89.4653C51.3879 90.5719 52.6783 91.4514 54.1032 92.0518C55.5281 92.6523 57.0588 92.9616 58.605 92.9616C60.1512 92.9616 61.6819 92.6523 63.1068 92.0518C64.5317 91.4514 65.8221 90.5719 66.902 89.4653C67.9819 88.3586 68.8295 87.0471 69.3949 85.608C69.9603 84.1688 70.2321 82.6311 70.1943 81.0853C70.1943 80.8288 70.1943 80.5722 70.1597 80.3157H47.0573Z" fill="#9EC5AB" stroke="#263238" stroke-linecap="round" stroke-linejoin="round"/>
<path d="M70.2848 80.3157C70.2848 80.5722 70.2432 80.8288 70.2432 81.0853C70.2054 82.6311 70.4772 84.1688 71.0426 85.608C71.6081 87.0471 72.4557 88.3586 73.5356 89.4653C74.6155 90.5719 75.9059 91.4514 77.3308 92.0518C78.7557 92.6523 80.2863 92.9616 81.8325 92.9616C83.3788 92.9616 84.9094 92.6523 86.3343 92.0518C87.7592 91.4514 89.0496 90.5719 90.1295 89.4653C91.2094 88.3586 92.057 87.0471 92.6225 85.608C93.1879 84.1688 93.4597 82.6311 93.4219 81.0853C93.4219 80.8288 93.4219 80.5722 93.3872 80.3157H70.2848Z" fill="white" stroke="#263238" stroke-linecap="round" stroke-linejoin="round"/>
<path d="M93.5119 80.3157C93.5119 80.5722 93.4703 80.8288 93.4703 81.0853C93.4325 82.6311 93.7043 84.1688 94.2697 85.608C94.8351 87.0471 95.6827 88.3586 96.7626 89.4653C97.8425 90.5719 99.1329 91.4514 100.558 92.0518C101.983 92.6523 103.513 92.9616 105.06 92.9616C106.606 92.9616 108.136 92.6523 109.561 92.0518C110.986 91.4514 112.277 90.5719 113.357 89.4653C114.436 88.3586 115.284 87.0471 115.85 85.608C116.415 84.1688 116.687 82.6311 116.649 81.0853C116.649 80.8288 116.649 80.5722 116.614 80.3157H93.5119Z" fill="#9EC5AB" stroke="#263238" stroke-linecap="round" stroke-linejoin="round"/>
<path d="M116.739 80.3157C116.739 80.5722 116.698 80.8288 116.698 81.0853C116.66 82.6311 116.932 84.1688 117.497 85.608C118.062 87.0471 118.91 88.3586 119.99 89.4653C121.07 90.5719 122.36 91.4514 123.785 92.0518C125.21 92.6523 126.741 92.9616 128.287 92.9616C129.833 92.9616 131.364 92.6523 132.789 92.0518C134.214 91.4514 135.504 90.5719 136.584 89.4653C137.664 88.3586 138.511 87.0471 139.077 85.608C139.642 84.1688 139.914 82.6311 139.876 81.0853C139.876 80.8288 139.876 80.5722 139.842 80.3157H116.739Z" fill="white" stroke="#263238" stroke-linecap="round" stroke-linejoin="round"/>
<path d="M139.966 80.3157C139.966 80.5722 139.925 80.8288 139.925 81.0853C139.887 82.6311 140.159 84.1688 140.724 85.608C141.289 87.0471 142.137 88.3586 143.217 89.4653C144.297 90.5719 145.587 91.4514 147.012 92.0518C148.437 92.6523 149.968 92.9616 151.514 92.9616C153.06 92.9616 154.591 92.6523 156.016 92.0518C157.441 91.4514 158.731 90.5719 159.811 89.4653C160.891 88.3586 161.738 87.0471 162.304 85.608C162.869 84.1688 163.141 82.6311 163.103 81.0853C163.103 80.8288 163.103 80.5722 163.069 80.3157H139.966Z" fill="#9EC5AB" stroke="#263238" stroke-linecap="round" stroke-linejoin="round"/>
<path d="M163.194 80.3157C163.194 80.5722 163.152 80.8288 163.152 81.0853C163.114 82.6311 163.386 84.1688 163.951 85.608C164.517 87.0471 165.364 88.3586 166.444 89.4653C167.524 90.5719 168.815 91.4514 170.239 92.0518C171.664 92.6523 173.195 92.9616 174.741 92.9616C176.287 92.9616 177.818 92.6523 179.243 92.0518C180.668 91.4514 181.958 90.5719 183.038 89.4653C184.118 88.3586 184.966 87.0471 185.531 85.608C186.097 84.1688 186.368 82.6311 186.331 81.0853C186.331 80.8288 186.331 80.5722 186.296 80.3157H163.194Z" fill="white" stroke="#263238" stroke-linecap="round" stroke-linejoin="round"/>
<path d="M186.421 80.3157C186.421 80.5722 186.379 80.8288 186.379 81.0853C186.341 82.6311 186.613 84.1688 187.179 85.608C187.744 87.0471 188.592 88.3586 189.672 89.4653C190.751 90.5719 192.042 91.4514 193.467 92.0518C194.892 92.6523 196.422 92.9616 197.969 92.9616C199.515 92.9616 201.045 92.6523 202.47 92.0518C203.895 91.4514 205.186 90.5719 206.265 89.4653C207.345 88.3586 208.193 87.0471 208.758 85.608C209.324 84.1688 209.596 82.6311 209.558 81.0853C209.558 80.8288 209.558 80.5722 209.523 80.3157H186.421Z" fill="#9EC5AB" stroke="#263238" stroke-linecap="round" stroke-linejoin="round"/>
<path d="M209.648 80.3157C209.648 80.5722 209.606 80.8288 209.606 81.0853C209.568 82.6311 209.84 84.1688 210.406 85.608C210.971 87.0471 211.819 88.3586 212.899 89.4653C213.979 90.5719 215.269 91.4514 216.694 92.0518C218.119 92.6523 219.649 92.9616 221.196 92.9616C222.742 92.9616 224.272 92.6523 225.697 92.0518C227.122 91.4514 228.413 90.5719 229.493 89.4653C230.572 88.3586 231.42 87.0471 231.986 85.608C232.551 84.1688 232.823 82.6311 232.785 81.0853C232.785 80.8288 232.785 80.5722 232.75 80.3157H209.648Z" fill="white" stroke="#263238" stroke-linecap="round" stroke-linejoin="round"/>
<path d="M111.373 108.417L128.117 99.4036L144.75 108.417" stroke="white" stroke-linecap="round" stroke-linejoin="round"/>
<path d="M129.753 99.4036C129.753 99.08 129.657 98.7636 129.478 98.4945C129.298 98.2254 129.042 98.0157 128.743 97.8919C128.444 97.768 128.115 97.7356 127.798 97.7987C127.48 97.8619 127.189 98.0177 126.96 98.2466C126.731 98.4754 126.575 98.767 126.512 99.0844C126.449 99.4018 126.481 99.7308 126.605 100.03C126.729 100.329 126.939 100.584 127.208 100.764C127.477 100.944 127.793 101.04 128.117 101.04C128.551 101.04 128.967 100.868 129.274 100.561C129.581 100.254 129.753 99.8376 129.753 99.4036Z" fill="white" stroke="#263238" stroke-linecap="round" stroke-linejoin="round"/>
<path d="M144.75 108.417H111.373V124.933H144.75V108.417Z" fill="#9EC5AB" stroke="#263238" stroke-linecap="round" stroke-linejoin="round"/>
<path d="M119.529 117.547C119.529 118.26 119.409 118.882 119.17 119.415C118.93 119.944 118.59 120.349 118.151 120.629C117.711 120.908 117.199 121.048 116.613 121.048C116.04 121.048 115.532 120.908 115.09 120.629C114.647 120.346 114.302 119.944 114.056 119.425C113.813 118.902 113.688 118.298 113.681 117.612V117.088C113.681 116.389 113.803 115.771 114.046 115.235C114.289 114.699 114.632 114.29 115.075 114.007C115.521 113.72 116.03 113.577 116.603 113.577C117.185 113.577 117.698 113.719 118.141 114.002C118.587 114.281 118.93 114.689 119.17 115.225C119.409 115.758 119.529 116.379 119.529 117.088V117.547ZM118.575 117.078C118.575 116.216 118.402 115.555 118.056 115.095C117.71 114.633 117.225 114.401 116.603 114.401C115.997 114.401 115.519 114.633 115.169 115.095C114.823 115.555 114.645 116.194 114.635 117.013V117.547C114.635 118.383 114.81 119.04 115.159 119.52C115.512 119.996 115.997 120.234 116.613 120.234C117.232 120.234 117.711 120.009 118.051 119.56C118.39 119.107 118.565 118.46 118.575 117.617V117.078ZM121.926 118.102V120.948H120.967V113.677H123.649C124.445 113.677 125.067 113.88 125.517 114.286C125.969 114.693 126.196 115.23 126.196 115.899C126.196 116.605 125.974 117.149 125.532 117.532C125.092 117.912 124.461 118.102 123.639 118.102H121.926ZM121.926 117.318H123.649C124.162 117.318 124.555 117.198 124.828 116.958C125.101 116.715 125.237 116.365 125.237 115.909C125.237 115.477 125.101 115.13 124.828 114.871C124.555 114.611 124.18 114.476 123.704 114.466H121.926V117.318ZM131.529 117.587H128.378V120.164H132.039V120.948H127.419V113.677H131.989V114.466H128.378V116.803H131.529V117.587ZM138.82 120.948H137.856L134.196 115.345V120.948H133.232V113.677H134.196L137.866 119.305V113.677H138.82V120.948ZM118.046 129.587H114.895V132.164H118.555V132.948H113.936V125.677H118.505V126.466H114.895V128.803H118.046V129.587ZM119.749 132.948V125.677H121.801C122.434 125.677 122.993 125.817 123.479 126.097C123.965 126.376 124.34 126.774 124.603 127.29C124.869 127.806 125.004 128.399 125.007 129.068V129.532C125.007 130.218 124.874 130.819 124.608 131.335C124.345 131.851 123.967 132.247 123.474 132.524C122.985 132.8 122.414 132.941 121.761 132.948H119.749ZM120.708 126.466V132.164H121.716C122.455 132.164 123.03 131.934 123.439 131.475C123.852 131.016 124.058 130.361 124.058 129.512V129.088C124.058 128.262 123.864 127.621 123.474 127.165C123.088 126.706 122.539 126.473 121.826 126.466H120.708Z" fill="#263238"/>
<path d="M150.859 150.434C152.735 150.434 154.256 148.913 154.256 147.037C154.256 145.16 152.735 143.639 150.859 143.639C148.982 143.639 147.461 145.16 147.461 147.037C147.461 148.913 148.982 150.434 150.859 150.434Z" fill="white" stroke="#263238" stroke-linecap="round" stroke-linejoin="round"/>
<path d="M150.859 147.903C151.338 147.903 151.726 147.515 151.726 147.037C151.726 146.558 151.338 146.17 150.859 146.17C150.38 146.17 149.992 146.558 149.992 147.037C149.992 147.515 150.38 147.903 150.859 147.903Z" fill="white" stroke="#263238" stroke-linecap="round" stroke-linejoin="round"/>
<path d="M253.766 218.584H2.32965C2.02438 218.585 1.72175 218.527 1.43918 218.411C1.15661 218.296 0.899684 218.125 0.683172 217.91C0.46666 217.695 0.294841 217.439 0.177596 217.157C0.0603503 216.875 -5.47134e-06 216.573 1.90147e-09 216.268C-1.2374e-05 215.963 0.0603881 215.661 0.177717 215.379C0.295047 215.098 0.46698 214.842 0.683585 214.628C0.900189 214.413 1.15717 214.243 1.4397 214.129C1.72223 214.014 2.02471 213.956 2.32965 213.959H253.766C254.378 213.959 254.966 214.202 255.399 214.635C255.832 215.068 256.075 215.655 256.075 216.268C256.075 216.881 255.832 217.469 255.399 217.903C254.966 218.337 254.379 218.582 253.766 218.584Z" fill="#263238"/>
<path d="M40.5056 108.272V112.945H39.0426V107.821C39.0435 107.533 38.9876 107.247 38.8779 106.98C38.7682 106.714 38.6069 106.471 38.4034 106.267C38.1998 106.063 37.958 105.901 37.6917 105.79C37.4254 105.68 37.14 105.623 36.8517 105.623C36.2687 105.623 35.7097 105.855 35.2975 106.267C34.8853 106.679 34.6537 107.238 34.6537 107.821V114.186H33.267V110.809C33.267 110.391 33.1014 109.99 32.8065 109.694C32.5115 109.398 32.1112 109.23 31.6931 109.228C31.2739 109.228 30.8718 109.395 30.5753 109.691C30.2789 109.988 30.1123 110.39 30.1123 110.809V115.989C30.1141 116.258 30.2223 116.515 30.4133 116.705C30.6042 116.894 30.8624 117.001 31.1315 117.001H34.5983V120.828H38.9872V115.871H42.031C42.3583 115.871 42.6722 115.741 42.9037 115.509C43.1351 115.278 43.2651 114.964 43.2651 114.637V108.272C43.2651 107.904 43.119 107.551 42.859 107.291C42.5989 107.031 42.2462 106.885 41.8784 106.885C41.5131 106.889 41.1639 107.036 40.9068 107.296C40.6498 107.556 40.5056 107.906 40.5056 108.272Z" fill="#9EC5AB"/>
<path d="M40.7551 120.523H33.0381V127.678H40.7551V120.523Z" fill="white" stroke="#263238" stroke-linecap="round" stroke-linejoin="round"/>
<path d="M41.2054 118.824H32.5732V121.126H41.2054V118.824Z" fill="white" stroke="#263238" stroke-linecap="round" stroke-linejoin="round"/>
<path d="M38.3282 147.099L35.5132 142.599L37.3922 142.786L37.205 140.159L39.2711 142.786L39.4583 134.716L40.956 139.971L42.835 133.211L43.3966 141.095L47.1545 137.156L44.5267 143.348L47.1545 142.412L42.0861 148.042L38.3282 147.099Z" fill="#9EC5AB"/>
<path d="M44.61 147.709H36.8931V154.865H44.61V147.709Z" fill="white" stroke="#263238" stroke-linecap="round" stroke-linejoin="round"/>
<path d="M45.0677 146.018H36.4355V148.319H45.0677V146.018Z" fill="white" stroke="#263238" stroke-linecap="round" stroke-linejoin="round"/>
<path d="M78.3069 147.099L75.4919 142.599L77.364 142.786L77.1768 140.159L79.243 142.786L79.4302 134.716L80.9278 139.971L82.8068 133.211L83.3684 141.095L87.1264 137.156L84.4985 143.348L87.1264 142.412L82.058 148.042L78.3069 147.099Z" fill="#9EC5AB"/>
<path d="M84.5817 147.709H76.8647V154.865H84.5817V147.709Z" fill="white" stroke="#263238" stroke-linecap="round" stroke-linejoin="round"/>
<path d="M85.0392 146.018H76.407V148.319H85.0392V146.018Z" fill="white" stroke="#263238" stroke-linecap="round" stroke-linejoin="round"/>
<path d="M58.7889 146.163C57.466 146.143 56.1468 146.018 54.8438 145.789C52.7637 145.414 52.4032 144.097 53.3462 143.709C54.2891 143.32 57.4716 143.896 57.4716 143.896C57.4716 143.896 53.3462 143.896 52.7845 141.455C52.2229 139.015 54.2822 139.202 54.8646 139.77C55.447 140.339 56.9446 141.455 56.9446 141.455C56.9446 141.455 53.7552 138.266 53.7552 136.387C53.7552 134.508 55.8353 134.702 56.383 135.825C56.9308 136.948 58.262 140.332 58.262 140.332C58.262 140.332 56.182 134.328 58.8236 135.264C61.4653 136.2 60.9037 139.015 60.9037 139.583V142.017C60.9037 142.017 63.5315 136.955 64.4744 138.079C65.4174 139.202 63.1571 141.268 63.1571 141.268C63.1571 141.268 64.4744 136.415 67.6638 136.574C70.8532 136.734 67.851 139.015 67.2894 139.958C66.7278 140.901 64.2872 142.96 64.2872 142.96C64.2872 142.96 69.73 140.519 72.3509 140.519C74.9717 140.519 72.545 143.521 71.0405 143.709C69.5359 143.896 66.7209 144.27 66.7209 144.27C66.7209 144.27 70.4788 145.962 68.9743 146.35C67.4697 146.739 63.7187 145.976 63.7187 145.976L58.7889 146.163Z" fill="#9EC5AB"/>
<path d="M64.8767 147.709H57.1597V154.865H64.8767V147.709Z" fill="white" stroke="#263238" stroke-linecap="round" stroke-linejoin="round"/>
<path d="M65.3344 146.018H56.7021V148.319H65.3344V146.018Z" fill="white" stroke="#263238" stroke-linecap="round" stroke-linejoin="round"/>
<path d="M70.4024 111.53V114.997H71.484V111.197C71.4859 110.767 71.6583 110.354 71.9637 110.05C72.2691 109.746 72.6825 109.575 73.1134 109.575C73.5437 109.575 73.9564 109.746 74.2606 110.05C74.5649 110.355 74.7358 110.767 74.7358 111.197V115.912H75.7412V113.423C75.7412 113.114 75.8639 112.818 76.0824 112.599C76.3008 112.381 76.5971 112.258 76.906 112.258C77.2156 112.258 77.5126 112.381 77.7322 112.599C77.9517 112.817 78.076 113.114 78.0778 113.423V117.264C78.076 117.464 77.9955 117.654 77.854 117.794C77.7125 117.934 77.5213 118.013 77.322 118.013H74.7358V120.849H71.484V117.181H69.2307C68.9873 117.179 68.7545 117.081 68.5831 116.909C68.4116 116.736 68.3154 116.502 68.3154 116.259V111.551C68.3154 111.275 68.4248 111.009 68.6196 110.813C68.8145 110.617 69.079 110.506 69.3555 110.504C69.629 110.506 69.8912 110.614 70.0866 110.805C70.282 110.997 70.3952 111.257 70.4024 111.53Z" fill="#9EC5AB"/>
<path d="M76.6149 120.523H68.8979V127.678H76.6149V120.523Z" fill="white" stroke="#263238" stroke-linecap="round" stroke-linejoin="round"/>
<path d="M77.0658 118.824H68.4336V121.126H77.0658V118.824Z" fill="white" stroke="#263238" stroke-linecap="round" stroke-linejoin="round"/>
<path d="M40.6094 165.986V169.453H41.6911V165.653C41.6911 165.223 41.862 164.81 42.1663 164.506C42.4705 164.202 42.8832 164.031 43.3135 164.031C43.7444 164.031 44.1578 164.201 44.4632 164.506C44.7686 164.81 44.941 165.222 44.9429 165.653V170.368H45.9413V167.865C45.9431 167.555 46.0674 167.259 46.2869 167.041C46.5065 166.823 46.8035 166.7 47.1131 166.7C47.422 166.7 47.7183 166.823 47.9367 167.041C48.1552 167.26 48.2779 167.556 48.2779 167.865V171.699C48.2788 171.798 48.2601 171.896 48.2229 171.988C48.1857 172.08 48.1307 172.163 48.061 172.233C47.9914 172.303 47.9085 172.359 47.8172 172.397C47.7259 172.435 47.628 172.455 47.5291 172.455H44.9429V175.291H41.6911V171.616H39.4377C39.1949 171.616 38.9622 171.52 38.7905 171.348C38.6189 171.176 38.5225 170.943 38.5225 170.701V165.986C38.5225 165.71 38.632 165.446 38.8271 165.251C39.0221 165.056 39.2867 164.946 39.5625 164.946C39.839 164.946 40.1042 165.055 40.3004 165.25C40.4965 165.445 40.6076 165.709 40.6094 165.986Z" fill="#9EC5AB"/>
<path d="M46.8151 174.979H39.0981V182.134H46.8151V174.979Z" fill="white" stroke="#263238" stroke-linecap="round" stroke-linejoin="round"/>
<path d="M47.2723 173.287H38.6401V175.589H47.2723V173.287Z" fill="white" stroke="#263238" stroke-linecap="round" stroke-linejoin="round"/>
<path d="M78.8754 165.986V169.453H79.964V165.653C79.964 165.223 80.1349 164.81 80.4392 164.506C80.7434 164.202 81.1561 164.031 81.5864 164.031C82.0173 164.031 82.4307 164.201 82.7361 164.506C83.0415 164.81 83.2139 165.222 83.2158 165.653V170.368H84.2142V167.865C84.216 167.555 84.3403 167.259 84.5598 167.041C84.7794 166.823 85.0764 166.7 85.3859 166.7C85.6949 166.7 85.9912 166.823 86.2096 167.041C86.428 167.26 86.5508 167.556 86.5508 167.865V171.699C86.5517 171.798 86.533 171.896 86.4958 171.988C86.4585 172.08 86.4035 172.163 86.3339 172.233C86.2643 172.303 86.1814 172.359 86.0901 172.397C85.9988 172.435 85.9009 172.455 85.802 172.455H83.2019V175.291H79.9501V171.616H77.6967C77.454 171.616 77.2212 171.52 77.0496 171.348C76.8779 171.176 76.7815 170.943 76.7815 170.701V165.986C76.7815 165.71 76.8911 165.446 77.0861 165.251C77.2811 165.056 77.5457 164.946 77.8215 164.946C77.9593 164.944 78.096 164.97 78.2238 165.021C78.3516 165.073 78.4679 165.149 78.5659 165.246C78.664 165.342 78.7418 165.458 78.7949 165.585C78.8481 165.712 78.8754 165.848 78.8754 165.986Z" fill="#9EC5AB"/>
<path d="M85.0878 174.979H77.3708V182.134H85.0878V174.979Z" fill="white" stroke="#263238" stroke-linecap="round" stroke-linejoin="round"/>
<path d="M85.5453 173.287H76.9131V175.589H85.5453V173.287Z" fill="white" stroke="#263238" stroke-linecap="round" stroke-linejoin="round"/>
<path d="M59.2538 174.833C58.5264 173.642 57.6189 172.571 56.5636 171.658C54.858 170.188 54.3657 166.769 54.3657 166.769C54.3657 166.769 55.1007 166.527 56.5636 167.99C57.5309 169.011 58.3522 170.161 59.0042 171.408C58.5499 169.561 58.2233 167.684 58.0266 165.792C58.0266 164.329 60.4741 160.668 60.4741 160.668C60.8322 161.945 61.0759 163.251 61.2022 164.572V170.188C62.0857 168.467 63.2424 166.9 64.6273 165.549C66.0634 164.416 67.7145 163.586 69.4807 163.109C69.4807 163.109 69.7234 166.041 68.7458 167.012C67.7682 167.983 63.6219 171.408 63.6219 171.408L69.2381 170.437L63.6219 173.856C63.6219 173.856 62.568 175.242 61.6667 174.833C60.876 174.624 60.0446 174.624 59.2538 174.833Z" fill="#9EC5AB"/>
<path d="M64.6476 174.979H56.9307V182.134H64.6476V174.979Z" fill="white" stroke="#263238" stroke-linecap="round" stroke-linejoin="round"/>
<path d="M65.1054 173.287H56.4731V175.589H65.1054V173.287Z" fill="white" stroke="#263238" stroke-linecap="round" stroke-linejoin="round"/>
<path d="M83.3684 118.97C83.3684 118.97 80.9347 116.89 80.179 116.155C79.4232 115.42 77.5512 113.34 79.0558 114.075C80.1726 114.682 81.2391 115.378 82.2452 116.155C82.2452 116.155 80.9347 112.217 80.9347 111.087C80.9347 109.956 82.8068 110.712 83.7497 112.591C84.6927 114.47 85.2474 115.781 85.2474 115.781C85.2474 115.781 83.5556 108.272 85.0602 107.897C86.5647 107.523 86.9391 112.751 86.9391 112.751C86.9391 112.751 88.2496 103.557 90.1286 105.616C92.0075 107.675 88.8112 113.125 88.8112 113.125C88.8112 113.125 92.5691 110.497 91.8134 112.563C91.5567 113.197 91.1753 113.773 90.6917 114.257C90.2081 114.74 89.6323 115.122 88.9984 115.378C88.9984 115.378 94.4412 114.061 92.9436 116.127C91.4459 118.193 86.5647 119.885 86.5647 119.885L83.3684 118.97Z" fill="#9EC5AB"/>
<path d="M89.9204 120.523H82.2034V127.678H89.9204V120.523Z" fill="white" stroke="#263238" stroke-linecap="round" stroke-linejoin="round"/>
<path d="M90.3781 118.824H81.7458V121.126H90.3781V118.824Z" fill="white" stroke="#263238" stroke-linecap="round" stroke-linejoin="round"/>
<path d="M53.3463 118.97C53.3463 118.97 50.9057 116.89 50.1569 116.155C49.408 115.42 47.5291 113.34 49.0267 114.075C50.1446 114.68 51.2113 115.376 52.2161 116.155C52.2161 116.155 50.9057 112.217 50.9057 111.087C50.9057 109.956 52.7847 110.712 53.7207 112.591C54.6567 114.47 55.2183 115.781 55.2183 115.781C55.2183 115.781 53.5335 108.272 55.0311 107.897C56.5287 107.523 56.9101 112.751 56.9101 112.751C56.9101 112.751 58.2274 103.557 60.0995 105.616C61.9715 107.675 58.7891 113.125 58.7891 113.125C58.7891 113.125 62.5401 110.497 61.7913 112.563C61.5336 113.197 61.1518 113.772 60.6683 114.255C60.1849 114.739 59.6096 115.121 58.9763 115.378C58.9763 115.378 64.4191 114.061 62.9145 116.127C61.4099 118.193 56.5357 119.885 56.5357 119.885L53.3463 118.97Z" fill="#9EC5AB"/>
<path d="M59.8913 120.523H52.1743V127.678H59.8913V120.523Z" fill="white" stroke="#263238" stroke-linecap="round" stroke-linejoin="round"/>
<path d="M60.349 118.824H51.7168V121.126H60.349V118.824Z" fill="white" stroke="#263238" stroke-linecap="round" stroke-linejoin="round"/>
<path d="M97.7622 127.29H29.1206V130.757H97.7622V127.29Z" fill="#9EC5AB" stroke="#263238" stroke-linecap="round" stroke-linejoin="round"/>
<path d="M97.7622 154.622H29.1206V158.089H97.7622V154.622Z" fill="#9EC5AB" stroke="#263238" stroke-linecap="round" stroke-linejoin="round"/>
<path d="M97.7622 181.954H29.1206V185.421H97.7622V181.954Z" fill="#9EC5AB" stroke="#263238" stroke-linecap="round" stroke-linejoin="round"/>
<path d="M31.5473 127.29H29.1206V214.992H31.5473V127.29Z" fill="#9EC5AB" stroke="#263238" stroke-linecap="round" stroke-linejoin="round"/>
<path d="M97.7622 127.29H95.3354V214.992H97.7622V127.29Z" fill="#9EC5AB" stroke="#263238" stroke-linecap="round" stroke-linejoin="round"/>
<path d="M196.405 195.467C194.849 193.075 193.76 190.409 193.195 187.612C192.504 184.235 192 180.823 191.683 177.392C191.302 173.987 190.546 168.447 190.546 168.447C190.546 168.447 194.325 173.557 194.894 175.901C195.462 178.244 196.405 180.796 196.786 183.777C197.168 186.759 197.729 188.672 197.917 189.955C198.104 191.238 198.111 194.42 198.111 194.42C198.111 194.42 198.298 184.845 197.729 180.373C197.161 175.901 196.599 172.282 196.786 168.877C196.974 165.473 196.974 164.835 197.161 162.706C197.348 160.578 197.542 156.529 197.542 156.529C197.542 156.529 199.809 163.552 200.752 168.024C201.695 172.497 201.321 173.987 201.702 177.814C202.084 181.642 202.271 182.502 201.89 184.415C201.508 186.329 201.702 186.544 201.134 189.102C200.951 190.2 200.634 191.271 200.191 192.292C200.191 192.292 202.832 185.483 203.588 181.891C204.184 179.035 205.072 176.247 206.237 173.571C206.762 172.312 207.395 171.101 208.13 169.952L211.153 164.849C211.153 164.849 211.34 172.51 210.397 175.249C209.454 177.988 209.073 180.144 207.936 182.703C207.1 184.445 206.588 186.324 206.424 188.249C206.237 189.955 206.237 191.439 205.481 192.507C204.725 193.574 204.538 195.058 203.97 195.696C203.512 196.175 203.005 196.605 202.458 196.979C202.458 196.979 206.993 189.955 208.13 188.249C209.267 186.544 209.26 186.121 210.965 185.053C212.671 183.985 213.607 183.354 213.607 183.354C213.607 183.354 210.21 191.016 209.26 192.507C208.31 193.997 207.748 195.911 206.424 196.979C205.685 197.565 204.989 198.204 204.344 198.892H193.195C193.195 198.892 190.928 195.911 190.546 193.144C190.165 190.378 189.978 187.598 189.978 187.598C191.041 188.463 192.052 189.389 193.008 190.371C193.951 191.418 196.405 195.467 196.405 195.467Z" fill="#9EC5AB"/>
<path d="M209.828 198.719H190.574V214.916H209.828V198.719Z" fill="white" stroke="#263238" stroke-linecap="round" stroke-linejoin="round"/>
<path d="M210.979 196.583H189.43V200.099H210.979V196.583Z" fill="white" stroke="#263238" stroke-linecap="round" stroke-linejoin="round"/>
<path d="M218.578 143.931C220.717 143.288 222.524 141.842 223.619 139.895C224.678 138.029 225.041 135.847 224.645 133.738C224.645 133.738 219.986 135.721 218.793 138.432C218.325 139.528 218.089 140.708 218.1 141.899C216.325 138.529 208.927 136.304 208.927 136.304C208.927 136.304 209.988 142.266 212.331 144.18C214.078 145.608 216.29 147.155 217.309 147.848V153.124C216.296 151.611 214.862 150.427 213.184 149.72C210.411 148.652 205.73 150.566 205.73 150.566C206.947 152.344 208.759 153.628 210.84 154.185C213.014 154.786 215.337 154.509 217.309 153.416V161.646C216.3 160.128 214.865 158.941 213.184 158.234C210.411 157.167 205.73 159.087 205.73 159.087C206.95 160.862 208.762 162.144 210.84 162.706C213.015 163.302 215.337 163.023 217.309 161.93V168.031C216.3 166.513 214.865 165.327 213.184 164.62C210.411 163.552 205.73 165.473 205.73 165.473C206.95 167.247 208.762 168.53 210.84 169.092C213.015 169.688 215.337 169.409 217.309 168.316V177.607C216.296 176.092 214.862 174.906 213.184 174.195C210.411 173.134 205.73 175.048 205.73 175.048C206.947 176.826 208.759 178.11 210.84 178.667C213.015 179.264 215.336 178.988 217.309 177.898V186.121C216.296 184.607 214.862 183.424 213.184 182.716C210.411 181.649 205.73 183.562 205.73 183.562C206.947 185.341 208.759 186.625 210.84 187.182C213.014 187.782 215.337 187.506 217.309 186.412V200.168C217.309 200.26 217.346 200.348 217.411 200.413C217.476 200.478 217.564 200.515 217.656 200.515C217.748 200.515 217.836 200.478 217.901 200.413C217.966 200.348 218.003 200.26 218.003 200.168V148.021C218.245 147.612 218.731 146.475 218.578 143.931Z" fill="#9EC5AB"/>
<path d="M222.336 149.699C220.581 150.442 219.095 151.706 218.079 153.318C219.068 153.89 220.161 154.258 221.295 154.404C222.428 154.549 223.578 154.468 224.68 154.164C226.761 153.607 228.574 152.323 229.79 150.545C229.79 150.545 225.103 148.631 222.336 149.699Z" fill="#9EC5AB"/>
<path d="M222.336 157.999C220.583 158.745 219.098 160.007 218.079 161.618C219.068 162.189 220.161 162.558 221.294 162.705C222.427 162.851 223.578 162.772 224.68 162.471C226.759 161.909 228.57 160.626 229.79 158.851C229.79 158.851 225.103 156.938 222.336 157.999Z" fill="#9EC5AB"/>
<path d="M222.336 164.384C220.583 165.13 219.098 166.393 218.079 168.004C219.068 168.575 220.161 168.944 221.294 169.091C222.427 169.237 223.578 169.157 224.68 168.856C226.759 168.294 228.57 167.012 229.79 165.237C229.79 165.237 225.103 163.344 222.336 164.384Z" fill="#9EC5AB"/>
<path d="M222.336 174.174C220.583 174.92 219.098 176.183 218.079 177.794C219.068 178.367 220.16 178.737 221.294 178.884C222.427 179.03 223.578 178.949 224.68 178.647C226.761 178.09 228.574 176.806 229.79 175.027C229.79 175.027 225.103 173.114 222.336 174.174Z" fill="#9EC5AB"/>
<path d="M222.336 182.696C220.581 183.439 219.095 184.702 218.079 186.315C219.068 186.886 220.161 187.255 221.295 187.4C222.428 187.545 223.578 187.464 224.68 187.161C226.761 186.604 228.574 185.32 229.79 183.542C229.79 183.542 225.103 181.628 222.336 182.696Z" fill="#9EC5AB"/>
<g opacity="0.5">
<path opacity="0.5" d="M218.578 143.931C220.717 143.288 222.524 141.842 223.619 139.895C224.678 138.029 225.041 135.847 224.645 133.738C224.645 133.738 219.986 135.721 218.793 138.432C218.325 139.528 218.089 140.708 218.1 141.899C216.325 138.529 208.927 136.304 208.927 136.304C208.927 136.304 209.988 142.266 212.331 144.18C214.078 145.608 216.29 147.155 217.309 147.848V153.124C216.296 151.611 214.862 150.427 213.184 149.72C210.411 148.652 205.73 150.566 205.73 150.566C206.947 152.344 208.759 153.628 210.84 154.185C213.014 154.786 215.337 154.509 217.309 153.416V161.646C216.3 160.128 214.865 158.941 213.184 158.234C210.411 157.167 205.73 159.087 205.73 159.087C206.95 160.862 208.762 162.144 210.84 162.706C213.015 163.302 215.337 163.023 217.309 161.93V168.031C216.3 166.513 214.865 165.327 213.184 164.62C210.411 163.552 205.73 165.473 205.73 165.473C206.95 167.247 208.762 168.53 210.84 169.092C213.015 169.688 215.337 169.409 217.309 168.316V177.607C216.296 176.092 214.862 174.906 213.184 174.195C210.411 173.134 205.73 175.048 205.73 175.048C206.947 176.826 208.759 178.11 210.84 178.667C213.015 179.264 215.336 178.988 217.309 177.898V186.121C216.296 184.607 214.862 183.424 213.184 182.716C210.411 181.649 205.73 183.562 205.73 183.562C206.947 185.341 208.759 186.625 210.84 187.182C213.014 187.782 215.337 187.506 217.309 186.412V200.168C217.309 200.26 217.346 200.348 217.411 200.413C217.476 200.478 217.564 200.515 217.656 200.515C217.748 200.515 217.836 200.478 217.901 200.413C217.966 200.348 218.003 200.26 218.003 200.168V148.021C218.245 147.612 218.731 146.475 218.578 143.931Z" fill="black"/>
<path opacity="0.5" d="M222.336 149.699C220.581 150.442 219.095 151.706 218.079 153.318C219.068 153.89 220.161 154.258 221.295 154.404C222.428 154.549 223.578 154.468 224.68 154.164C226.761 153.607 228.574 152.323 229.79 150.545C229.79 150.545 225.103 148.631 222.336 149.699Z" fill="black"/>
<path opacity="0.5" d="M222.336 157.999C220.583 158.745 219.098 160.007 218.079 161.618C219.068 162.189 220.161 162.558 221.294 162.705C222.427 162.851 223.578 162.772 224.68 162.471C226.759 161.909 228.57 160.626 229.79 158.851C229.79 158.851 225.103 156.938 222.336 157.999Z" fill="black"/>
<path opacity="0.5" d="M222.336 164.384C220.583 165.13 219.098 166.393 218.079 168.004C219.068 168.575 220.161 168.944 221.294 169.091C222.427 169.237 223.578 169.157 224.68 168.856C226.759 168.294 228.57 167.012 229.79 165.237C229.79 165.237 225.103 163.344 222.336 164.384Z" fill="black"/>
<path opacity="0.5" d="M222.336 174.174C220.583 174.92 219.098 176.183 218.079 177.794C219.068 178.367 220.16 178.737 221.294 178.884C222.427 179.03 223.578 178.949 224.68 178.647C226.761 178.09 228.574 176.806 229.79 175.027C229.79 175.027 225.103 173.114 222.336 174.174Z" fill="black"/>
<path opacity="0.5" d="M222.336 182.696C220.581 183.439 219.095 184.702 218.079 186.315C219.068 186.886 220.161 187.255 221.295 187.4C222.428 187.545 223.578 187.464 224.68 187.161C226.761 186.604 228.574 185.32 229.79 183.542C229.79 183.542 225.103 181.628 222.336 182.696Z" fill="black"/>
</g>
<path d="M222.093 198.719H214.376V214.916H222.093V198.719Z" fill="white" stroke="#263238" stroke-linecap="round" stroke-linejoin="round"/>
<path d="M222.551 196.583H213.919V200.099H222.551V196.583Z" fill="white" stroke="#263238" stroke-linecap="round" stroke-linejoin="round"/>
<path d="M180.638 198.719H161.384V214.916H180.638V198.719Z" fill="white" stroke="#263238" stroke-linecap="round" stroke-linejoin="round"/>
<path d="M181.789 196.583H160.24V200.099H181.789V196.583Z" fill="white" stroke="#263238" stroke-linecap="round" stroke-linejoin="round"/>
<path d="M164.649 168.198C164.181 166.757 163.192 165.543 161.876 164.793C159.623 163.54 157.271 162.471 154.846 161.597C154.846 161.597 154.638 162.873 156.551 165.216C158.465 167.56 162.514 170.541 162.514 170.541C161.101 170.699 159.679 170.768 158.257 170.749C155.483 170.749 152.932 174.369 152.932 174.369C152.932 174.369 156.766 175.006 158.042 175.006C159.318 175.006 164.005 173.516 164.005 173.516C164.005 173.516 162.514 175.859 162.514 177.565C162.685 179.778 162.967 181.981 163.36 184.166C163.36 184.166 165.918 183.098 166.556 180.969C167.064 178.796 167.421 176.591 167.624 174.369C168.178 175.218 168.903 175.943 169.753 176.497C171.451 177.773 176.138 179.479 176.138 179.479C175.719 177.565 174.922 175.755 173.795 174.154C172.459 172.403 170.59 171.135 168.47 170.541C168.961 170.514 169.442 170.386 169.882 170.165C170.322 169.945 170.712 169.636 171.028 169.259C172.089 167.983 173.802 163.511 173.802 163.511C172.376 163.154 170.87 163.306 169.545 163.941C167.416 165.022 164.649 168.198 164.649 168.198Z" fill="#9EC5AB"/>
<path opacity="0.5" d="M164.649 168.198C164.181 166.757 163.192 165.543 161.876 164.793C159.623 163.54 157.271 162.471 154.846 161.597C154.846 161.597 154.638 162.873 156.551 165.216C158.465 167.56 162.514 170.541 162.514 170.541C161.101 170.699 159.679 170.768 158.257 170.749C155.483 170.749 152.932 174.369 152.932 174.369C152.932 174.369 156.766 175.006 158.042 175.006C159.318 175.006 164.005 173.516 164.005 173.516C164.005 173.516 162.514 175.859 162.514 177.565C162.685 179.778 162.967 181.981 163.36 184.166C163.36 184.166 165.918 183.098 166.556 180.969C167.064 178.796 167.421 176.591 167.624 174.369C168.178 175.218 168.903 175.943 169.753 176.497C171.451 177.773 176.138 179.479 176.138 179.479C175.719 177.565 174.922 175.755 173.795 174.154C172.459 172.403 170.59 171.135 168.47 170.541C168.961 170.514 169.442 170.386 169.882 170.165C170.322 169.945 170.712 169.636 171.028 169.259C172.089 167.983 173.802 163.511 173.802 163.511C172.376 163.154 170.87 163.306 169.545 163.941C167.416 165.022 164.649 168.198 164.649 168.198Z" fill="black"/>
<path d="M174.759 185.018C174.474 184.141 173.873 183.399 173.074 182.938C171.706 182.175 170.277 181.526 168.803 180.997C168.803 180.997 168.671 181.774 169.836 183.195C170.937 184.389 172.152 185.473 173.462 186.433C172.604 186.532 171.74 186.576 170.876 186.565C169.191 186.565 167.638 188.763 167.638 188.763C167.638 188.763 169.968 189.151 170.744 189.151C171.975 188.942 173.187 188.638 174.37 188.242C173.888 188.985 173.578 189.826 173.462 190.704C173.567 192.048 173.741 193.385 173.982 194.711C174.857 194.342 175.554 193.645 175.923 192.77C176.228 191.45 176.444 190.111 176.568 188.763C176.905 189.276 177.344 189.715 177.858 190.052C179.091 190.781 180.391 191.39 181.741 191.869C181.489 190.705 181.006 189.604 180.319 188.631C179.508 187.565 178.371 186.794 177.081 186.433C177.38 186.416 177.671 186.339 177.938 186.206C178.206 186.072 178.442 185.885 178.634 185.656C179.31 184.559 179.874 183.398 180.319 182.19C179.454 181.973 178.539 182.063 177.733 182.446C176.621 183.153 175.619 184.02 174.759 185.018Z" fill="#9EC5AB"/>
<path opacity="0.5" d="M174.759 185.018C174.474 184.141 173.873 183.399 173.074 182.938C171.706 182.175 170.277 181.526 168.803 180.997C168.803 180.997 168.671 181.774 169.836 183.195C170.937 184.389 172.152 185.473 173.462 186.433C172.604 186.532 171.74 186.576 170.876 186.565C169.191 186.565 167.638 188.763 167.638 188.763C167.638 188.763 169.968 189.151 170.744 189.151C171.975 188.942 173.187 188.638 174.37 188.242C173.888 188.985 173.578 189.826 173.462 190.704C173.567 192.048 173.741 193.385 173.982 194.711C174.857 194.342 175.554 193.645 175.923 192.77C176.228 191.45 176.444 190.111 176.568 188.763C176.905 189.276 177.344 189.715 177.858 190.052C179.091 190.781 180.391 191.39 181.741 191.869C181.489 190.705 181.006 189.604 180.319 188.631C179.508 187.565 178.371 186.794 177.081 186.433C177.38 186.416 177.671 186.339 177.938 186.206C178.206 186.072 178.442 185.885 178.634 185.656C179.31 184.559 179.874 183.398 180.319 182.19C179.454 181.973 178.539 182.063 177.733 182.446C176.621 183.153 175.619 184.02 174.759 185.018Z" fill="black"/>
<path d="M168.581 193.082C168.238 192.022 167.511 191.129 166.543 190.579C164.887 189.657 163.16 188.871 161.377 188.229C161.377 188.229 161.218 189.165 162.625 190.891C163.962 192.332 165.431 193.644 167.014 194.809C165.974 194.924 164.927 194.975 163.88 194.961C161.842 194.961 159.963 197.624 159.963 197.624C159.963 197.624 162.785 198.095 163.721 198.095C164.657 198.095 168.109 196.999 168.109 196.999C168.109 196.999 167.014 198.726 167.014 199.974C167.14 201.601 167.348 203.221 167.638 204.827C167.638 204.827 169.517 204.044 169.988 202.477C170.363 200.879 170.624 199.258 170.772 197.624C171.179 198.25 171.713 198.784 172.339 199.19C173.594 200.133 177.04 201.388 177.04 201.388C176.734 199.98 176.147 198.647 175.313 197.471C174.334 196.182 172.961 195.248 171.403 194.809C171.764 194.788 172.117 194.694 172.44 194.532C172.763 194.37 173.05 194.143 173.282 193.866C174.065 192.93 175.313 189.636 175.313 189.636C174.264 189.372 173.156 189.482 172.179 189.948C170.619 190.732 168.581 193.082 168.581 193.082Z" fill="#9EC5AB"/>
<path d="M162.729 183.971C162.389 182.911 161.664 182.015 160.698 181.462C159.039 180.541 157.31 179.755 155.525 179.111C155.525 179.111 155.373 180.054 156.78 181.78C158.113 183.221 159.58 184.53 161.162 185.691C160.124 185.812 159.08 185.865 158.035 185.85C155.997 185.85 154.118 188.513 154.118 188.513C154.118 188.513 156.933 188.984 157.876 188.984C158.819 188.984 162.244 187.889 162.244 187.889C162.244 187.889 161.141 189.608 161.141 190.863C161.268 192.491 161.479 194.111 161.772 195.717C161.772 195.717 163.651 194.933 164.123 193.366C164.493 191.768 164.755 190.147 164.906 188.513C165.316 189.137 165.849 189.671 166.473 190.08C167.721 191.023 171.167 192.271 171.167 192.271C170.862 190.863 170.277 189.531 169.448 188.353C168.463 187.067 167.089 186.133 165.53 185.691C165.891 185.671 166.243 185.578 166.566 185.417C166.889 185.256 167.176 185.031 167.409 184.755C168.193 183.812 169.448 180.525 169.448 180.525C168.399 180.261 167.29 180.372 166.314 180.838C164.768 181.621 162.729 183.971 162.729 183.971Z" fill="#9EC5AB"/>
<path d="M172.914 176.456C171.826 176.22 170.689 176.398 169.725 176.955C168.093 177.921 166.542 179.018 165.086 180.234C165.086 180.234 165.821 180.844 168.019 180.498C169.938 180.07 171.811 179.462 173.615 178.681C173.194 179.636 172.712 180.562 172.172 181.455C171.146 183.216 172.498 186.183 172.498 186.183C172.498 186.183 174.322 183.985 174.8 183.174C175.279 182.363 176.062 178.834 176.062 178.834C176.547 179.787 177.236 180.623 178.08 181.281C179.549 181.991 181.053 182.625 182.587 183.181C182.587 183.181 182.857 181.163 181.741 179.971C180.549 178.841 179.279 177.796 177.941 176.844C178.687 176.808 179.416 176.617 180.084 176.282C181.533 175.672 184.348 173.329 184.348 173.329C182.978 172.882 181.532 172.717 180.097 172.843C178.491 173.044 176.993 173.759 175.826 174.882C175.988 174.562 176.083 174.213 176.105 173.855C176.128 173.498 176.078 173.139 175.958 172.802C175.542 171.665 173.337 168.891 173.337 168.891C172.583 169.665 172.122 170.678 172.034 171.755C171.909 173.516 172.914 176.456 172.914 176.456Z" fill="#9EC5AB"/>
<path d="M201.134 203.85H175.119V214.923H201.134V203.85Z" fill="white" stroke="#263238" stroke-linecap="round" stroke-linejoin="round"/>
<path d="M202.687 202.387H173.573V204.786H202.687V202.387Z" fill="white" stroke="#263238" stroke-linecap="round" stroke-linejoin="round"/>
<path d="M184.868 197.811C184.868 197.811 186.15 197.166 184.022 195.675C181.893 194.184 181.248 194.191 181.248 194.191L183.377 197.811C181.999 197.349 180.569 197.063 179.12 196.958C178.092 196.959 177.076 197.176 176.138 197.596L180.499 199.884C180.499 199.884 175.923 199.509 175.071 199.509C173.981 199.683 172.912 199.968 171.881 200.362L175.071 201L170.176 202.491L175.286 202.914V205.042L178.475 203.129C178.638 203.578 178.855 204.006 179.12 204.404C179.543 205.042 181.033 206.748 181.033 206.748L182.947 203.767C182.947 203.767 183.585 205.687 184.223 205.687C184.944 205.764 185.656 205.905 186.351 206.11L186.844 203.378L189.971 205.687V203.767L191.676 205.687L193.167 203.344L193.382 205.257L196.155 203.981L197.431 206.533L198.069 203.344L199.858 203.635L200.198 202.706L201.05 203.129C202.138 203.576 203.285 203.863 204.455 203.981C203.931 203.239 203.364 202.528 202.756 201.853C202.043 201.312 201.253 200.882 200.412 200.577L201.903 199.939C201.903 199.939 198.922 198.872 198.069 198.872C197.242 199.008 196.447 199.297 195.725 199.724C196.405 199.278 196.985 198.698 197.431 198.019C197.769 197.258 198.054 196.475 198.284 195.675C198.284 195.675 195.088 195.675 194.665 196.743C194.242 197.811 193.389 199.516 193.389 199.516L191.898 196.327C191.457 196.757 191.096 197.262 190.83 197.818C190.661 198.376 190.52 198.943 190.407 199.516L189.132 196.965C188.737 196.314 188.233 195.737 187.641 195.259C187.528 196.036 187.456 196.818 187.426 197.603V199.093L186.358 196.535V198.664L184.868 197.811Z" fill="#9EC5AB"/>
<path opacity="0.3" d="M184.868 197.811C184.868 197.811 186.15 197.166 184.022 195.675C181.893 194.184 181.248 194.191 181.248 194.191L183.377 197.811C181.999 197.349 180.569 197.063 179.12 196.958C178.092 196.959 177.076 197.176 176.138 197.596L180.499 199.884C180.499 199.884 175.923 199.509 175.071 199.509C173.981 199.683 172.912 199.968 171.881 200.362L175.071 201L170.176 202.491L175.286 202.914V205.042L178.475 203.129C178.638 203.578 178.855 204.006 179.12 204.404C179.543 205.042 181.033 206.748 181.033 206.748L182.947 203.767C182.947 203.767 183.585 205.687 184.223 205.687C184.944 205.764 185.656 205.905 186.351 206.11L186.844 203.378L189.971 205.687V203.767L191.676 205.687L193.167 203.344L193.382 205.257L196.155 203.981L197.431 206.533L198.069 203.344L199.858 203.635L200.198 202.706L201.05 203.129C202.138 203.576 203.285 203.863 204.455 203.981C203.931 203.239 203.364 202.528 202.756 201.853C202.043 201.312 201.253 200.882 200.412 200.577L201.903 199.939C201.903 199.939 198.922 198.872 198.069 198.872C197.242 199.008 196.447 199.297 195.725 199.724C196.405 199.278 196.985 198.698 197.431 198.019C197.769 197.258 198.054 196.475 198.284 195.675C198.284 195.675 195.088 195.675 194.665 196.743C194.242 197.811 193.389 199.516 193.389 199.516L191.898 196.327C191.457 196.757 191.096 197.262 190.83 197.818C190.661 198.376 190.52 198.943 190.407 199.516L189.132 196.965C188.737 196.314 188.233 195.737 187.641 195.259C187.528 196.036 187.456 196.818 187.426 197.603V199.093L186.358 196.535V198.664L184.868 197.811Z" fill="black"/>
</svg>
